{
.appVersion = "3112";
DisplayStrings = (
"})/Placeholder"
);
copyright = "Copyright 2014-2021 The Lavishly Yours Project Authors (https://github.com/googlefonts/lavishly-yours)";
customParameters = (
{
name = glyphOrder;
value = (
.notdef,
CR,
.null,
space,
nbspace
);
},
{
name = fsType;
value = (
);
},
{
name = "Use Typo Metrics";
value = 1;
},
{
name = licenseURL;
value = "https://scripts.sil.org/OFL";
},
{
name = license;
value = "This Font Software is licensed under the SIL Open Font License, Version 1.1. This license is available with a FAQ at: https://scripts.sil.org/OFL";
},
{
name = vendorID;
value = GOOG;
},
{
name = Axes;
value = (
{
Name = Weight;
Tag = wght;
},
{
Name = Width;
Tag = wdth;
}
);
}
);
date = "2022-02-07 15:36:42 +0000";
designer = "Robert E. Leuschke";
designerURL = www.typesetit.com;
disablesNiceNames = 1;
familyName = "Lavishly Yours";
featurePrefixes = (
{
automatic = 1;
code = "languagesystem DFLT dflt;\012\012languagesystem latn dflt;\012languagesystem latn AZE;\012languagesystem latn CRT;\012languagesystem latn KAZ;\012languagesystem latn TAT;\012languagesystem latn TRK;\012languagesystem latn ROM;\012languagesystem latn MOL;\012languagesystem latn CAT;\012";
name = Languagesystems;
}
);
features = (
{
automatic = 1;
code = "feature locl;\012feature sups;\012feature frac;\012feature ordn;\012feature lnum;\012feature onum;\012feature case;\012";
name = aalt;
},
{
automatic = 1;

glyphs = (
{
glyphname = .notdef;
lastChange = "2022-02-07 18:28:45 +0000";
layers = (
{
background = {
paths = (
{
closed = 1;
nodes = (
"591 0 LINE",
"591 878 LINE",
"85 878 LINE",
"85 0 LINE"
);
},
{
closed = 1;
nodes = (
"169 793 LINE",
"506 793 LINE",
"506 85 LINE",
"169 85 LINE"
);
}
);
};
layerId = "64752FBD-EC7B-42BB-A7F3-340BB4BBD1AC";
paths = (
{
closed = 1;
nodes = (
"591 0 LINE",
"591 878 LINE",
"85 878 LINE",
"85 0 LINE"
);
},
{
closed = 1;
nodes = (
"169 793 LINE",
"506 793 LINE",
"506 85 LINE",
"169 85 LINE"
);
}
);
width = 676;
}
);
note = ".notdef";
},
{
color = 3;
glyphname = A;
lastChange = "2022-02-14 21:32:36 +0000";
layers = (
{
anchors = (
{
name = bottom;
position = "{657, 0}";
},
{
name = ogonek;
position = "{906, 0}";
},
{
name = top;
position = "{874, 670}";
}
);
background = {
paths = (
{
closed = 1;
nodes = (
"269 -87 OFFCURVE",
"312 -79 OFFCURVE",
"356 -64 CURVE SMOOTH",
"471 -26 OFFCURVE",
"579 74 OFFCURVE",
"678 238 CURVE",
"734 232 OFFCURVE",
"780 228 OFFCURVE",
"816 227 CURVE",
"829 97 OFFCURVE",
"879 2 OFFCURVE",
"964 -56 CURVE SMOOTH",
"968 -59 OFFCURVE",
"971 -60 OFFCURVE",
"974 -60 CURVE SMOOTH",
"977 -60 OFFCURVE",
"980 -51 OFFCURVE",
"983 -33 CURVE SMOOTH",
"985 -17 OFFCURVE",
"993 -8 OFFCURVE",
"1007 -8 CURVE SMOOTH",
"1008 -8 OFFCURVE",
"1010 -8 OFFCURVE",
"1013 -9 CURVE",
"1019 -9 LINE SMOOTH",
"1047 -9 OFFCURVE",
"1070 3 OFFCURVE",
"1090 25 CURVE SMOOTH",
"1109 48 OFFCURVE",
"1119 73 OFFCURVE",
"1119 101 CURVE SMOOTH",
"1119 105 OFFCURVE",
"1118 107 OFFCURVE",
"1117 107 CURVE SMOOTH",
"1116 107 OFFCURVE",
"1114 106 OFFCURVE",
"1113 104 CURVE SMOOTH",
"1096 61 OFFCURVE",
"1087 39 OFFCURVE",
"1086 38 CURVE",
"1072 16 OFFCURVE",
"1052 4 OFFCURVE",
"1025 4 CURVE SMOOTH",
"977 4 OFFCURVE",
"938 30 OFFCURVE",
"907 84 CURVE SMOOTH",
"885 124 OFFCURVE",
"871 172 OFFCURVE",
"864 227 CURVE",
"964 230 OFFCURVE",
"1025 264 OFFCURVE",
"1049 329 CURVE SMOOTH",
"1056 347 OFFCURVE",
"1060 362 OFFCURVE",
"1060 373 CURVE SMOOTH",
"1060 378 OFFCURVE",
"1058 381 OFFCURVE",
"1054 381 CURVE SMOOTH",
"1051 381 OFFCURVE",
"1049 379 OFFCURVE",
"1048 375 CURVE SMOOTH",
"1043 350 OFFCURVE",
"1037 333 OFFCURVE",
"1032 322 CURVE SMOOTH",
"1007 276 OFFCURVE",
"950 252 OFFCURVE",
"862 249 CURVE",
"861 266 OFFCURVE",
"860 284 OFFCURVE",
"860 301 CURVE SMOOTH",
"860 415 OFFCURVE",
"881 505 OFFCURVE",
"924 575 CURVE",
"1022 578 OFFCURVE",
"1070 602 OFFCURVE",
"1070 647 CURVE SMOOTH",
"1070 675 OFFCURVE",
"1052 690 OFFCURVE",
"1015 690 CURVE SMOOTH",
"990 690 OFFCURVE",
"965 679 OFFCURVE",
"938 659 CURVE SMOOTH",
"916 643 OFFCURVE",
"894 620 OFFCURVE",
"871 588 CURVE",
"837 591 OFFCURVE",
"796 597 OFFCURVE",
"750 607 CURVE",
"749 651 OFFCURVE",
"742 685 OFFCURVE",
"727 709 CURVE SMOOTH",
"720 722 OFFCURVE",
"714 728 OFFCURVE",
"707 728 CURVE SMOOTH",
"703 728 OFFCURVE",
"700 725 OFFCURVE",
"700 720 CURVE SMOOTH",
"700 717 OFFCURVE",
"701 712 OFFCURVE",
"703 707 CURVE SMOOTH",
"719 680 OFFCURVE",
"728 648 OFFCURVE",
"729 611 CURVE",
"561 651 LINE SMOOTH",
"497 665 OFFCURVE",
"447 672 OFFCURVE",
"413 672 CURVE SMOOTH",
"311 672 OFFCURVE",
"242 640 OFFCURVE",
"204 577 CURVE SMOOTH",
"190 553 OFFCURVE",
"183 529 OFFCURVE",
"183 502 CURVE SMOOTH",
"183 459 OFFCURVE",
"200 422 OFFCURVE",
"233 396 CURVE SMOOTH",
"264 372 OFFCURVE",
"302 360 OFFCURVE",
"347 360 CURVE SMOOTH",
"387 360 OFFCURVE",
"423 372 OFFCURVE",
"457 396 CURVE SMOOTH",
"493 422 OFFCURVE",
"510 456 OFFCURVE",
"510 494 CURVE SMOOTH",
"510 520 OFFCURVE",
"499 542 OFFCURVE",
"475 559 CURVE SMOOTH",
"455 575 OFFCURVE",
"430 582 OFFCURVE",
"402 582 CURVE SMOOTH",
"379 582 OFFCURVE",
"358 578 OFFCURVE",
"341 567 CURVE SMOOTH",
"320 554 OFFCURVE",
"310 538 OFFCURVE",
"310 515 CURVE SMOOTH",
"310 514 OFFCURVE",
"310 512 OFFCURVE",
"311 511 CURVE",
"314 515 OFFCURVE",
"316 519 OFFCURVE",
"317 522 CURVE SMOOTH",
"320 536 LINE",
"328 559 OFFCURVE",
"355 571 OFFCURVE",
"402 571 CURVE SMOOTH",
"426 571 OFFCURVE",
"448 564 OFFCURVE",
"467 550 CURVE SMOOTH",
"490 536 OFFCURVE",
"501 516 OFFCURVE",
"501 494 CURVE SMOOTH",
"501 459 OFFCURVE",
"483 428 OFFCURVE",
"449 404 CURVE SMOOTH",
"418 382 OFFCURVE",
"383 372 OFFCURVE",
"347 372 CURVE SMOOTH",
"309 372 OFFCURVE",
"276 381 OFFCURVE",
"250 398 CURVE SMOOTH",
"220 419 OFFCURVE",
"204 447 OFFCURVE",
"204 483 CURVE SMOOTH",
"204 507 OFFCURVE",
"212 531 OFFCURVE",
"227 553 CURVE SMOOTH",
"267 611 OFFCURVE",
"337 639 OFFCURVE",
"436 639 CURVE SMOOTH",
"471 639 OFFCURVE",
"519 633 OFFCURVE",
"581 622 CURVE SMOOTH",
"646 610 OFFCURVE",
"696 601 OFFCURVE",
"729 594 CURVE",
"728 527 OFFCURVE",
"711 450 OFFCURVE",
"677 364 CURVE",
"681 394 OFFCURVE",
"671 409 OFFCURVE",
"649 409 CURVE SMOOTH",
"625 409 OFFCURVE",
"612 397 OFFCURVE",
"608 374 CURVE",
"638 375 OFFCURVE",
"658 350 OFFCURVE",
"659 320 CURVE",
"650 301 OFFCURVE",
"640 281 OFFCURVE",
"629 261 CURVE",
"560 268 OFFCURVE",
"505 271 OFFCURVE",
"465 271 CURVE SMOOTH",
"429 271 OFFCURVE",
"397 269 OFFCURVE",
"369 266 CURVE SMOOTH",
"209 248 OFFCURVE",
"103 202 OFFCURVE",
"52 131 CURVE SMOOTH",
"34 106 OFFCURVE",
"25 82 OFFCURVE",
"25 56 CURVE SMOOTH",
"25 10 OFFCURVE",
"49 -27 OFFCURVE",
"95 -54 CURVE SMOOTH",
"134 -76 OFFCURVE",
"178 -87 OFFCURVE",
"227 -87 CURVE SMOOTH"
);
},
{
closed = 1;
nodes = (
"197 -72 OFFCURVE",
"161 -62 OFFCURVE",
"131 -44 CURVE SMOOTH",
"97 -21 OFFCURVE",
"79 11 OFFCURVE",
"79 51 CURVE SMOOTH",
"79 91 OFFCURVE",
"97 128 OFFCURVE",
"132 161 CURVE SMOOTH",
"160 188 OFFCURVE",
"196 210 OFFCURVE",
"240 226 CURVE SMOOTH",
"297 247 OFFCURVE",
"364 257 OFFCURVE",
"441 257 CURVE SMOOTH",
"485 257 OFFCURVE",
"544 253 OFFCURVE",
"620 245 CURVE",
"542 107 OFFCURVE",
"461 26 OFFCURVE",
"374 0 CURVE",
"399 18 LINE",
"404 25 OFFCURVE",
"407 47 OFFCURVE",
"407 81 CURVE SMOOTH",
"407 82 OFFCURVE",
"406 83 OFFCURVE",
"404 83 CURVE SMOOTH",
"391 83 OFFCURVE",
"381 73 OFFCURVE",
"371 53 CURVE",
"371 51 LINE SMOOTH",
"370 19 OFFCURVE",
"363 -3 OFFCURVE",
"348 -13 CURVE",
"446 0 OFFCURVE",
"542 86 OFFCURVE",
"634 243 CURVE",
"666 239 LINE",
"570 80 OFFCURVE",
"466 -18 OFFCURVE",
"354 -54 CURVE SMOOTH",
"313 -66 OFFCURVE",
"275 -72 OFFCURVE",
"239 -72 CURVE SMOOTH"
);
},
{
closed = 1;
nodes = (
"644 261 LINE",
"672 311 OFFCURVE",
"696 360 OFFCURVE",
"712 407 CURVE SMOOTH",
"737 474 OFFCURVE",
"749 536 OFFCURVE",
"750 590 CURVE",
"792 583 OFFCURVE",
"829 579 OFFCURVE",
"862 576 CURVE",
"804 483 OFFCURVE",
"763 414 OFFCURVE",
"739 366 CURVE SMOOTH",
"710 314 OFFCURVE",
"690 278 OFFCURVE",
"677 258 CURVE"
);
},
{
closed = 1;
nodes = (
"782 250 OFFCURVE",
"740 252 OFFCURVE",
"690 257 CURVE",
"704 281 OFFCURVE",
"724 315 OFFCURVE",
"748 360 CURVE SMOOTH",
"813 476 OFFCURVE",
"855 547 OFFCURVE",
"875 576 CURVE",
"880 575 OFFCURVE",
"886 575 OFFCURVE",
"891 575 CURVE",
"839 497 OFFCURVE",
"813 401 OFFCURVE",
"813 288 CURVE SMOOTH",
"813 275 OFFCURVE",
"813 261 OFFCURVE",
"814 249 CURVE"
);
},
{
closed = 1;
nodes = (
"895 587 OFFCURVE",
"889 587 OFFCURVE",
"884 587 CURVE",
"928 646 OFFCURVE",
"966 671 OFFCURVE",
"997 671 CURVE SMOOTH",
"1022 671 OFFCURVE",
"1034 662 OFFCURVE",
"1034 641 CURVE SMOOTH",
"1034 611 OFFCURVE",
"1001 592 OFFCURVE",
"934 587 CURVE",
"950 611 OFFCURVE",
"970 628 OFFCURVE",
"991 640 CURVE",
"992 641 OFFCURVE",
"993 641 OFFCURVE",
"993 641 CURVE",
"993 642 OFFCURVE",
"993 642 OFFCURVE",
"992 642 CURVE SMOOTH",
"985 642 OFFCURVE",
"974 638 OFFCURVE",
"956 631 CURVE SMOOTH",
"939 624 OFFCURVE",
"928 620 OFFCURVE",
"923 615 CURVE SMOOTH",
"916 608 OFFCURVE",
"908 598 OFFCURVE",
"900 586 CURVE"
);
}
);
};
layerId = "64752FBD-EC7B-42BB-A7F3-340BB4BBD1AC";
paths = (
{
closed = 1;
nodes = (
"269 -87 OFFCURVE",
"312 -79 OFFCURVE",
"356 -64 CURVE SMOOTH",
"471 -26 OFFCURVE",
"579 74 OFFCURVE",
"678 238 CURVE",
"734 232 OFFCURVE",
"780 228 OFFCURVE",
"816 227 CURVE",
"829 97 OFFCURVE",
"879 2 OFFCURVE",
"964 -56 CURVE SMOOTH",
"968 -59 OFFCURVE",
"971 -60 OFFCURVE",
"974 -60 CURVE SMOOTH",
"977 -60 OFFCURVE",
"980 -51 OFFCURVE",
"983 -33 CURVE SMOOTH",
"985 -17 OFFCURVE",
"993 -8 OFFCURVE",
"1007 -8 CURVE SMOOTH",
"1008 -8 OFFCURVE",
"1010 -8 OFFCURVE",
"1013 -9 CURVE",
"1019 -9 LINE SMOOTH",
"1047 -9 OFFCURVE",
"1070 3 OFFCURVE",
"1090 25 CURVE SMOOTH",
"1109 48 OFFCURVE",
"1119 73 OFFCURVE",
"1119 101 CURVE SMOOTH",
"1119 105 OFFCURVE",
"1118 107 OFFCURVE",
"1117 107 CURVE SMOOTH",
"1116 107 OFFCURVE",
"1114 106 OFFCURVE",
"1113 104 CURVE SMOOTH",
"1096 61 OFFCURVE",
"1087 39 OFFCURVE",
"1086 38 CURVE SMOOTH",
"1072 16 OFFCURVE",
"1052 4 OFFCURVE",
"1025 4 CURVE SMOOTH",
"977 4 OFFCURVE",
"938 30 OFFCURVE",
"907 84 CURVE SMOOTH",
"885 124 OFFCURVE",
"871 172 OFFCURVE",
"864 227 CURVE",
"964 230 OFFCURVE",
"1025 264 OFFCURVE",
"1049 329 CURVE SMOOTH",
"1056 347 OFFCURVE",
"1060 362 OFFCURVE",
"1060 373 CURVE SMOOTH",
"1060 378 OFFCURVE",
"1058 381 OFFCURVE",
"1054 381 CURVE SMOOTH",
"1051 381 OFFCURVE",
"1049 379 OFFCURVE",
"1048 375 CURVE SMOOTH",
"1043 350 OFFCURVE",
"1037 333 OFFCURVE",
"1032 322 CURVE SMOOTH",
"1007 276 OFFCURVE",
"950 252 OFFCURVE",
"862 249 CURVE",
"861 266 OFFCURVE",
"860 284 OFFCURVE",
"860 301 CURVE SMOOTH",
"860 415 OFFCURVE",
"881 505 OFFCURVE",
"924 575 CURVE",
"1022 578 OFFCURVE",
"1070 602 OFFCURVE",
"1070 647 CURVE SMOOTH",
"1070 675 OFFCURVE",
"1052 690 OFFCURVE",
"1015 690 CURVE SMOOTH",
"990 690 OFFCURVE",
"965 679 OFFCURVE",
"938 659 CURVE SMOOTH",
"916 643 OFFCURVE",
"894 620 OFFCURVE",
"871 588 CURVE",
"837 591 OFFCURVE",
"796 597 OFFCURVE",
"750 607 CURVE",
"749 651 OFFCURVE",
"742 685 OFFCURVE",
"727 709 CURVE SMOOTH",
"720 722 OFFCURVE",
"714 728 OFFCURVE",
"707 728 CURVE SMOOTH",
"703 728 OFFCURVE",
"700 725 OFFCURVE",
"700 720 CURVE SMOOTH",
"700 717 OFFCURVE",
"701 712 OFFCURVE",
"703 707 CURVE",
"719 680 OFFCURVE",
"728 648 OFFCURVE",
"729 611 CURVE",
"561 651 LINE SMOOTH",
"497 666 OFFCURVE",
"447 672 OFFCURVE",
"413 672 CURVE SMOOTH",
"311 672 OFFCURVE",
"242 640 OFFCURVE",
"204 577 CURVE SMOOTH",
"190 553 OFFCURVE",
"183 529 OFFCURVE",
"183 502 CURVE SMOOTH",
"183 459 OFFCURVE",
"200 422 OFFCURVE",
"233 396 CURVE SMOOTH",
"264 372 OFFCURVE",
"302 360 OFFCURVE",
"347 360 CURVE SMOOTH",
"387 360 OFFCURVE",
"423 372 OFFCURVE",
"457 396 CURVE SMOOTH",
"493 422 OFFCURVE",
"510 456 OFFCURVE",
"510 494 CURVE SMOOTH",
"510 520 OFFCURVE",
"499 542 OFFCURVE",
"475 559 CURVE SMOOTH",
"455 575 OFFCURVE",
"430 582 OFFCURVE",
"402 582 CURVE SMOOTH",
"379 582 OFFCURVE",
"358 578 OFFCURVE",
"341 567 CURVE SMOOTH",
"320 554 OFFCURVE",
"310 538 OFFCURVE",
"310 515 CURVE SMOOTH",
"310 514 OFFCURVE",
"310 512 OFFCURVE",
"311 511 CURVE",
"314 515 OFFCURVE",
"316 519 OFFCURVE",
"317 522 CURVE SMOOTH",
"320 536 LINE",
"328 559 OFFCURVE",
"355 571 OFFCURVE",
"402 571 CURVE SMOOTH",
"426 571 OFFCURVE",
"448 564 OFFCURVE",
"467 550 CURVE SMOOTH",
"490 536 OFFCURVE",
"501 516 OFFCURVE",
"501 494 CURVE SMOOTH",
"501 459 OFFCURVE",
"483 428 OFFCURVE",
"449 404 CURVE SMOOTH",
"418 382 OFFCURVE",
"383 372 OFFCURVE",
"347 372 CURVE SMOOTH",
"309 372 OFFCURVE",
"276 381 OFFCURVE",
"250 398 CURVE SMOOTH",
"220 419 OFFCURVE",
"204 447 OFFCURVE",
"204 483 CURVE SMOOTH",
"204 507 OFFCURVE",
"212 531 OFFCURVE",
"227 553 CURVE SMOOTH",
"267 611 OFFCURVE",
"337 639 OFFCURVE",
"436 639 CURVE SMOOTH",
"471 639 OFFCURVE",
"519 633 OFFCURVE",
"581 622 CURVE SMOOTH",
"646 610 OFFCURVE",
"696 601 OFFCURVE",
"729 594 CURVE",
"728 527 OFFCURVE",
"711 450 OFFCURVE",
"677 364 CURVE",
"681 394 OFFCURVE",
"671 409 OFFCURVE",
"649 409 CURVE SMOOTH",
"625 409 OFFCURVE",
"612 397 OFFCURVE",
"608 374 CURVE",
"638 375 OFFCURVE",
"658 350 OFFCURVE",
"659 320 CURVE",
"650 301 OFFCURVE",
"640 281 OFFCURVE",
"629 261 CURVE",
"560 268 OFFCURVE",
"505 271 OFFCURVE",
"465 271 CURVE SMOOTH",
"429 271 OFFCURVE",
"397 269 OFFCURVE",
"369 266 CURVE SMOOTH",
"209 248 OFFCURVE",
"103 202 OFFCURVE",
"52 131 CURVE SMOOTH",
"34 106 OFFCURVE",
"25 82 OFFCURVE",
"25 56 CURVE SMOOTH",
"25 10 OFFCURVE",
"49 -27 OFFCURVE",
"95 -54 CURVE SMOOTH",
"134 -76 OFFCURVE",
"178 -87 OFFCURVE",
"227 -87 CURVE SMOOTH"
);
},
{
closed = 1;
nodes = (
"197 -72 OFFCURVE",
"161 -62 OFFCURVE",
"131 -44 CURVE SMOOTH",
"97 -21 OFFCURVE",
"79 11 OFFCURVE",
"79 51 CURVE SMOOTH",
"79 91 OFFCURVE",
"97 128 OFFCURVE",
"132 161 CURVE SMOOTH",
"160 188 OFFCURVE",
"196 210 OFFCURVE",
"240 226 CURVE SMOOTH",
"297 247 OFFCURVE",
"364 257 OFFCURVE",
"441 257 CURVE SMOOTH",
"485 257 OFFCURVE",
"544 253 OFFCURVE",
"620 245 CURVE",
"542 107 OFFCURVE",
"461 26 OFFCURVE",
"374 0 CURVE",
"399 18 LINE",
"404 25 OFFCURVE",
"407 47 OFFCURVE",
"407 81 CURVE SMOOTH",
"407 82 OFFCURVE",
"406 83 OFFCURVE",
"404 83 CURVE SMOOTH",
"391 83 OFFCURVE",
"381 73 OFFCURVE",
"371 53 CURVE",
"371 51 LINE SMOOTH",
"371 19 OFFCURVE",
"363 -3 OFFCURVE",
"348 -13 CURVE",
"446 0 OFFCURVE",
"542 86 OFFCURVE",
"634 243 CURVE",
"666 239 LINE",
"570 80 OFFCURVE",
"466 -18 OFFCURVE",
"354 -54 CURVE SMOOTH",
"313 -66 OFFCURVE",
"275 -72 OFFCURVE",
"239 -72 CURVE SMOOTH"
);
},
{
closed = 1;
nodes = (
"644 261 LINE",
"672 311 OFFCURVE",
"696 360 OFFCURVE",
"712 407 CURVE SMOOTH",
"737 474 OFFCURVE",
"749 536 OFFCURVE",
"750 590 CURVE",
"792 583 OFFCURVE",
"829 579 OFFCURVE",
"862 576 CURVE",
"804 483 OFFCURVE",
"763 414 OFFCURVE",
"739 366 CURVE SMOOTH",
"710 314 OFFCURVE",
"690 278 OFFCURVE",
"677 258 CURVE"
);
},
{
closed = 1;
nodes = (
"782 250 OFFCURVE",
"740 252 OFFCURVE",
"690 257 CURVE",
"704 281 OFFCURVE",
"724 315 OFFCURVE",
"748 360 CURVE SMOOTH",
"813 476 OFFCURVE",
"855 547 OFFCURVE",
"875 576 CURVE",
"880 575 OFFCURVE",
"886 575 OFFCURVE",
"891 575 CURVE",
"839 497 OFFCURVE",
"813 401 OFFCURVE",
"813 288 CURVE SMOOTH",
"813 275 OFFCURVE",
"813 261 OFFCURVE",
"814 249 CURVE"
);
},
{
closed = 1;
nodes = (
"895 587 OFFCURVE",
"889 587 OFFCURVE",
"884 587 CURVE",
"928 646 OFFCURVE",
"966 671 OFFCURVE",
"997 671 CURVE SMOOTH",
"1022 671 OFFCURVE",
"1034 662 OFFCURVE",
"1034 641 CURVE SMOOTH",
"1034 611 OFFCURVE",
"1001 592 OFFCURVE",
"934 587 CURVE",
"950 611 OFFCURVE",
"970 628 OFFCURVE",
"991 640 CURVE",
"992 641 OFFCURVE",
"993 641 OFFCURVE",
"993 641 CURVE",
"993 642 OFFCURVE",
"993 642 OFFCURVE",
"992 642 CURVE SMOOTH",
"985 642 OFFCURVE",
"974 638 OFFCURVE",
"956 631 CURVE SMOOTH",
"939 624 OFFCURVE",
"928 620 OFFCURVE",
"923 615 CURVE SMOOTH",
"916 608 OFFCURVE",
"908 598 OFFCURVE",
"900 586 CURVE"
);
}
);
width = 1073;
}
);
leftKerningGroup = A;
note = A;
rightKerningGroup = A;
unicode = 0041;
},
{
color = 3;
glyphname = AE;
lastChange = "2022-02-14 21:32:36 +0000";
layers = (
{
anchors = (
{
name = top;
position = "{874, 670}";
}
);
background = {
paths = (
{
closed = 1;
nodes = (
"197 -72 OFFCURVE",
"161 -62 OFFCURVE",
"131 -44 CURVE SMOOTH",
"97 -21 OFFCURVE",
"79 11 OFFCURVE",
"79 51 CURVE SMOOTH",
"79 91 OFFCURVE",
"97 128 OFFCURVE",
"132 161 CURVE SMOOTH",
"160 188 OFFCURVE",
"196 210 OFFCURVE",
"240 226 CURVE SMOOTH",
"297 247 OFFCURVE",
"364 257 OFFCURVE",
"441 257 CURVE SMOOTH",
"485 257 OFFCURVE",
"544 253 OFFCURVE",
"620 245 CURVE",
"542 107 OFFCURVE",
"461 26 OFFCURVE",
"374 0 CURVE",
"399 18 LINE",
"404 25 OFFCURVE",
"407 47 OFFCURVE",
"407 81 CURVE SMOOTH",
"407 82 OFFCURVE",
"406 83 OFFCURVE",
"404 83 CURVE SMOOTH",
"391 83 OFFCURVE",
"381 73 OFFCURVE",
"371 53 CURVE",
"371 51 LINE SMOOTH",
"371 19 OFFCURVE",
"363 -3 OFFCURVE",
"348 -13 CURVE",
"446 0 OFFCURVE",
"542 86 OFFCURVE",
"634 243 CURVE",
"666 239 LINE",
"570 80 OFFCURVE",
"466 -18 OFFCURVE",
"354 -54 CURVE SMOOTH",
"313 -66 OFFCURVE",
"275 -72 OFFCURVE",
"239 -72 CURVE SMOOTH"
);
},
{
closed = 1;
nodes = (
"737 354 OFFCURVE",
"684 268 CURVE",
"651 271 LINE",
"672 311 OFFCURVE",
"696 360 OFFCURVE",
"712 407 CURVE SMOOTH",
"748 505 OFFCURVE",
"769 639 OFFCURVE",
"727 709 CURVE SMOOTH",
"720 722 OFFCURVE",
"714 728 OFFCURVE",
"707 728 CURVE SMOOTH",
"703 728 OFFCURVE",
"700 725 OFFCURVE",
"700 720 CURVE SMOOTH",
"700 717 OFFCURVE",
"701 712 OFFCURVE",
"703 707 CURVE SMOOTH",
"719 680 OFFCURVE",
"729 648 OFFCURVE",
"729 611 CURVE SMOOTH",
"729 594 LINE SMOOTH",
"729 527 OFFCURVE",
"711 450 OFFCURVE",
"677 364 CURVE",
"681 394 OFFCURVE",
"671 409 OFFCURVE",
"649 409 CURVE SMOOTH",
"625 409 OFFCURVE",
"612 397 OFFCURVE",
"608 374 CURVE",
"638 375 OFFCURVE",
"658 350 OFFCURVE",
"659 320 CURVE",
"650 301 OFFCURVE",
"640 281 OFFCURVE",
"636 272 CURVE",
"403 287 OFFCURVE",
"144 259 OFFCURVE",
"52 131 CURVE SMOOTH",
"34 106 OFFCURVE",
"25 82 OFFCURVE",
"25 56 CURVE SMOOTH",
"25 10 OFFCURVE",
"49 -27 OFFCURVE",
"95 -54 CURVE SMOOTH",
"134 -76 OFFCURVE",
"178 -87 OFFCURVE",
"227 -87 CURVE SMOOTH",
"269 -87 OFFCURVE",
"312 -79 OFFCURVE",
"356 -64 CURVE SMOOTH",
"471 -26 OFFCURVE",
"579 47 OFFCURVE",
"690 238 CURVE",
"895 216 OFFCURVE",
"1197 149 OFFCURVE",
"1197 329 CURVE SMOOTH",
"1197 348 OFFCURVE",
"1208 362 OFFCURVE",
"1208 373 CURVE SMOOTH",
"1208 378 OFFCURVE",
"1206 381 OFFCURVE",
"1202 381 CURVE SMOOTH",
"1199 381 OFFCURVE",
"1197 379 OFFCURVE",
"1196 375 CURVE SMOOTH",
"1191 350 OFFCURVE",
"1185 333 OFFCURVE",
"1181 322 CURVE SMOOTH",
"1129 229 OFFCURVE",
"972 244 OFFCURVE",
"708 267 CURVE",
"833 507 OFFCURVE",
"890 610 OFFCURVE",
"972 659 CURVE SMOOTH",
"986 667 OFFCURVE",
"981 681 OFFCURVE",
"964 675 CURVE",
"853 625 OFFCURVE"
);
},
{
closed = 1;
nodes = (
"659 612 OFFCURVE",
"874 592 OFFCURVE",
"940 578 CURVE",
"923 563 OFFCURVE",
"908 548 OFFCURVE",
"898 533 CURVE",
"886 488 OFFCURVE",
"879 454 OFFCURVE",
"856 330 CURVE SMOOTH",
"834 218 OFFCURVE",
"800 129 OFFCURVE",
"758 65 CURVE",
"673 52 OFFCURVE",
"622 25 OFFCURVE",
"573 -48 CURVE SMOOTH",
"560 -66 OFFCURVE",
"554 -84 OFFCURVE",
"554 -102 CURVE SMOOTH",
"554 -137 OFFCURVE",
"581 -163 OFFCURVE",
"616 -163 CURVE SMOOTH",
"620 -163 OFFCURVE",
"622 -159 OFFCURVE",
"625 -158 CURVE SMOOTH",
"645 -154 OFFCURVE",
"655 -151 OFFCURVE",
"655 -150 CURVE SMOOTH",
"655 -149 OFFCURVE",
"643 -150 OFFCURVE",
"637 -150 CURVE SMOOTH",
"588 -150 OFFCURVE",
"564 -132 OFFCURVE",
"564 -94 CURVE SMOOTH",
"564 -44 OFFCURVE",
"615 1 OFFCURVE",
"706 19 CURVE SMOOTH",
"723 21 OFFCURVE",
"740 22 OFFCURVE",
"757 22 CURVE SMOOTH",
"786 22 OFFCURVE",
"818 19 OFFCURVE",
"851 12 CURVE SMOOTH",
"975 -15 OFFCURVE",
"1057 -28 OFFCURVE",
"1097 -28 CURVE SMOOTH",
"1189 -28 OFFCURVE",
"1255 -2 OFFCURVE",
"1293 50 CURVE SMOOTH",
"1307 70 OFFCURVE",
"1314 91 OFFCURVE",
"1314 113 CURVE SMOOTH",
"1314 141 OFFCURVE",
"1308 154 OFFCURVE",
"1296 154 CURVE SMOOTH",
"1291 154 OFFCURVE",
"1289 152 OFFCURVE",
"1289 147 CURVE SMOOTH",
"1289 146 OFFCURVE",
"1307 129 OFFCURVE",
"1307 106 CURVE SMOOTH",
"1307 87 OFFCURVE",
"1301 68 OFFCURVE",
"1286 52 CURVE SMOOTH",
"1262 23 OFFCURVE",
"1216 10 OFFCURVE",
"1148 10 CURVE SMOOTH",
"1079 10 OFFCURVE",
"984 26 OFFCURVE",
"865 60 CURVE SMOOTH",
"845 65 OFFCURVE",
"823 68 OFFCURVE",
"800 68 CURVE SMOOTH",
"789 68 OFFCURVE",
"779 67 OFFCURVE",
"768 66 CURVE",
"819 111 LINE SMOOTH",
"854 141 OFFCURVE",
"881 214 OFFCURVE",
"899 325 CURVE SMOOTH",
"920 455 OFFCURVE",
"937 530 OFFCURVE",
"958 574 CURVE",
"1026 558 OFFCURVE",
"1082 550 OFFCURVE",
"1126 550 CURVE SMOOTH",
"1202 550 OFFCURVE",
"1256 579 OFFCURVE",
"1288 635 CURVE SMOOTH",
"1290 639 OFFCURVE",
"1291 642 OFFCURVE",
"1291 644 CURVE SMOOTH",
"1291 646 OFFCURVE",
"1290 647 OFFCURVE",
"1288 647 CURVE SMOOTH",
"1285 647 OFFCURVE",
"1280 643 OFFCURVE",
"1273 634 CURVE SMOOTH",
"1255 610 OFFCURVE",
"1217 598 OFFCURVE",
"1157 598 CURVE SMOOTH",
"1053 598 OFFCURVE",
"711 662 OFFCURVE",
"632 662 CURVE SMOOTH",
"592 662 OFFCURVE",
"546 643 OFFCURVE",
"495 605 CURVE SMOOTH",
"443 567 OFFCURVE",
"418 529 OFFCURVE",
"418 489 CURVE SMOOTH",
"418 476 OFFCURVE",
"422 465 OFFCURVE",
"430 457 CURVE",
"464 469 OFFCURVE",
"481 480 OFFCURVE",
"481 491 CURVE SMOOTH",
"481 492 OFFCURVE",
"477 498 OFFCURVE",
"470 509 CURVE SMOOTH",
"463 521 OFFCURVE",
"460 532 OFFCURVE",
"460 542 CURVE SMOOTH",
"460 567 OFFCURVE",
"479 585 OFFCURVE",
"517 598 CURVE SMOOTH",
"545 607 OFFCURVE",
"576 612 OFFCURVE",
"608 612 CURVE SMOOTH"
);
}
);
};
layerId = "64752FBD-EC7B-42BB-A7F3-340BB4BBD1AC";
paths = (
{
closed = 1;
nodes = (
"269 -87 OFFCURVE",
"312 -79 OFFCURVE",
"356 -64 CURVE SMOOTH",
"471 -26 OFFCURVE",
"579 47 OFFCURVE",
"690 238 CURVE",
"785 227 OFFCURVE",
"904 208 OFFCURVE",
"1001 208 CURVE SMOOTH",
"1111 208 OFFCURVE",
"1197 233 OFFCURVE",
"1197 329 CURVE SMOOTH",
"1197 348 OFFCURVE",
"1208 362 OFFCURVE",
"1208 373 CURVE SMOOTH",
"1208 378 OFFCURVE",
"1206 381 OFFCURVE",
"1202 381 CURVE SMOOTH",
"1199 381 OFFCURVE",
"1197 379 OFFCURVE",
"1196 375 CURVE SMOOTH",
"1191 350 OFFCURVE",
"1185 333 OFFCURVE",
"1181 322 CURVE",
"1150 267 OFFCURVE",
"1082 250 OFFCURVE",
"977 250 CURVE SMOOTH",
"904 250 OFFCURVE",
"816 258 OFFCURVE",
"708 267 CURVE",
"833 507 OFFCURVE",
"890 610 OFFCURVE",
"972 659 CURVE SMOOTH",
"978 662 OFFCURVE",
"980 666 OFFCURVE",
"980 669 CURVE SMOOTH",
"980 673 OFFCURVE",
"977 676 OFFCURVE",
"972 676 CURVE SMOOTH",
"969 676 OFFCURVE",
"967 676 OFFCURVE",
"964 675 CURVE SMOOTH",
"853 625 OFFCURVE",
"737 354 OFFCURVE",
"684 268 CURVE",
"651 271 LINE",
"672 311 OFFCURVE",
"696 360 OFFCURVE",
"712 407 CURVE SMOOTH",
"734 466 OFFCURVE",
"750 540 OFFCURVE",
"750 603 CURVE SMOOTH",
"750 644 OFFCURVE",
"743 682 OFFCURVE",
"727 709 CURVE SMOOTH",
"720 722 OFFCURVE",
"714 728 OFFCURVE",
"707 728 CURVE SMOOTH",
"703 728 OFFCURVE",
"700 725 OFFCURVE",
"700 720 CURVE SMOOTH",
"700 717 OFFCURVE",
"701 712 OFFCURVE",
"703 707 CURVE",
"719 680 OFFCURVE",
"729 648 OFFCURVE",
"729 611 CURVE SMOOTH",
"729 594 LINE SMOOTH",
"729 527 OFFCURVE",
"711 450 OFFCURVE",
"677 364 CURVE",
"681 394 OFFCURVE",
"671 409 OFFCURVE",
"649 409 CURVE SMOOTH",
"625 409 OFFCURVE",
"612 397 OFFCURVE",
"608 374 CURVE",
"638 375 OFFCURVE",
"658 350 OFFCURVE",
"659 320 CURVE",
"636 272 LINE",
"600 274 OFFCURVE",
"563 276 OFFCURVE",
"527 276 CURVE SMOOTH",
"327 276 OFFCURVE",
"130 239 OFFCURVE",
"52 131 CURVE SMOOTH",
"34 106 OFFCURVE",
"25 82 OFFCURVE",
"25 56 CURVE SMOOTH",
"25 10 OFFCURVE",
"49 -27 OFFCURVE",
"95 -54 CURVE SMOOTH",
"134 -76 OFFCURVE",
"178 -87 OFFCURVE",
"227 -87 CURVE SMOOTH"
);
},
{
closed = 1;
nodes = (
"197 -72 OFFCURVE",
"161 -62 OFFCURVE",
"131 -44 CURVE SMOOTH",
"97 -21 OFFCURVE",
"79 11 OFFCURVE",
"79 51 CURVE SMOOTH",
"79 91 OFFCURVE",
"97 128 OFFCURVE",
"132 161 CURVE SMOOTH",
"160 188 OFFCURVE",
"196 210 OFFCURVE",
"240 226 CURVE SMOOTH",
"297 247 OFFCURVE",
"364 257 OFFCURVE",
"441 257 CURVE SMOOTH",
"485 257 OFFCURVE",
"544 253 OFFCURVE",
"620 245 CURVE",
"542 107 OFFCURVE",
"461 26 OFFCURVE",
"374 0 CURVE",
"399 18 LINE",
"404 25 OFFCURVE",
"407 47 OFFCURVE",
"407 81 CURVE SMOOTH",
"407 82 OFFCURVE",
"406 83 OFFCURVE",
"404 83 CURVE SMOOTH",
"391 83 OFFCURVE",
"381 73 OFFCURVE",
"371 53 CURVE",
"371 51 LINE SMOOTH",
"371 19 OFFCURVE",
"363 -3 OFFCURVE",
"348 -13 CURVE",
"446 0 OFFCURVE",
"542 86 OFFCURVE",
"634 243 CURVE",
"666 239 LINE",
"570 80 OFFCURVE",
"466 -18 OFFCURVE",
"354 -54 CURVE SMOOTH",
"313 -66 OFFCURVE",
"275 -72 OFFCURVE",
"239 -72 CURVE SMOOTH"
);
},
{
closed = 1;
nodes = (
"620 -163 OFFCURVE",
"622 -159 OFFCURVE",
"625 -158 CURVE SMOOTH",
"645 -154 OFFCURVE",
"655 -151 OFFCURVE",
"655 -150 CURVE SMOOTH",
"655 -149 OFFCURVE",
"643 -150 OFFCURVE",
"637 -150 CURVE SMOOTH",
"588 -150 OFFCURVE",
"564 -132 OFFCURVE",
"564 -94 CURVE SMOOTH",
"564 -44 OFFCURVE",
"615 1 OFFCURVE",
"706 19 CURVE",
"723 21 OFFCURVE",
"740 22 OFFCURVE",
"757 22 CURVE SMOOTH",
"786 22 OFFCURVE",
"818 19 OFFCURVE",
"851 12 CURVE SMOOTH",
"975 -15 OFFCURVE",
"1057 -28 OFFCURVE",
"1097 -28 CURVE SMOOTH",
"1189 -28 OFFCURVE",
"1255 -2 OFFCURVE",
"1293 50 CURVE SMOOTH",
"1307 70 OFFCURVE",
"1314 91 OFFCURVE",
"1314 113 CURVE SMOOTH",
"1314 141 OFFCURVE",
"1308 154 OFFCURVE",
"1296 154 CURVE SMOOTH",
"1291 154 OFFCURVE",
"1289 152 OFFCURVE",
"1289 147 CURVE SMOOTH",
"1289 146 OFFCURVE",
"1307 129 OFFCURVE",
"1307 106 CURVE SMOOTH",
"1307 87 OFFCURVE",
"1301 68 OFFCURVE",
"1286 52 CURVE SMOOTH",
"1262 23 OFFCURVE",
"1216 10 OFFCURVE",
"1148 10 CURVE SMOOTH",
"1079 10 OFFCURVE",
"984 26 OFFCURVE",
"865 60 CURVE SMOOTH",
"845 65 OFFCURVE",
"823 68 OFFCURVE",
"800 68 CURVE SMOOTH",
"789 68 OFFCURVE",
"779 67 OFFCURVE",
"768 66 CURVE",
"819 111 LINE SMOOTH",
"854 141 OFFCURVE",
"881 214 OFFCURVE",
"899 325 CURVE SMOOTH",
"920 455 OFFCURVE",
"937 530 OFFCURVE",
"958 574 CURVE",
"1026 558 OFFCURVE",
"1082 550 OFFCURVE",
"1126 550 CURVE SMOOTH",
"1202 550 OFFCURVE",
"1256 579 OFFCURVE",
"1288 635 CURVE SMOOTH",
"1290 639 OFFCURVE",
"1291 642 OFFCURVE",
"1291 644 CURVE SMOOTH",
"1291 646 OFFCURVE",
"1290 647 OFFCURVE",
"1288 647 CURVE SMOOTH",
"1285 647 OFFCURVE",
"1280 643 OFFCURVE",
"1273 634 CURVE SMOOTH",
"1255 610 OFFCURVE",
"1217 598 OFFCURVE",
"1157 598 CURVE SMOOTH",
"1053 598 OFFCURVE",
"711 662 OFFCURVE",
"632 662 CURVE SMOOTH",
"592 662 OFFCURVE",
"546 643 OFFCURVE",
"495 605 CURVE SMOOTH",
"443 567 OFFCURVE",
"418 529 OFFCURVE",
"418 489 CURVE SMOOTH",
"418 476 OFFCURVE",
"422 465 OFFCURVE",
"430 457 CURVE",
"464 469 OFFCURVE",
"481 480 OFFCURVE",
"481 491 CURVE SMOOTH",
"481 492 OFFCURVE",
"477 498 OFFCURVE",
"470 509 CURVE SMOOTH",
"463 521 OFFCURVE",
"460 532 OFFCURVE",
"460 542 CURVE SMOOTH",
"460 567 OFFCURVE",
"479 585 OFFCURVE",
"517 598 CURVE SMOOTH",
"545 607 OFFCURVE",
"576 612 OFFCURVE",
"608 612 CURVE SMOOTH",
"659 612 OFFCURVE",
"874 592 OFFCURVE",
"940 578 CURVE",
"923 563 OFFCURVE",
"908 548 OFFCURVE",
"898 533 CURVE",
"886 488 OFFCURVE",
"879 454 OFFCURVE",
"856 330 CURVE SMOOTH",
"834 218 OFFCURVE",
"800 129 OFFCURVE",
"758 65 CURVE",
"673 52 OFFCURVE",
"622 25 OFFCURVE",
"573 -48 CURVE SMOOTH",
"560 -66 OFFCURVE",
"554 -84 OFFCURVE",
"554 -102 CURVE SMOOTH",
"554 -137 OFFCURVE",
"581 -163 OFFCURVE",
"616 -163 CURVE SMOOTH"
);
}
);
width = 1300;
}
);
leftKerningGroup = A;
note = AE;
unicode = 00C6;
},
{
glyphname = B;
lastChange = "2022-02-14 21:32:36 +0000";
layers = (
{
background = {
paths = (
{
closed = 1;
nodes = (
"221 -150 OFFCURVE",
"296 -85 OFFCURVE",
"358 47 CURVE",
"413 -8 OFFCURVE",
"485 -35 OFFCURVE",
"575 -35 CURVE SMOOTH",
"603 -35 OFFCURVE",
"630 -32 OFFCURVE",
"657 -25 CURVE SMOOTH",
"710 -13 OFFCURVE",
"756 13 OFFCURVE",
"792 52 CURVE SMOOTH",
"830 94 OFFCURVE",
"850 141 OFFCURVE",
"850 194 CURVE SMOOTH",
"850 252 OFFCURVE",
"827 297 OFFCURVE",
"782 331 CURVE SMOOTH",
"743 359 OFFCURVE",
"693 377 OFFCURVE",
"631 382 CURVE",
"756 412 OFFCURVE",
"819 453 OFFCURVE",
"819 505 CURVE SMOOTH",
"819 549 OFFCURVE",
"777 586 OFFCURVE",
"692 616 CURVE SMOOTH",
"658 627 OFFCURVE",
"621 637 OFFCURVE",
"579 644 CURVE",
"619 713 OFFCURVE",
"663 747 OFFCURVE",
"713 747 CURVE SMOOTH",
"739 747 OFFCURVE",
"760 735 OFFCURVE",
"779 710 CURVE SMOOTH",
"797 686 OFFCURVE",
"807 673 OFFCURVE",
"808 673 CURVE SMOOTH",
"815 673 OFFCURVE",
"818 680 OFFCURVE",
"818 694 CURVE SMOOTH",
"818 701 OFFCURVE",
"818 704 OFFCURVE",
"817 706 CURVE SMOOTH",
"797 745 OFFCURVE",
"768 765 OFFCURVE",
"730 765 CURVE SMOOTH",
"672 765 OFFCURVE",
"619 725 OFFCURVE",
"567 646 CURVE",
"510 655 OFFCURVE",
"450 660 OFFCURVE",
"384 660 CURVE SMOOTH",
"309 660 OFFCURVE",
"239 654 OFFCURVE",
"174 643 CURVE SMOOTH",
"69 625 OFFCURVE",
"17 587 OFFCURVE",
"17 529 CURVE SMOOTH",
"17 502 OFFCURVE",
"34 474 OFFCURVE",
"68 444 CURVE SMOOTH",
"102 414 OFFCURVE",
"132 399 OFFCURVE",
"156 399 CURVE",
"163 400 OFFCURVE",
"166 401 OFFCURVE",
"166 403 CURVE",
"164 405 LINE",
"89 435 OFFCURVE",
"52 470 OFFCURVE",
"52 511 CURVE SMOOTH",
"52 584 OFFCURVE",
"160 621 OFFCURVE",
"377 621 CURVE SMOOTH",
"436 621 OFFCURVE",
"493 617 OFFCURVE",
"545 609 CURVE",
"509 544 OFFCURVE",
"471 452 OFFCURVE",
"430 330 CURVE",
"419 322 OFFCURVE",
"408 313 OFFCURVE",
"397 302 CURVE",
"399 319 OFFCURVE",
"400 336 OFFCURVE",
"400 352 CURVE SMOOTH",
"400 377 OFFCURVE",
"398 400 OFFCURVE",
"393 422 CURVE SMOOTH",
"386 459 OFFCURVE",
"370 490 OFFCURVE",
"343 516 CURVE SMOOTH",
"315 544 OFFCURVE",
"283 559 OFFCURVE",
"249 559 CURVE SMOOTH",
"213 559 OFFCURVE",
"196 545 OFFCURVE",
"197 518 CURVE SMOOTH",
"197 517 LINE",
"202 518 OFFCURVE",
"208 519 OFFCURVE",
"213 519 CURVE SMOOTH",
"237 519 OFFCURVE",
"253 504 OFFCURVE",
"261 474 CURVE",
"270 483 OFFCURVE",
"275 494 OFFCURVE",
"275 506 CURVE SMOOTH",
"275 528 OFFCURVE",
"264 541 OFFCURVE",
"242 543 CURVE",
"245 543 LINE SMOOTH",
"279 544 OFFCURVE",
"308 531 OFFCURVE",
"333 502 CURVE SMOOTH",
"353 478 OFFCURVE",
"368 447 OFFCURVE",
"376 411 CURVE SMOOTH",
"381 383 OFFCURVE",
"383 356 OFFCURVE",
"383 329 CURVE SMOOTH",
"383 314 OFFCURVE",
"382 301 OFFCURVE",
"381 286 CURVE",
"370 273 OFFCURVE",
"357 256 OFFCURVE",
"357 251 CURVE SMOOTH",
"357 249 OFFCURVE",
"358 248 OFFCURVE",
"360 248 CURVE SMOOTH",
"371 248 OFFCURVE",
"376 261 OFFCURVE",
"379 266 CURVE",
"373 231 OFFCURVE",
"362 191 OFFCURVE",
"345 145 CURVE",
"335 183 OFFCURVE",
"329 224 OFFCURVE",
"329 269 CURVE SMOOTH",
"329 294 OFFCURVE",
"329 306 OFFCURVE",
"328 306 CURVE SMOOTH",
"325 305 OFFCURVE",
"323 302 OFFCURVE",
"322 298 CURVE SMOOTH",
"320 285 OFFCURVE",
"318 277 OFFCURVE",
"316 273 CURVE SMOOTH",
"314 269 OFFCURVE",
"308 262 OFFCURVE",
"299 254 CURVE SMOOTH",
"290 245 OFFCURVE",
"285 237 OFFCURVE",
"285 229 CURVE SMOOTH",
"285 177 OFFCURVE",
"298 130 OFFCURVE",
"324 89 CURVE",
"319 78 LINE",
"319 77 OFFCURVE",
"319 75 OFFCURVE",
"318 73 CURVE",
"319 68 OFFCURVE",
"320 66 OFFCURVE",
"322 66 CURVE",
"323 67 OFFCURVE",
"324 68 OFFCURVE",
"324 69 CURVE",
"329 81 LINE",
"338 68 LINE",
"280 -60 OFFCURVE",
"226 -125 OFFCURVE",
"177 -125 CURVE SMOOTH",
"161 -125 OFFCURVE",
"145 -118 OFFCURVE",
"131 -105 CURVE SMOOTH",
"116 -93 OFFCURVE",
"108 -86 OFFCURVE",
"105 -86 CURVE SMOOTH",
"96 -86 OFFCURVE",
"91 -95 OFFCURVE",
"91 -112 CURVE SMOOTH",
"91 -135 OFFCURVE",
"114 -150 OFFCURVE",
"135 -150 CURVE SMOOTH"
);
},
{
closed = 1;
nodes = (
"354 119 OFFCURVE",
"352 125 OFFCURVE",
"350 131 CURVE",
"374 191 OFFCURVE",
"388 244 OFFCURVE",
"395 290 CURVE",
"404 299 OFFCURVE",
"414 306 OFFCURVE",
"425 313 CURVE",
"387 197 OFFCURVE",
"365 131 OFFCURVE",
"358 116 CURVE SMOOTH",
"357 113 LINE"
);
},
{
closed = 1;
nodes = (
"473 -21 OFFCURVE",
"413 13 OFFCURVE",
"373 80 CURVE",
"395 133 OFFCURVE",
"424 217 OFFCURVE",
"461 332 CURVE",
"506 351 OFFCURVE",
"556 361 OFFCURVE",
"610 361 CURVE SMOOTH",
"729 361 OFFCURVE",
"788 309 OFFCURVE",
"788 206 CURVE SMOOTH",
"788 141 OFFCURVE",
"766 86 OFFCURVE",
"720 43 CURVE SMOOTH",
"675 0 OFFCURVE",
"620 -21 OFFCURVE",
"554 -21 CURVE SMOOTH"
);
},
{
closed = 1;
nodes = (
"504 472 OFFCURVE",
"536 558 OFFCURVE",
"559 607 CURVE",
"603 600 OFFCURVE",
"640 591 OFFCURVE",
"672 580 CURVE SMOOTH",
"737 555 OFFCURVE",
"769 528 OFFCURVE",
"769 498 CURVE SMOOTH",
"769 456 OFFCURVE",
"717 421 OFFCURVE",
"615 394 CURVE SMOOTH",
"535 374 OFFCURVE",
"485 359 OFFCURVE",
"466 350 CURVE"
);
}
);
};
layerId = "64752FBD-EC7B-42BB-A7F3-340BB4BBD1AC";
paths = (
{
closed = 1;
nodes = (
"221 -150 OFFCURVE",
"296 -85 OFFCURVE",
"358 47 CURVE",
"413 -8 OFFCURVE",
"485 -35 OFFCURVE",
"575 -35 CURVE SMOOTH",
"603 -35 OFFCURVE",
"630 -32 OFFCURVE",
"657 -25 CURVE SMOOTH",
"710 -13 OFFCURVE",
"756 13 OFFCURVE",
"792 52 CURVE SMOOTH",
"830 94 OFFCURVE",
"850 141 OFFCURVE",
"850 194 CURVE SMOOTH",
"850 252 OFFCURVE",
"827 297 OFFCURVE",
"782 331 CURVE SMOOTH",
"743 359 OFFCURVE",
"693 377 OFFCURVE",
"631 382 CURVE",
"756 412 OFFCURVE",
"819 453 OFFCURVE",
"819 505 CURVE SMOOTH",
"819 549 OFFCURVE",
"777 586 OFFCURVE",
"692 616 CURVE SMOOTH",
"658 627 OFFCURVE",
"621 637 OFFCURVE",
"579 644 CURVE",
"619 713 OFFCURVE",
"663 747 OFFCURVE",
"713 747 CURVE SMOOTH",
"739 747 OFFCURVE",
"760 735 OFFCURVE",
"779 710 CURVE SMOOTH",
"797 686 OFFCURVE",
"807 673 OFFCURVE",
"808 673 CURVE SMOOTH",
"815 673 OFFCURVE",
"818 680 OFFCURVE",
"818 694 CURVE SMOOTH",
"818 701 OFFCURVE",
"818 704 OFFCURVE",
"817 706 CURVE SMOOTH",
"797 745 OFFCURVE",
"768 765 OFFCURVE",
"730 765 CURVE SMOOTH",
"672 765 OFFCURVE",
"619 725 OFFCURVE",
"567 646 CURVE",
"510 655 OFFCURVE",
"450 660 OFFCURVE",
"384 660 CURVE SMOOTH",
"309 660 OFFCURVE",
"239 654 OFFCURVE",
"174 643 CURVE SMOOTH",
"69 625 OFFCURVE",
"17 587 OFFCURVE",
"17 529 CURVE SMOOTH",
"17 502 OFFCURVE",
"34 474 OFFCURVE",
"68 444 CURVE SMOOTH",
"102 414 OFFCURVE",
"132 399 OFFCURVE",
"156 399 CURVE",
"163 400 OFFCURVE",
"166 401 OFFCURVE",
"166 403 CURVE",
"164 405 LINE",
"89 435 OFFCURVE",
"52 470 OFFCURVE",
"52 511 CURVE SMOOTH",
"52 584 OFFCURVE",
"160 621 OFFCURVE",
"377 621 CURVE SMOOTH",
"436 621 OFFCURVE",
"493 617 OFFCURVE",
"545 609 CURVE",
"509 544 OFFCURVE",
"471 452 OFFCURVE",
"430 330 CURVE",
"419 322 OFFCURVE",
"408 313 OFFCURVE",
"397 302 CURVE",
"399 319 OFFCURVE",
"400 336 OFFCURVE",
"400 352 CURVE SMOOTH",
"400 377 OFFCURVE",
"398 400 OFFCURVE",
"393 422 CURVE SMOOTH",
"386 459 OFFCURVE",
"370 490 OFFCURVE",
"343 516 CURVE SMOOTH",
"315 544 OFFCURVE",
"283 559 OFFCURVE",
"249 559 CURVE SMOOTH",
"213 559 OFFCURVE",
"196 545 OFFCURVE",
"197 518 CURVE SMOOTH",
"197 517 LINE",
"202 518 OFFCURVE",
"208 519 OFFCURVE",
"213 519 CURVE SMOOTH",
"237 519 OFFCURVE",
"253 504 OFFCURVE",
"261 474 CURVE",
"270 483 OFFCURVE",
"275 494 OFFCURVE",
"275 506 CURVE SMOOTH",
"275 528 OFFCURVE",
"264 541 OFFCURVE",
"242 543 CURVE SMOOTH",
"245 543 LINE SMOOTH",
"279 544 OFFCURVE",
"308 531 OFFCURVE",
"333 502 CURVE SMOOTH",
"353 478 OFFCURVE",
"368 447 OFFCURVE",
"376 411 CURVE SMOOTH",
"381 383 OFFCURVE",
"383 356 OFFCURVE",
"383 329 CURVE SMOOTH",
"383 314 OFFCURVE",
"382 301 OFFCURVE",
"381 286 CURVE",
"370 273 OFFCURVE",
"357 256 OFFCURVE",
"357 251 CURVE SMOOTH",
"357 249 OFFCURVE",
"358 248 OFFCURVE",
"360 248 CURVE SMOOTH",
"371 248 OFFCURVE",
"376 261 OFFCURVE",
"379 266 CURVE",
"373 231 OFFCURVE",
"362 191 OFFCURVE",
"345 145 CURVE",
"335 183 OFFCURVE",
"329 224 OFFCURVE",
"329 269 CURVE SMOOTH",
"329 294 OFFCURVE",
"329 306 OFFCURVE",
"328 306 CURVE SMOOTH",
"325 305 OFFCURVE",
"323 302 OFFCURVE",
"322 298 CURVE SMOOTH",
"320 285 OFFCURVE",
"318 277 OFFCURVE",
"316 273 CURVE SMOOTH",
"314 269 OFFCURVE",
"308 262 OFFCURVE",
"299 254 CURVE SMOOTH",
"290 245 OFFCURVE",
"285 237 OFFCURVE",
"285 229 CURVE SMOOTH",
"285 177 OFFCURVE",
"298 130 OFFCURVE",
"324 89 CURVE",
"319 78 LINE",
"319 77 OFFCURVE",
"319 75 OFFCURVE",
"318 73 CURVE",
"319 68 OFFCURVE",
"320 66 OFFCURVE",
"322 66 CURVE",
"323 67 OFFCURVE",
"324 68 OFFCURVE",
"324 69 CURVE",
"329 81 LINE",
"338 68 LINE",
"280 -60 OFFCURVE",
"226 -125 OFFCURVE",
"177 -125 CURVE SMOOTH",
"161 -125 OFFCURVE",
"145 -118 OFFCURVE",
"131 -105 CURVE SMOOTH",
"116 -93 OFFCURVE",
"108 -86 OFFCURVE",
"105 -86 CURVE SMOOTH",
"96 -86 OFFCURVE",
"91 -95 OFFCURVE",
"91 -112 CURVE SMOOTH",
"91 -135 OFFCURVE",
"114 -150 OFFCURVE",
"135 -150 CURVE SMOOTH"
);
},
{
closed = 1;
nodes = (
"354 119 OFFCURVE",
"352 125 OFFCURVE",
"350 131 CURVE",
"374 191 OFFCURVE",
"388 244 OFFCURVE",
"395 290 CURVE",
"404 299 OFFCURVE",
"414 306 OFFCURVE",
"425 313 CURVE",
"387 197 OFFCURVE",
"365 131 OFFCURVE",
"358 116 CURVE SMOOTH",
"357 113 LINE"
);
},
{
closed = 1;
nodes = (
"473 -21 OFFCURVE",
"413 13 OFFCURVE",
"373 80 CURVE",
"395 133 OFFCURVE",
"424 217 OFFCURVE",
"461 332 CURVE",
"506 351 OFFCURVE",
"556 361 OFFCURVE",
"610 361 CURVE SMOOTH",
"729 361 OFFCURVE",
"788 309 OFFCURVE",
"788 206 CURVE SMOOTH",
"788 141 OFFCURVE",
"766 86 OFFCURVE",
"720 43 CURVE SMOOTH",
"675 0 OFFCURVE",
"620 -21 OFFCURVE",
"554 -21 CURVE SMOOTH"
);
},
{
closed = 1;
nodes = (
"504 472 OFFCURVE",
"536 558 OFFCURVE",
"559 607 CURVE",
"603 600 OFFCURVE",
"640 591 OFFCURVE",
"672 580 CURVE SMOOTH",
"737 555 OFFCURVE",
"769 528 OFFCURVE",
"769 498 CURVE SMOOTH",
"769 456 OFFCURVE",
"717 421 OFFCURVE",
"615 394 CURVE SMOOTH",
"535 374 OFFCURVE",
"485 359 OFFCURVE",
"466 350 CURVE"
);
}
);
width = 872;
}
);
note = B;
unicode = 0042;
},
{
glyphname = C;
lastChange = "2022-02-14 21:32:36 +0000";
layers = (
{
anchors = (
{
name = bottom;
position = "{356, 0}";
},
{
name = cedilla;
position = "{245, -10}";
},
{
name = top;
position = "{454, 670}";
}
);
background = {
paths = (
{
closed = 1;
nodes = (
"307 -94 OFFCURVE",
"313 -88 OFFCURVE",
"315 -77 CURVE SMOOTH",
"318 -58 OFFCURVE",
"319 -43 OFFCURVE",
"320 -33 CURVE",
"339 -35 OFFCURVE",
"358 -36 OFFCURVE",
"379 -36 CURVE SMOOTH",
"448 -36 OFFCURVE",
"512 -18 OFFCURVE",
"574 20 CURVE SMOOTH",
"645 62 OFFCURVE",
"680 117 OFFCURVE",
"680 182 CURVE SMOOTH",
"680 209 OFFCURVE",
"670 222 OFFCURVE",
"650 222 CURVE SMOOTH",
"631 222 OFFCURVE",
"622 220 OFFCURVE",
"622 213 CURVE",
"622 212 OFFCURVE",
"623 212 OFFCURVE",
"624 212 CURVE",
"631 209 OFFCURVE",
"634 201 OFFCURVE",
"634 190 CURVE SMOOTH",
"634 172 OFFCURVE",
"628 149 OFFCURVE",
"616 123 CURVE SMOOTH",
"570 26 OFFCURVE",
"496 -21 OFFCURVE",
"393 -21 CURVE SMOOTH",
"369 -21 OFFCURVE",
"345 -20 OFFCURVE",
"323 -15 CURVE",
"324 -3 OFFCURVE",
"326 9 OFFCURVE",
"328 20 CURVE",
"335 23 OFFCURVE",
"340 32 OFFCURVE",
"342 45 CURVE SMOOTH",
"348 75 LINE SMOOTH",
"361 132 OFFCURVE",
"370 180 OFFCURVE",
"373 218 CURVE",
"385 261 OFFCURVE",
"399 304 OFFCURVE",
"415 346 CURVE",
"443 369 OFFCURVE",
"456 382 OFFCURVE",
"452 382 CURVE",
"445 382 OFFCURVE",
"438 385 OFFCURVE",
"432 394 CURVE",
"465 477 OFFCURVE",
"502 553 OFFCURVE",
"544 623 CURVE",
"595 605 OFFCURVE",
"625 588 OFFCURVE",
"636 574 CURVE",
"613 526 OFFCURVE",
"601 482 OFFCURVE",
"601 443 CURVE SMOOTH",
"601 425 OFFCURVE",
"603 417 OFFCURVE",
"607 417 CURVE SMOOTH",
"622 417 OFFCURVE",
"644 438 OFFCURVE",
"645 451 CURVE SMOOTH",
"654 542 OFFCURVE",
"674 614 OFFCURVE",
"707 663 CURVE",
"707 664 OFFCURVE",
"707 665 OFFCURVE",
"708 666 CURVE",
"708 669 OFFCURVE",
"706 671 OFFCURVE",
"703 671 CURVE SMOOTH",
"700 671 OFFCURVE",
"697 668 OFFCURVE",
"693 663 CURVE SMOOTH",
"683 651 OFFCURVE",
"674 639 OFFCURVE",
"666 626 CURVE",
"631 639 OFFCURVE",
"597 649 OFFCURVE",
"565 656 CURVE",
"589 694 OFFCURVE",
"622 740 OFFCURVE",
"665 791 CURVE SMOOTH",
"669 796 OFFCURVE",
"671 801 OFFCURVE",
"671 805 CURVE SMOOTH",
"671 806 OFFCURVE",
"671 807 OFFCURVE",
"670 807 CURVE",
"666 805 LINE",
"625 761 OFFCURVE",
"587 712 OFFCURVE",
"553 659 CURVE",
"516 665 OFFCURVE",
"480 669 OFFCURVE",
"445 669 CURVE SMOOTH",
"367 669 OFFCURVE",
"298 654 OFFCURVE",
"236 622 CURVE SMOOTH",
"173 588 OFFCURVE",
"121 541 OFFCURVE",
"83 477 CURVE SMOOTH",
"45 415 OFFCURVE",
"25 347 OFFCURVE",
"25 276 CURVE SMOOTH",
"25 191 OFFCURVE",
"52 122 OFFCURVE",
"103 67 CURVE SMOOTH",
"151 17 OFFCURVE",
"216 -16 OFFCURVE",
"297 -29 CURVE",
"295 -51 OFFCURVE",
"294 -71 OFFCURVE",
"294 -90 CURVE SMOOTH",
"294 -93 OFFCURVE",
"295 -94 OFFCURVE",
"298 -94 CURVE SMOOTH"
);
},
{
closed = 1;
nodes = (
"232 12 OFFCURVE",
"180 50 OFFCURVE",
"140 105 CURVE SMOOTH",
"100 162 OFFCURVE",
"80 227 OFFCURVE",
"80 302 CURVE SMOOTH",
"80 399 OFFCURVE",
"110 481 OFFCURVE",
"172 548 CURVE SMOOTH",
"233 617 OFFCURVE",
"312 651 OFFCURVE",
"408 651 CURVE SMOOTH",
"448 651 OFFCURVE",
"490 643 OFFCURVE",
"534 627 CURVE",
"525 614 LINE SMOOTH",
"493 559 OFFCURVE",
"459 492 OFFCURVE",
"424 412 CURVE",
"422 421 LINE",
"410 420 OFFCURVE",
"391 391 OFFCURVE",
"391 379 CURVE SMOOTH",
"391 368 OFFCURVE",
"394 359 OFFCURVE",
"400 351 CURVE",
"391 329 OFFCURVE",
"382 306 OFFCURVE",
"375 284 CURVE",
"374 324 OFFCURVE",
"367 360 OFFCURVE",
"354 392 CURVE SMOOTH",
"343 422 OFFCURVE",
"325 447 OFFCURVE",
"301 467 CURVE SMOOTH",
"273 490 OFFCURVE",
"244 501 OFFCURVE",
"214 501 CURVE SMOOTH",
"174 501 OFFCURVE",
"154 487 OFFCURVE",
"154 460 CURVE SMOOTH",
"154 457 OFFCURVE",
"154 454 OFFCURVE",
"155 452 CURVE",
"163 455 OFFCURVE",
"171 457 OFFCURVE",
"178 457 CURVE SMOOTH",
"196 457 OFFCURVE",
"212 445 OFFCURVE",
"222 422 CURVE",
"228 428 OFFCURVE",
"231 437 OFFCURVE",
"231 447 CURVE SMOOTH",
"231 471 OFFCURVE",
"219 484 OFFCURVE",
"193 484 CURVE",
"200 485 OFFCURVE",
"206 486 OFFCURVE",
"213 486 CURVE SMOOTH",
"270 486 OFFCURVE",
"313 450 OFFCURVE",
"340 379 CURVE SMOOTH",
"352 343 OFFCURVE",
"358 303 OFFCURVE",
"358 259 CURVE SMOOTH",
"358 236 LINE",
"328 144 OFFCURVE",
"308 62 OFFCURVE",
"300 -9 CURVE"
);
}
);
};
layerId = "64752FBD-EC7B-42BB-A7F3-340BB4BBD1AC";
paths = (
{
closed = 1;
nodes = (
"307 -94 OFFCURVE",
"313 -88 OFFCURVE",
"315 -77 CURVE SMOOTH",
"318 -58 OFFCURVE",
"319 -43 OFFCURVE",
"320 -33 CURVE",
"339 -35 OFFCURVE",
"358 -36 OFFCURVE",
"379 -36 CURVE SMOOTH",
"448 -36 OFFCURVE",
"512 -18 OFFCURVE",
"574 20 CURVE SMOOTH",
"645 62 OFFCURVE",
"680 117 OFFCURVE",
"680 182 CURVE SMOOTH",
"680 209 OFFCURVE",
"670 222 OFFCURVE",
"650 222 CURVE SMOOTH",
"631 222 OFFCURVE",
"622 220 OFFCURVE",
"622 213 CURVE SMOOTH",
"622 212 OFFCURVE",
"623 212 OFFCURVE",
"624 212 CURVE",
"631 209 OFFCURVE",
"634 201 OFFCURVE",
"634 190 CURVE SMOOTH",
"634 172 OFFCURVE",
"628 149 OFFCURVE",
"616 123 CURVE SMOOTH",
"570 26 OFFCURVE",
"496 -21 OFFCURVE",
"393 -21 CURVE SMOOTH",
"369 -21 OFFCURVE",
"345 -20 OFFCURVE",
"323 -15 CURVE",
"324 -3 OFFCURVE",
"326 9 OFFCURVE",
"328 20 CURVE",
"335 23 OFFCURVE",
"339 32 OFFCURVE",
"342 45 CURVE SMOOTH",
"348 75 LINE SMOOTH",
"359 132 OFFCURVE",
"370 180 OFFCURVE",
"373 218 CURVE",
"385 261 OFFCURVE",
"399 304 OFFCURVE",
"415 346 CURVE",
"443 369 OFFCURVE",
"456 382 OFFCURVE",
"452 382 CURVE SMOOTH",
"445 382 OFFCURVE",
"438 385 OFFCURVE",
"432 394 CURVE",
"465 477 OFFCURVE",
"502 553 OFFCURVE",
"544 623 CURVE",
"595 605 OFFCURVE",
"625 588 OFFCURVE",
"636 574 CURVE",
"613 526 OFFCURVE",
"601 482 OFFCURVE",
"601 443 CURVE SMOOTH",
"601 425 OFFCURVE",
"603 417 OFFCURVE",
"607 417 CURVE SMOOTH",
"622 417 OFFCURVE",
"644 438 OFFCURVE",
"645 451 CURVE SMOOTH",
"654 542 OFFCURVE",
"674 614 OFFCURVE",
"707 663 CURVE",
"707 664 OFFCURVE",
"707 665 OFFCURVE",
"708 666 CURVE",
"708 669 OFFCURVE",
"706 671 OFFCURVE",
"703 671 CURVE SMOOTH",
"700 671 OFFCURVE",
"697 668 OFFCURVE",
"693 663 CURVE SMOOTH",
"683 651 OFFCURVE",
"674 639 OFFCURVE",
"666 626 CURVE",
"631 639 OFFCURVE",
"597 649 OFFCURVE",
"565 656 CURVE",
"589 694 OFFCURVE",
"622 740 OFFCURVE",
"665 791 CURVE SMOOTH",
"669 796 OFFCURVE",
"671 801 OFFCURVE",
"671 805 CURVE SMOOTH",
"671 806 OFFCURVE",
"671 807 OFFCURVE",
"670 807 CURVE",
"666 805 LINE",
"625 761 OFFCURVE",
"587 712 OFFCURVE",
"553 659 CURVE",
"516 665 OFFCURVE",
"480 669 OFFCURVE",
"445 669 CURVE SMOOTH",
"367 669 OFFCURVE",
"298 654 OFFCURVE",
"236 622 CURVE SMOOTH",
"173 588 OFFCURVE",
"121 541 OFFCURVE",
"83 477 CURVE SMOOTH",
"45 415 OFFCURVE",
"25 347 OFFCURVE",
"25 276 CURVE SMOOTH",
"25 191 OFFCURVE",
"52 122 OFFCURVE",
"103 67 CURVE SMOOTH",
"151 17 OFFCURVE",
"216 -16 OFFCURVE",
"297 -29 CURVE",
"295 -51 OFFCURVE",
"294 -71 OFFCURVE",
"294 -90 CURVE SMOOTH",
"294 -93 OFFCURVE",
"295 -94 OFFCURVE",
"298 -94 CURVE SMOOTH"
);
},
{
closed = 1;
nodes = (
"232 12 OFFCURVE",
"180 50 OFFCURVE",
"140 105 CURVE SMOOTH",
"100 162 OFFCURVE",
"80 227 OFFCURVE",
"80 302 CURVE SMOOTH",
"80 399 OFFCURVE",
"110 481 OFFCURVE",
"172 548 CURVE SMOOTH",
"233 617 OFFCURVE",
"312 651 OFFCURVE",
"408 651 CURVE SMOOTH",
"448 651 OFFCURVE",
"490 643 OFFCURVE",
"534 627 CURVE",
"525 614 LINE SMOOTH",
"489 562 OFFCURVE",
"459 492 OFFCURVE",
"424 412 CURVE",
"422 421 LINE",
"410 420 OFFCURVE",
"391 391 OFFCURVE",
"391 379 CURVE SMOOTH",
"391 368 OFFCURVE",
"394 359 OFFCURVE",
"400 351 CURVE",
"391 329 OFFCURVE",
"382 306 OFFCURVE",
"375 284 CURVE",
"374 324 OFFCURVE",
"367 360 OFFCURVE",
"354 392 CURVE SMOOTH",
"343 422 OFFCURVE",
"325 447 OFFCURVE",
"301 467 CURVE SMOOTH",
"273 490 OFFCURVE",
"244 501 OFFCURVE",
"214 501 CURVE SMOOTH",
"174 501 OFFCURVE",
"154 487 OFFCURVE",
"154 460 CURVE SMOOTH",
"154 457 OFFCURVE",
"154 454 OFFCURVE",
"155 452 CURVE",
"163 455 OFFCURVE",
"171 457 OFFCURVE",
"178 457 CURVE SMOOTH",
"196 457 OFFCURVE",
"212 445 OFFCURVE",
"222 422 CURVE",
"228 428 OFFCURVE",
"231 437 OFFCURVE",
"231 447 CURVE SMOOTH",
"231 471 OFFCURVE",
"219 484 OFFCURVE",
"193 484 CURVE",
"200 485 OFFCURVE",
"206 486 OFFCURVE",
"213 486 CURVE SMOOTH",
"270 486 OFFCURVE",
"313 450 OFFCURVE",
"340 379 CURVE SMOOTH",
"352 343 OFFCURVE",
"358 303 OFFCURVE",
"358 259 CURVE SMOOTH",
"358 236 LINE",
"328 144 OFFCURVE",
"308 62 OFFCURVE",
"300 -9 CURVE"
);
}
);
width = 711;
}
);
leftKerningGroup = C;
note = C;
rightKerningGroup = C;
unicode = 0043;
},
{
color = 3;
glyphname = D;
lastChange = "2022-02-14 21:32:33 +0000";
layers = (
{
anchors = (
{
name = bottom;
position = "{445, 0}";
},
{
name = center;
position = "{455, 335}";
},
{
name = top;
position = "{505, 670}";
}
);
background = {
paths = (
{
closed = 1;
nodes = (
"158 -115 OFFCURVE",
"159 -115 OFFCURVE",
"159 -114 CURVE",
"158 -112 OFFCURVE",
"156 -111 OFFCURVE",
"155 -111 CURVE",
"135 -102 OFFCURVE",
"119 -95 OFFCURVE",
"106 -86 CURVE SMOOTH",
"48 -48 OFFCURVE",
"19 -3 OFFCURVE",
"19 47 CURVE SMOOTH",
"19 89 OFFCURVE",
"43 109 OFFCURVE",
"92 109 CURVE SMOOTH",
"102 109 OFFCURVE",
"115 108 OFFCURVE",
"130 105 CURVE SMOOTH",
"172 97 OFFCURVE",
"222 81 OFFCURVE",
"282 58 CURVE",
"275 40 OFFCURVE",
"271 30 OFFCURVE",
"271 29 CURVE SMOOTH",
"271 24 OFFCURVE",
"272 22 OFFCURVE",
"275 22 CURVE SMOOTH",
"277 22 OFFCURVE",
"279 24 OFFCURVE",
"281 29 CURVE SMOOTH",
"292 54 LINE",
"328 39 LINE",
"290 -35 OFFCURVE",
"252 -72 OFFCURVE",
"212 -72 CURVE SMOOTH",
"196 -72 OFFCURVE",
"181 -66 OFFCURVE",
"165 -54 CURVE SMOOTH",
"149 -42 OFFCURVE",
"141 -36 OFFCURVE",
"139 -36 CURVE SMOOTH",
"130 -36 OFFCURVE",
"125 -44 OFFCURVE",
"125 -60 CURVE SMOOTH",
"125 -80 OFFCURVE",
"138 -91 OFFCURVE",
"162 -90 CURVE SMOOTH",
"165 -90 LINE SMOOTH",
"248 -87 OFFCURVE",
"317 -50 OFFCURVE",
"373 21 CURVE",
"447 -6 OFFCURVE",
"516 -20 OFFCURVE",
"581 -20 CURVE SMOOTH",
"671 -20 OFFCURVE",
"753 14 OFFCURVE",
"825 80 CURVE SMOOTH",
"898 146 OFFCURVE",
"934 224 OFFCURVE",
"934 315 CURVE SMOOTH",
"934 493 OFFCURVE",
"818 598 OFFCURVE",
"584 632 CURVE",
"616 684 OFFCURVE",
"655 713 OFFCURVE",
"698 713 CURVE SMOOTH",
"720 713 OFFCURVE",
"739 703 OFFCURVE",
"753 683 CURVE SMOOTH",
"769 663 OFFCURVE",
"778 654 OFFCURVE",
"779 654 CURVE SMOOTH",
"785 654 OFFCURVE",
"788 660 OFFCURVE",
"788 672 CURVE SMOOTH",
"788 687 OFFCURVE",
"780 701 OFFCURVE",
"763 711 CURVE SMOOTH",
"746 723 OFFCURVE",
"730 729 OFFCURVE",
"714 729 CURVE SMOOTH",
"661 729 OFFCURVE",
"608 698 OFFCURVE",
"556 636 CURVE",
"520 640 OFFCURVE",
"483 642 OFFCURVE",
"444 642 CURVE SMOOTH",
"426 642 OFFCURVE",
"409 642 OFFCURVE",
"392 641 CURVE",
"375 716 OFFCURVE",
"339 754 OFFCURVE",
"284 754 CURVE SMOOTH",
"253 754 OFFCURVE",
"232 743 OFFCURVE",
"221 718 CURVE",
"255 719 OFFCURVE",
"274 701 OFFCURVE",
"280 662 CURVE",
"293 668 OFFCURVE",
"299 681 OFFCURVE",
"299 700 CURVE SMOOTH",
"299 720 OFFCURVE",
"290 735 OFFCURVE",
"271 743 CURVE",
"285 743 LINE SMOOTH",
"330 743 OFFCURVE",
"359 708 OFFCURVE",
"373 640 CURVE",
"296 635 OFFCURVE",
"225 624 OFFCURVE",
"163 606 CURVE SMOOTH",
"60 577 OFFCURVE",
"8 534 OFFCURVE",
"8 477 CURVE SMOOTH",
"8 451 OFFCURVE",
"25 422 OFFCURVE",
"61 392 CURVE SMOOTH",
"96 364 OFFCURVE",
"124 350 OFFCURVE",
"146 350 CURVE SMOOTH",
"153 350 OFFCURVE",
"157 351 OFFCURVE",
"157 353 CURVE",
"156 354 OFFCURVE",
"156 355 OFFCURVE",
"155 355 CURVE",
"81 385 OFFCURVE",
"44 421 OFFCURVE",
"44 461 CURVE SMOOTH",
"44 504 OFFCURVE",
"84 540 OFFCURVE",
"164 566 CURVE SMOOTH",
"221 584 OFFCURVE",
"294 597 OFFCURVE",
"379 603 CURVE",
"381 584 OFFCURVE",
"382 563 OFFCURVE",
"382 541 CURVE SMOOTH",
"382 462 OFFCURVE",
"364 348 OFFCURVE",
"328 202 CURVE",
"317 203 OFFCURVE",
"307 215 OFFCURVE",
"301 236 CURVE",
"289 235 OFFCURVE",
"276 213 OFFCURVE",
"276 201 CURVE SMOOTH",
"276 185 OFFCURVE",
"283 174 OFFCURVE",
"297 166 CURVE",
"308 176 OFFCURVE",
"318 184 OFFCURVE",
"326 192 CURVE",
"316 154 OFFCURVE",
"306 121 OFFCURVE",
"296 92 CURVE",
"275 103 LINE SMOOTH",
"214 136 OFFCURVE",
"162 152 OFFCURVE",
"121 152 CURVE SMOOTH",
"60 152 OFFCURVE",
"12 109 OFFCURVE",
"12 48 CURVE SMOOTH",
"12 -18 OFFCURVE",
"46 -69 OFFCURVE",
"114 -107 CURVE SMOOTH",
"118 -109 LINE",
"122 -107 OFFCURVE",
"123 -106 OFFCURVE",
"121 -106 CURVE SMOOTH",
"129 -106 OFFCURVE",
"148 -115 OFFCURVE",
"156 -115 CURVE SMOOTH"
);
},
{
closed = 1;
nodes = (
"304 88 LINE",
"333 160 OFFCURVE",
"360 256 OFFCURVE",
"387 375 CURVE SMOOTH",
"398 421 OFFCURVE",
"403 472 OFFCURVE",
"403 530 CURVE SMOOTH",
"403 556 OFFCURVE",
"401 582 OFFCURVE",
"398 604 CURVE",
"417 605 OFFCURVE",
"432 606 OFFCURVE",
"446 606 CURVE SMOOTH",
"475 606 OFFCURVE",
"503 605 OFFCURVE",
"531 602 CURVE",
"489 541 OFFCURVE",
"458 464 OFFCURVE",
"437 376 CURVE SMOOTH",
"407 246 OFFCURVE",
"376 143 OFFCURVE",
"341 68 CURVE"
);
},
{
closed = 1;
nodes = (
"532 -8 OFFCURVE",
"468 10 OFFCURVE",
"389 46 CURVE",
"410 77 OFFCURVE",
"424 111 OFFCURVE",
"435 148 CURVE SMOOTH",
"488 366 LINE SMOOTH",
"513 467 OFFCURVE",
"540 544 OFFCURVE",
"566 598 CURVE",
"781 568 OFFCURVE",
"888 468 OFFCURVE",
"888 300 CURVE SMOOTH",
"888 215 OFFCURVE",
"858 141 OFFCURVE",
"798 82 CURVE SMOOTH",
"739 22 OFFCURVE",
"665 -8 OFFCURVE",
"581 -8 CURVE SMOOTH"
);
}
);
};
layerId = "64752FBD-EC7B-42BB-A7F3-340BB4BBD1AC";
paths = (
{
closed = 1;
nodes = (
"158 -115 OFFCURVE",
"159 -115 OFFCURVE",
"159 -114 CURVE",
"158 -112 OFFCURVE",
"156 -111 OFFCURVE",
"155 -111 CURVE",
"135 -102 OFFCURVE",
"119 -95 OFFCURVE",
"106 -86 CURVE SMOOTH",
"48 -48 OFFCURVE",
"19 -3 OFFCURVE",
"19 47 CURVE SMOOTH",
"19 89 OFFCURVE",
"43 109 OFFCURVE",
"92 109 CURVE SMOOTH",
"102 109 OFFCURVE",
"115 108 OFFCURVE",
"130 105 CURVE SMOOTH",
"172 97 OFFCURVE",
"222 81 OFFCURVE",
"282 58 CURVE",
"275 40 OFFCURVE",
"271 30 OFFCURVE",
"271 29 CURVE SMOOTH",
"271 24 OFFCURVE",
"272 22 OFFCURVE",
"275 22 CURVE SMOOTH",
"277 22 OFFCURVE",
"279 24 OFFCURVE",
"281 29 CURVE SMOOTH",
"292 54 LINE",
"328 39 LINE",
"290 -35 OFFCURVE",
"252 -72 OFFCURVE",
"212 -72 CURVE SMOOTH",
"196 -72 OFFCURVE",
"181 -66 OFFCURVE",
"165 -54 CURVE SMOOTH",
"149 -42 OFFCURVE",
"141 -36 OFFCURVE",
"139 -36 CURVE SMOOTH",
"130 -36 OFFCURVE",
"125 -44 OFFCURVE",
"125 -60 CURVE SMOOTH",
"125 -80 OFFCURVE",
"138 -90 OFFCURVE",
"162 -90 CURVE SMOOTH",
"165 -90 LINE SMOOTH",
"248 -90 OFFCURVE",
"317 -50 OFFCURVE",
"373 21 CURVE",
"447 -6 OFFCURVE",
"516 -20 OFFCURVE",
"581 -20 CURVE SMOOTH",
"671 -20 OFFCURVE",
"753 14 OFFCURVE",
"825 80 CURVE SMOOTH",
"898 146 OFFCURVE",
"934 224 OFFCURVE",
"934 315 CURVE SMOOTH",
"934 493 OFFCURVE",
"818 598 OFFCURVE",
"584 632 CURVE",
"616 684 OFFCURVE",
"655 713 OFFCURVE",
"698 713 CURVE SMOOTH",
"720 713 OFFCURVE",
"739 703 OFFCURVE",
"753 683 CURVE SMOOTH",
"769 663 OFFCURVE",
"778 654 OFFCURVE",
"779 654 CURVE SMOOTH",
"785 654 OFFCURVE",
"788 660 OFFCURVE",
"788 672 CURVE SMOOTH",
"788 687 OFFCURVE",
"780 701 OFFCURVE",
"763 711 CURVE SMOOTH",
"746 723 OFFCURVE",
"730 729 OFFCURVE",
"714 729 CURVE SMOOTH",
"661 729 OFFCURVE",
"608 698 OFFCURVE",
"556 636 CURVE",
"520 640 OFFCURVE",
"483 642 OFFCURVE",
"444 642 CURVE SMOOTH",
"426 642 OFFCURVE",
"409 642 OFFCURVE",
"392 641 CURVE",
"375 716 OFFCURVE",
"339 754 OFFCURVE",
"284 754 CURVE SMOOTH",
"253 754 OFFCURVE",
"232 743 OFFCURVE",
"221 718 CURVE",
"255 719 OFFCURVE",
"274 701 OFFCURVE",
"280 662 CURVE",
"293 668 OFFCURVE",
"299 681 OFFCURVE",
"299 700 CURVE SMOOTH",
"299 720 OFFCURVE",
"290 735 OFFCURVE",
"271 743 CURVE",
"285 743 LINE SMOOTH",
"330 743 OFFCURVE",
"359 708 OFFCURVE",
"373 640 CURVE",
"296 635 OFFCURVE",
"225 624 OFFCURVE",
"163 606 CURVE SMOOTH",
"60 577 OFFCURVE",
"8 534 OFFCURVE",
"8 477 CURVE SMOOTH",
"8 451 OFFCURVE",
"25 422 OFFCURVE",
"61 392 CURVE SMOOTH",
"96 364 OFFCURVE",
"124 350 OFFCURVE",
"146 350 CURVE SMOOTH",
"153 350 OFFCURVE",
"157 351 OFFCURVE",
"157 353 CURVE",
"156 354 OFFCURVE",
"156 355 OFFCURVE",
"155 355 CURVE",
"81 385 OFFCURVE",
"44 421 OFFCURVE",
"44 461 CURVE SMOOTH",
"44 504 OFFCURVE",
"84 540 OFFCURVE",
"164 566 CURVE SMOOTH",
"221 584 OFFCURVE",
"294 597 OFFCURVE",
"379 603 CURVE",
"381 584 OFFCURVE",
"382 563 OFFCURVE",
"382 541 CURVE SMOOTH",
"382 462 OFFCURVE",
"364 348 OFFCURVE",
"328 202 CURVE",
"317 203 OFFCURVE",
"307 215 OFFCURVE",
"301 236 CURVE",
"289 235 OFFCURVE",
"276 213 OFFCURVE",
"276 201 CURVE SMOOTH",
"276 185 OFFCURVE",
"283 174 OFFCURVE",
"297 166 CURVE",
"308 176 OFFCURVE",
"318 184 OFFCURVE",
"326 192 CURVE",
"316 154 OFFCURVE",
"306 121 OFFCURVE",
"296 92 CURVE",
"275 103 LINE SMOOTH",
"214 135 OFFCURVE",
"162 152 OFFCURVE",
"121 152 CURVE SMOOTH",
"60 152 OFFCURVE",
"12 109 OFFCURVE",
"12 48 CURVE SMOOTH",
"12 -18 OFFCURVE",
"44 -72 OFFCURVE",
"114 -107 CURVE SMOOTH",
"118 -109 LINE",
"122 -107 OFFCURVE",
"123 -106 OFFCURVE",
"121 -106 CURVE SMOOTH",
"129 -106 OFFCURVE",
"148 -115 OFFCURVE",
"156 -115 CURVE SMOOTH"
);
},
{
closed = 1;
nodes = (
"304 88 LINE",
"333 160 OFFCURVE",
"360 256 OFFCURVE",
"387 375 CURVE SMOOTH",
"398 421 OFFCURVE",
"403 472 OFFCURVE",
"403 530 CURVE SMOOTH",
"403 556 OFFCURVE",
"401 582 OFFCURVE",
"398 604 CURVE",
"417 605 OFFCURVE",
"432 606 OFFCURVE",
"446 606 CURVE SMOOTH",
"475 606 OFFCURVE",
"503 605 OFFCURVE",
"531 602 CURVE",
"489 541 OFFCURVE",
"458 464 OFFCURVE",
"437 376 CURVE SMOOTH",
"407 246 OFFCURVE",
"376 143 OFFCURVE",
"341 68 CURVE"
);
},
{
closed = 1;
nodes = (
"532 -8 OFFCURVE",
"468 10 OFFCURVE",
"389 46 CURVE",
"410 77 OFFCURVE",
"426 110 OFFCURVE",
"435 148 CURVE SMOOTH",
"488 366 LINE SMOOTH",
"513 467 OFFCURVE",
"540 544 OFFCURVE",
"566 598 CURVE",
"781 568 OFFCURVE",
"888 468 OFFCURVE",
"888 300 CURVE SMOOTH",
"888 215 OFFCURVE",
"858 141 OFFCURVE",
"798 82 CURVE SMOOTH",
"739 22 OFFCURVE",
"665 -8 OFFCURVE",
"581 -8 CURVE SMOOTH"
);
}
);
width = 909;
}
);
leftKerningGroup = D;
note = D;
rightKerningGroup = O;
unicode = 0044;
},
{
glyphname = Eth;
lastChange = "2022-02-14 21:32:36 +0000";
layers = (
{
background = {
paths = (
{
closed = 1;
nodes = (
"158 -115 OFFCURVE",
"159 -115 OFFCURVE",
"159 -114 CURVE",
"158 -112 OFFCURVE",
"156 -111 OFFCURVE",
"155 -111 CURVE",
"135 -102 OFFCURVE",
"119 -95 OFFCURVE",
"106 -86 CURVE SMOOTH",
"48 -48 OFFCURVE",
"19 -3 OFFCURVE",
"19 47 CURVE SMOOTH",
"19 89 OFFCURVE",
"43 109 OFFCURVE",
"92 109 CURVE SMOOTH",
"102 109 OFFCURVE",
"115 108 OFFCURVE",
"130 105 CURVE SMOOTH",
"172 97 OFFCURVE",
"222 81 OFFCURVE",
"282 58 CURVE",
"275 40 OFFCURVE",
"271 30 OFFCURVE",
"271 29 CURVE SMOOTH",
"271 24 OFFCURVE",
"272 22 OFFCURVE",
"275 22 CURVE SMOOTH",
"277 22 OFFCURVE",
"279 24 OFFCURVE",
"281 29 CURVE SMOOTH",
"292 54 LINE",
"328 39 LINE",
"290 -35 OFFCURVE",
"252 -72 OFFCURVE",
"212 -72 CURVE SMOOTH",
"196 -72 OFFCURVE",
"181 -66 OFFCURVE",
"165 -54 CURVE SMOOTH",
"149 -42 OFFCURVE",
"141 -36 OFFCURVE",
"139 -36 CURVE SMOOTH",
"130 -36 OFFCURVE",
"125 -44 OFFCURVE",
"125 -60 CURVE SMOOTH",
"125 -80 OFFCURVE",
"138 -91 OFFCURVE",
"162 -90 CURVE SMOOTH",
"165 -90 LINE SMOOTH",
"248 -87 OFFCURVE",
"317 -50 OFFCURVE",
"373 21 CURVE",
"447 -6 OFFCURVE",
"516 -20 OFFCURVE",
"581 -20 CURVE SMOOTH",
"671 -20 OFFCURVE",
"753 14 OFFCURVE",
"825 80 CURVE SMOOTH",
"898 146 OFFCURVE",
"934 224 OFFCURVE",
"934 315 CURVE SMOOTH",
"934 493 OFFCURVE",
"818 598 OFFCURVE",
"584 632 CURVE",
"616 684 OFFCURVE",
"655 713 OFFCURVE",
"698 713 CURVE SMOOTH",
"720 713 OFFCURVE",
"739 703 OFFCURVE",
"753 683 CURVE SMOOTH",
"769 663 OFFCURVE",
"778 654 OFFCURVE",
"779 654 CURVE SMOOTH",
"785 654 OFFCURVE",
"788 660 OFFCURVE",
"788 672 CURVE SMOOTH",
"788 687 OFFCURVE",
"780 701 OFFCURVE",
"763 711 CURVE SMOOTH",
"746 723 OFFCURVE",
"730 729 OFFCURVE",
"714 729 CURVE SMOOTH",
"661 729 OFFCURVE",
"608 698 OFFCURVE",
"556 636 CURVE",
"520 640 OFFCURVE",
"483 642 OFFCURVE",
"444 642 CURVE SMOOTH",
"426 642 OFFCURVE",
"409 642 OFFCURVE",
"392 641 CURVE",
"375 716 OFFCURVE",
"339 754 OFFCURVE",
"284 754 CURVE SMOOTH",
"253 754 OFFCURVE",
"232 743 OFFCURVE",
"221 718 CURVE",
"255 719 OFFCURVE",
"274 701 OFFCURVE",
"280 662 CURVE",
"293 668 OFFCURVE",
"299 681 OFFCURVE",
"299 700 CURVE SMOOTH",
"299 720 OFFCURVE",
"290 735 OFFCURVE",
"271 743 CURVE",
"285 743 LINE SMOOTH",
"330 743 OFFCURVE",
"359 708 OFFCURVE",
"373 640 CURVE",
"296 635 OFFCURVE",
"225 624 OFFCURVE",
"163 606 CURVE SMOOTH",
"60 577 OFFCURVE",
"8 534 OFFCURVE",
"8 477 CURVE SMOOTH",
"8 451 OFFCURVE",
"25 422 OFFCURVE",
"61 392 CURVE SMOOTH",
"96 364 OFFCURVE",
"124 350 OFFCURVE",
"146 350 CURVE SMOOTH",
"153 350 OFFCURVE",
"157 351 OFFCURVE",
"157 353 CURVE",
"156 354 OFFCURVE",
"156 355 OFFCURVE",
"155 355 CURVE",
"81 385 OFFCURVE",
"44 421 OFFCURVE",
"44 461 CURVE SMOOTH",
"44 504 OFFCURVE",
"84 540 OFFCURVE",
"164 566 CURVE SMOOTH",
"221 584 OFFCURVE",
"294 597 OFFCURVE",
"379 603 CURVE",
"381 584 OFFCURVE",
"382 563 OFFCURVE",
"382 541 CURVE SMOOTH",
"382 404 OFFCURVE",
"331 188 OFFCURVE",
"296 92 CURVE",
"275 103 LINE SMOOTH",
"214 136 OFFCURVE",
"162 152 OFFCURVE",
"121 152 CURVE SMOOTH",
"60 152 OFFCURVE",
"12 109 OFFCURVE",
"12 48 CURVE SMOOTH",
"12 -18 OFFCURVE",
"46 -69 OFFCURVE",
"114 -107 CURVE SMOOTH",
"118 -109 LINE",
"122 -107 OFFCURVE",
"123 -106 OFFCURVE",
"121 -106 CURVE SMOOTH",
"129 -106 OFFCURVE",
"148 -115 OFFCURVE",
"156 -115 CURVE SMOOTH"
);
},
{
closed = 1;
nodes = (
"243 179 OFFCURVE",
"271 181 OFFCURVE",
"341 183 CURVE SMOOTH",
"413 187 OFFCURVE",
"477 189 OFFCURVE",
"533 189 CURVE SMOOTH",
"539 189 OFFCURVE",
"542 191 OFFCURVE",
"542 194 CURVE SMOOTH",
"542 196 OFFCURVE",
"541 197 OFFCURVE",
"537 198 CURVE SMOOTH",
"502 205 OFFCURVE",
"448 209 OFFCURVE",
"374 209 CURVE SMOOTH",
"327 209 OFFCURVE",
"277 207 OFFCURVE",
"224 203 CURVE",
"221 201 LINE",
"223 194 OFFCURVE",
"243 179 OFFCURVE",
"254 179 CURVE"
);
},
{
closed = 1;
nodes = (
"304 88 LINE",
"333 160 OFFCURVE",
"360 245 OFFCURVE",
"387 364 CURVE SMOOTH",
"398 410 OFFCURVE",
"403 472 OFFCURVE",
"403 530 CURVE SMOOTH",
"403 556 OFFCURVE",
"401 582 OFFCURVE",
"398 604 CURVE",
"417 605 OFFCURVE",
"432 606 OFFCURVE",
"446 606 CURVE SMOOTH",
"475 606 OFFCURVE",
"503 605 OFFCURVE",
"531 602 CURVE",
"489 541 OFFCURVE",
"458 464 OFFCURVE",
"437 376 CURVE SMOOTH",
"407 246 OFFCURVE",
"376 143 OFFCURVE",
"341 68 CURVE"
);
},
{
closed = 1;
nodes = (
"532 -8 OFFCURVE",
"468 10 OFFCURVE",
"389 46 CURVE",
"410 77 OFFCURVE",
"424 111 OFFCURVE",
"435 148 CURVE SMOOTH",
"488 366 LINE SMOOTH",
"513 467 OFFCURVE",
"540 544 OFFCURVE",
"566 598 CURVE",
"781 568 OFFCURVE",
"888 468 OFFCURVE",
"888 300 CURVE SMOOTH",
"888 215 OFFCURVE",
"858 141 OFFCURVE",
"798 82 CURVE SMOOTH",
"739 22 OFFCURVE",
"665 -8 OFFCURVE",
"581 -8 CURVE SMOOTH"
);
}
);
};
layerId = "64752FBD-EC7B-42BB-A7F3-340BB4BBD1AC";
paths = (
{
closed = 1;
nodes = (
"158 -115 OFFCURVE",
"159 -115 OFFCURVE",
"159 -114 CURVE",
"158 -112 OFFCURVE",
"156 -111 OFFCURVE",
"155 -111 CURVE",
"135 -102 OFFCURVE",
"119 -95 OFFCURVE",
"106 -86 CURVE SMOOTH",
"48 -48 OFFCURVE",
"19 -3 OFFCURVE",
"19 47 CURVE SMOOTH",
"19 89 OFFCURVE",
"43 109 OFFCURVE",
"92 109 CURVE SMOOTH",
"102 109 OFFCURVE",
"115 108 OFFCURVE",
"130 105 CURVE SMOOTH",
"172 97 OFFCURVE",
"222 81 OFFCURVE",
"282 58 CURVE",
"275 40 OFFCURVE",
"271 30 OFFCURVE",
"271 29 CURVE SMOOTH",
"271 24 OFFCURVE",
"272 22 OFFCURVE",
"275 22 CURVE SMOOTH",
"277 22 OFFCURVE",
"279 24 OFFCURVE",
"281 29 CURVE SMOOTH",
"292 54 LINE",
"328 39 LINE",
"290 -35 OFFCURVE",
"252 -72 OFFCURVE",
"212 -72 CURVE SMOOTH",
"196 -72 OFFCURVE",
"181 -66 OFFCURVE",
"165 -54 CURVE SMOOTH",
"149 -42 OFFCURVE",
"141 -36 OFFCURVE",
"139 -36 CURVE SMOOTH",
"130 -36 OFFCURVE",
"125 -44 OFFCURVE",
"125 -60 CURVE SMOOTH",
"125 -80 OFFCURVE",
"138 -91 OFFCURVE",
"162 -90 CURVE SMOOTH",
"165 -90 LINE SMOOTH",
"248 -87 OFFCURVE",
"317 -50 OFFCURVE",
"373 21 CURVE",
"447 -6 OFFCURVE",
"516 -20 OFFCURVE",
"581 -20 CURVE SMOOTH",
"671 -20 OFFCURVE",
"753 14 OFFCURVE",
"825 80 CURVE SMOOTH",
"898 146 OFFCURVE",
"934 224 OFFCURVE",
"934 315 CURVE SMOOTH",
"934 493 OFFCURVE",
"818 598 OFFCURVE",
"584 632 CURVE",
"616 684 OFFCURVE",
"655 713 OFFCURVE",
"698 713 CURVE SMOOTH",
"720 713 OFFCURVE",
"739 703 OFFCURVE",
"753 683 CURVE SMOOTH",
"769 663 OFFCURVE",
"778 654 OFFCURVE",
"779 654 CURVE SMOOTH",
"785 654 OFFCURVE",
"788 660 OFFCURVE",
"788 672 CURVE SMOOTH",
"788 687 OFFCURVE",
"780 701 OFFCURVE",
"763 711 CURVE SMOOTH",
"746 723 OFFCURVE",
"730 729 OFFCURVE",
"714 729 CURVE SMOOTH",
"661 729 OFFCURVE",
"608 698 OFFCURVE",
"556 636 CURVE",
"520 640 OFFCURVE",
"483 642 OFFCURVE",
"444 642 CURVE SMOOTH",
"426 642 OFFCURVE",
"409 642 OFFCURVE",
"392 641 CURVE",
"375 716 OFFCURVE",
"339 754 OFFCURVE",
"284 754 CURVE SMOOTH",
"253 754 OFFCURVE",
"232 743 OFFCURVE",
"221 718 CURVE",
"255 719 OFFCURVE",
"274 701 OFFCURVE",
"280 662 CURVE",
"293 668 OFFCURVE",
"299 681 OFFCURVE",
"299 700 CURVE SMOOTH",
"299 720 OFFCURVE",
"290 735 OFFCURVE",
"271 743 CURVE",
"285 743 LINE SMOOTH",
"330 743 OFFCURVE",
"359 708 OFFCURVE",
"373 640 CURVE",
"296 635 OFFCURVE",
"225 624 OFFCURVE",
"163 606 CURVE SMOOTH",
"60 577 OFFCURVE",
"8 534 OFFCURVE",
"8 477 CURVE SMOOTH",
"8 451 OFFCURVE",
"25 422 OFFCURVE",
"61 392 CURVE SMOOTH",
"96 364 OFFCURVE",
"124 350 OFFCURVE",
"146 350 CURVE SMOOTH",
"153 350 OFFCURVE",
"157 351 OFFCURVE",
"157 353 CURVE",
"156 354 OFFCURVE",
"156 355 OFFCURVE",
"155 355 CURVE",
"81 385 OFFCURVE",
"44 421 OFFCURVE",
"44 461 CURVE SMOOTH",
"44 504 OFFCURVE",
"84 540 OFFCURVE",
"164 566 CURVE SMOOTH",
"221 584 OFFCURVE",
"294 597 OFFCURVE",
"379 603 CURVE",
"381 584 OFFCURVE",
"382 563 OFFCURVE",
"382 541 CURVE SMOOTH",
"382 404 OFFCURVE",
"331 188 OFFCURVE",
"296 92 CURVE",
"275 103 LINE SMOOTH",
"214 136 OFFCURVE",
"162 152 OFFCURVE",
"121 152 CURVE SMOOTH",
"60 152 OFFCURVE",
"12 109 OFFCURVE",
"12 48 CURVE SMOOTH",
"12 -18 OFFCURVE",
"46 -69 OFFCURVE",
"114 -107 CURVE SMOOTH",
"118 -109 LINE",
"122 -107 OFFCURVE",
"123 -106 OFFCURVE",
"121 -106 CURVE SMOOTH",
"129 -106 OFFCURVE",
"148 -115 OFFCURVE",
"156 -115 CURVE SMOOTH"
);
},
{
closed = 1;
nodes = (
"243 179 OFFCURVE",
"271 181 OFFCURVE",
"341 183 CURVE SMOOTH",
"413 187 OFFCURVE",
"477 189 OFFCURVE",
"533 189 CURVE SMOOTH",
"539 189 OFFCURVE",
"542 191 OFFCURVE",
"542 194 CURVE SMOOTH",
"542 196 OFFCURVE",
"541 197 OFFCURVE",
"537 198 CURVE SMOOTH",
"502 205 OFFCURVE",
"448 209 OFFCURVE",
"374 209 CURVE SMOOTH",
"327 209 OFFCURVE",
"277 207 OFFCURVE",
"224 203 CURVE",
"221 201 LINE",
"223 194 OFFCURVE",
"243 179 OFFCURVE",
"254 179 CURVE"
);
},
{
closed = 1;
nodes = (
"304 88 LINE",
"333 160 OFFCURVE",
"360 245 OFFCURVE",
"387 364 CURVE SMOOTH",
"398 410 OFFCURVE",
"403 472 OFFCURVE",
"403 530 CURVE SMOOTH",
"403 556 OFFCURVE",
"401 582 OFFCURVE",
"398 604 CURVE",
"417 605 OFFCURVE",
"432 606 OFFCURVE",
"446 606 CURVE SMOOTH",
"475 606 OFFCURVE",
"503 605 OFFCURVE",
"531 602 CURVE",
"489 541 OFFCURVE",
"458 464 OFFCURVE",
"437 376 CURVE SMOOTH",
"407 246 OFFCURVE",
"376 143 OFFCURVE",
"341 68 CURVE"
);
},
{
closed = 1;
nodes = (
"532 -8 OFFCURVE",
"468 10 OFFCURVE",
"389 46 CURVE",
"410 77 OFFCURVE",
"424 111 OFFCURVE",
"435 148 CURVE",
"488 366 LINE SMOOTH",
"513 467 OFFCURVE",
"540 544 OFFCURVE",
"566 598 CURVE",
"781 568 OFFCURVE",
"888 468 OFFCURVE",
"888 300 CURVE SMOOTH",
"888 215 OFFCURVE",
"858 141 OFFCURVE",
"798 82 CURVE SMOOTH",
"739 22 OFFCURVE",
"665 -8 OFFCURVE",
"581 -8 CURVE SMOOTH"
);
}
);
width = 909;
}
);
leftKerningGroup = D;
note = Eth;
rightKerningGroup = O;
unicode = 00D0;
},
{
color = 3;
glyphname = E;
lastChange = "2022-02-14 21:32:36 +0000";
layers = (
{
anchors = (
{
name = bottom;
position = "{344, 0}";
},
{
name = ogonek;
position = "{652, 0}";
},
{
name = top;
position = "{464, 670}";
}
);
background = {
paths = (
{
closed = 1;
nodes = (
"67 -163 OFFCURVE",
"69 -159 OFFCURVE",
"73 -158 CURVE SMOOTH",
"93 -154 OFFCURVE",
"102 -151 OFFCURVE",
"102 -150 CURVE SMOOTH",
"102 -149 OFFCURVE",
"91 -150 OFFCURVE",
"85 -150 CURVE SMOOTH",
"36 -150 OFFCURVE",
"12 -132 OFFCURVE",
"12 -94 CURVE SMOOTH",
"12 -47 OFFCURVE",
"63 1 OFFCURVE",
"141 17 CURVE",
"131 -8 OFFCURVE",
"119 -30 OFFCURVE",
"108 -52 CURVE SMOOTH",
"102 -63 OFFCURVE",
"100 -70 OFFCURVE",
"100 -73 CURVE SMOOTH",
"100 -74 OFFCURVE",
"100 -74 OFFCURVE",
"100 -74 CURVE SMOOTH",
"103 -74 OFFCURVE",
"109 -67 OFFCURVE",
"117 -54 CURVE SMOOTH",
"130 -33 OFFCURVE",
"141 -9 OFFCURVE",
"154 19 CURVE",
"171 21 OFFCURVE",
"187 22 OFFCURVE",
"205 22 CURVE SMOOTH",
"234 22 OFFCURVE",
"265 19 OFFCURVE",
"299 12 CURVE SMOOTH",
"422 -15 OFFCURVE",
"504 -28 OFFCURVE",
"544 -28 CURVE SMOOTH",
"637 -28 OFFCURVE",
"703 -2 OFFCURVE",
"741 50 CURVE SMOOTH",
"755 70 OFFCURVE",
"762 91 OFFCURVE",
"762 113 CURVE SMOOTH",
"762 141 OFFCURVE",
"756 154 OFFCURVE",
"743 154 CURVE SMOOTH",
"739 154 OFFCURVE",
"737 152 OFFCURVE",
"737 147 CURVE SMOOTH",
"737 146 OFFCURVE",
"755 129 OFFCURVE",
"755 106 CURVE SMOOTH",
"755 87 OFFCURVE",
"748 68 OFFCURVE",
"734 52 CURVE SMOOTH",
"709 23 OFFCURVE",
"663 10 OFFCURVE",
"596 10 CURVE SMOOTH",
"527 10 OFFCURVE",
"432 26 OFFCURVE",
"313 60 CURVE SMOOTH",
"293 65 OFFCURVE",
"270 68 OFFCURVE",
"248 68 CURVE SMOOTH",
"237 68 OFFCURVE",
"226 67 OFFCURVE",
"216 66 CURVE",
"266 111 LINE SMOOTH",
"301 142 OFFCURVE",
"327 214 OFFCURVE",
"346 325 CURVE",
"443 310 OFFCURVE",
"503 303 OFFCURVE",
"528 303 CURVE SMOOTH",
"556 303 OFFCURVE",
"582 308 OFFCURVE",
"604 319 CURVE SMOOTH",
"634 333 OFFCURVE",
"649 345 OFFCURVE",
"649 358 CURVE SMOOTH",
"649 360 OFFCURVE",
"648 361 OFFCURVE",
"645 361 CURVE",
"618 346 OFFCURVE",
"584 339 OFFCURVE",
"544 339 CURVE SMOOTH",
"536 339 OFFCURVE",
"472 346 OFFCURVE",
"352 361 CURVE",
"369 465 OFFCURVE",
"387 536 OFFCURVE",
"406 574 CURVE",
"474 558 OFFCURVE",
"530 550 OFFCURVE",
"574 550 CURVE SMOOTH",
"650 550 OFFCURVE",
"703 579 OFFCURVE",
"736 635 CURVE SMOOTH",
"738 639 OFFCURVE",
"739 642 OFFCURVE",
"739 644 CURVE SMOOTH",
"739 646 OFFCURVE",
"738 647 OFFCURVE",
"736 647 CURVE SMOOTH",
"733 647 OFFCURVE",
"728 643 OFFCURVE",
"721 634 CURVE SMOOTH",
"703 610 OFFCURVE",
"664 598 OFFCURVE",
"605 598 CURVE SMOOTH",
"549 598 OFFCURVE",
"465 612 OFFCURVE",
"354 638 CURVE",
"367 664 OFFCURVE",
"382 690 OFFCURVE",
"396 713 CURVE",
"385 704 OFFCURVE",
"377 699 OFFCURVE",
"372 694 CURVE SMOOTH",
"359 683 OFFCURVE",
"347 666 OFFCURVE",
"336 642 CURVE",
"305 649 OFFCURVE",
"280 652 OFFCURVE",
"260 652 CURVE SMOOTH",
"220 652 OFFCURVE",
"174 633 OFFCURVE",
"122 595 CURVE SMOOTH",
"70 557 OFFCURVE",
"45 519 OFFCURVE",
"45 479 CURVE SMOOTH",
"45 466 OFFCURVE",
"49 456 OFFCURVE",
"58 447 CURVE",
"92 460 OFFCURVE",
"108 470 OFFCURVE",
"108 481 CURVE SMOOTH",
"108 482 OFFCURVE",
"104 488 OFFCURVE",
"98 500 CURVE SMOOTH",
"91 511 OFFCURVE",
"87 522 OFFCURVE",
"87 532 CURVE SMOOTH",
"87 557 OFFCURVE",
"106 576 OFFCURVE",
"144 588 CURVE SMOOTH",
"173 597 OFFCURVE",
"203 602 OFFCURVE",
"235 602 CURVE SMOOTH",
"261 602 OFFCURVE",
"287 599 OFFCURVE",
"315 594 CURVE",
"297 542 OFFCURVE",
"276 466 OFFCURVE",
"255 365 CURVE",
"201 362 OFFCURVE",
"160 349 OFFCURVE",
"133 327 CURVE SMOOTH",
"98 299 LINE",
"100 296 LINE",
"137 321 OFFCURVE",
"184 334 OFFCURVE",
"243 334 CURVE SMOOTH",
"248 334 LINE",
"240 297 LINE SMOOTH",
"229 245 OFFCURVE",
"220 205 OFFCURVE",
"209 175 CURVE",
"214 195 OFFCURVE",
"216 214 OFFCURVE",
"216 229 CURVE SMOOTH",
"216 279 OFFCURVE",
"194 303 OFFCURVE",
"152 303 CURVE SMOOTH",
"124 303 OFFCURVE",
"100 292 OFFCURVE",
"83 269 CURVE",
"109 270 OFFCURVE",
"122 259 OFFCURVE",
"122 233 CURVE SMOOTH",
"122 228 OFFCURVE",
"121 222 OFFCURVE",
"120 217 CURVE",
"141 227 OFFCURVE",
"152 244 OFFCURVE",
"152 267 CURVE SMOOTH",
"152 279 OFFCURVE",
"147 287 OFFCURVE",
"138 292 CURVE",
"142 293 OFFCURVE",
"146 293 OFFCURVE",
"150 293 CURVE SMOOTH",
"184 293 OFFCURVE",
"202 271 OFFCURVE",
"202 227 CURVE SMOOTH",
"202 185 OFFCURVE",
"187 127 OFFCURVE",
"157 54 CURVE",
"98 35 OFFCURVE",
"53 1 OFFCURVE",
"20 -48 CURVE SMOOTH",
"8 -66 OFFCURVE",
"2 -84 OFFCURVE",
"2 -102 CURVE SMOOTH",
"2 -137 OFFCURVE",
"28 -163 OFFCURVE",
"63 -163 CURVE SMOOTH"
);
},
{
closed = 1;
nodes = (
"184 88 LINE SMOOTH",
"212 147 OFFCURVE",
"230 196 OFFCURVE",
"239 233 CURVE SMOOTH",
"262 333 LINE",
"275 333 OFFCURVE",
"289 332 OFFCURVE",
"303 330 CURVE",
"280 218 OFFCURVE",
"248 129 OFFCURVE",
"206 65 CURVE",
"195 63 OFFCURVE",
"183 61 OFFCURVE",
"173 59 CURVE"
);
},
{
closed = 1;
nodes = (
"298 366 OFFCURVE",
"287 366 OFFCURVE",
"278 366 CURVE SMOOTH",
"269 366 LINE",
"292 462 OFFCURVE",
"313 537 OFFCURVE",
"334 590 CURVE",
"387 578 LINE",
"371 563 OFFCURVE",
"356 548 OFFCURVE",
"345 533 CURVE",
"330 471 OFFCURVE",
"318 416 OFFCURVE",
"310 366 CURVE SMOOTH",
"310 365 LINE"
);
}
);
};
layerId = "64752FBD-EC7B-42BB-A7F3-340BB4BBD1AC";
paths = (
{
closed = 1;
nodes = (
"67 -163 OFFCURVE",
"69 -159 OFFCURVE",
"73 -158 CURVE SMOOTH",
"93 -154 OFFCURVE",
"102 -151 OFFCURVE",
"102 -150 CURVE SMOOTH",
"102 -149 OFFCURVE",
"91 -150 OFFCURVE",
"85 -150 CURVE SMOOTH",
"36 -150 OFFCURVE",
"12 -132 OFFCURVE",
"12 -94 CURVE SMOOTH",
"12 -47 OFFCURVE",
"63 1 OFFCURVE",
"141 17 CURVE",
"131 -8 OFFCURVE",
"119 -30 OFFCURVE",
"108 -52 CURVE SMOOTH",
"102 -63 OFFCURVE",
"100 -70 OFFCURVE",
"100 -73 CURVE SMOOTH",
"100 -74 LINE",
"103 -74 OFFCURVE",
"109 -67 OFFCURVE",
"117 -54 CURVE SMOOTH",
"130 -33 OFFCURVE",
"141 -9 OFFCURVE",
"154 19 CURVE",
"171 21 OFFCURVE",
"187 22 OFFCURVE",
"205 22 CURVE SMOOTH",
"234 22 OFFCURVE",
"265 19 OFFCURVE",
"299 12 CURVE SMOOTH",
"422 -15 OFFCURVE",
"504 -28 OFFCURVE",
"544 -28 CURVE SMOOTH",
"637 -28 OFFCURVE",
"703 -2 OFFCURVE",
"741 50 CURVE SMOOTH",
"755 70 OFFCURVE",
"762 91 OFFCURVE",
"762 113 CURVE SMOOTH",
"762 141 OFFCURVE",
"756 154 OFFCURVE",
"743 154 CURVE SMOOTH",
"739 154 OFFCURVE",
"737 152 OFFCURVE",
"737 147 CURVE SMOOTH",
"737 146 OFFCURVE",
"755 129 OFFCURVE",
"755 106 CURVE SMOOTH",
"755 87 OFFCURVE",
"748 68 OFFCURVE",
"734 52 CURVE SMOOTH",
"709 23 OFFCURVE",
"663 10 OFFCURVE",
"596 10 CURVE SMOOTH",
"527 10 OFFCURVE",
"432 26 OFFCURVE",
"313 60 CURVE SMOOTH",
"293 65 OFFCURVE",
"270 68 OFFCURVE",
"248 68 CURVE SMOOTH",
"237 68 OFFCURVE",
"226 67 OFFCURVE",
"216 66 CURVE",
"266 111 LINE SMOOTH",
"301 142 OFFCURVE",
"327 214 OFFCURVE",
"346 325 CURVE",
"443 310 OFFCURVE",
"503 303 OFFCURVE",
"528 303 CURVE SMOOTH",
"556 303 OFFCURVE",
"582 308 OFFCURVE",
"604 319 CURVE SMOOTH",
"634 333 OFFCURVE",
"649 345 OFFCURVE",
"649 358 CURVE SMOOTH",
"649 360 OFFCURVE",
"648 361 OFFCURVE",
"645 361 CURVE",
"618 346 OFFCURVE",
"584 339 OFFCURVE",
"544 339 CURVE SMOOTH",
"536 339 OFFCURVE",
"472 346 OFFCURVE",
"352 361 CURVE",
"369 465 OFFCURVE",
"387 536 OFFCURVE",
"406 574 CURVE",
"474 558 OFFCURVE",
"530 550 OFFCURVE",
"574 550 CURVE SMOOTH",
"650 550 OFFCURVE",
"703 579 OFFCURVE",
"736 635 CURVE SMOOTH",
"738 639 OFFCURVE",
"739 642 OFFCURVE",
"739 644 CURVE SMOOTH",
"739 646 OFFCURVE",
"738 647 OFFCURVE",
"736 647 CURVE SMOOTH",
"733 647 OFFCURVE",
"728 643 OFFCURVE",
"721 634 CURVE SMOOTH",
"703 610 OFFCURVE",
"664 598 OFFCURVE",
"605 598 CURVE SMOOTH",
"549 598 OFFCURVE",
"465 612 OFFCURVE",
"354 638 CURVE",
"367 664 OFFCURVE",
"382 690 OFFCURVE",
"396 713 CURVE",
"385 704 OFFCURVE",
"377 699 OFFCURVE",
"372 694 CURVE SMOOTH",
"359 683 OFFCURVE",
"347 666 OFFCURVE",
"336 642 CURVE",
"305 649 OFFCURVE",
"280 652 OFFCURVE",
"260 652 CURVE SMOOTH",
"220 652 OFFCURVE",
"174 633 OFFCURVE",
"122 595 CURVE SMOOTH",
"70 557 OFFCURVE",
"45 519 OFFCURVE",
"45 479 CURVE SMOOTH",
"45 466 OFFCURVE",
"49 456 OFFCURVE",
"58 447 CURVE",
"92 460 OFFCURVE",
"108 470 OFFCURVE",
"108 481 CURVE SMOOTH",
"108 482 OFFCURVE",
"104 488 OFFCURVE",
"98 500 CURVE SMOOTH",
"91 511 OFFCURVE",
"87 522 OFFCURVE",
"87 532 CURVE SMOOTH",
"87 557 OFFCURVE",
"106 576 OFFCURVE",
"144 588 CURVE SMOOTH",
"173 597 OFFCURVE",
"203 602 OFFCURVE",
"235 602 CURVE SMOOTH",
"261 602 OFFCURVE",
"287 599 OFFCURVE",
"315 594 CURVE",
"297 542 OFFCURVE",
"276 466 OFFCURVE",
"255 365 CURVE",
"201 362 OFFCURVE",
"160 349 OFFCURVE",
"133 327 CURVE SMOOTH",
"98 299 LINE",
"100 296 LINE",
"137 321 OFFCURVE",
"184 334 OFFCURVE",
"243 334 CURVE SMOOTH",
"248 334 LINE",
"240 297 LINE SMOOTH",
"229 245 OFFCURVE",
"220 205 OFFCURVE",
"209 175 CURVE",
"214 195 OFFCURVE",
"216 214 OFFCURVE",
"216 229 CURVE SMOOTH",
"216 279 OFFCURVE",
"194 303 OFFCURVE",
"152 303 CURVE SMOOTH",
"124 303 OFFCURVE",
"100 292 OFFCURVE",
"83 269 CURVE",
"109 270 OFFCURVE",
"122 259 OFFCURVE",
"122 233 CURVE SMOOTH",
"122 228 OFFCURVE",
"121 222 OFFCURVE",
"120 217 CURVE",
"141 227 OFFCURVE",
"152 244 OFFCURVE",
"152 267 CURVE SMOOTH",
"152 279 OFFCURVE",
"147 287 OFFCURVE",
"138 292 CURVE",
"142 293 OFFCURVE",
"146 293 OFFCURVE",
"150 293 CURVE SMOOTH",
"184 293 OFFCURVE",
"202 271 OFFCURVE",
"202 227 CURVE SMOOTH",
"202 185 OFFCURVE",
"187 127 OFFCURVE",
"157 54 CURVE",
"98 35 OFFCURVE",
"53 1 OFFCURVE",
"20 -48 CURVE SMOOTH",
"8 -66 OFFCURVE",
"2 -84 OFFCURVE",
"2 -102 CURVE SMOOTH",
"2 -137 OFFCURVE",
"28 -163 OFFCURVE",
"63 -163 CURVE SMOOTH"
);
},
{
closed = 1;
nodes = (
"184 88 LINE SMOOTH",
"207 149 OFFCURVE",
"230 196 OFFCURVE",
"239 233 CURVE SMOOTH",
"262 333 LINE",
"275 333 OFFCURVE",
"289 332 OFFCURVE",
"303 330 CURVE",
"280 218 OFFCURVE",
"248 129 OFFCURVE",
"206 65 CURVE",
"173 59 LINE"
);
},
{
closed = 1;
nodes = (
"298 366 OFFCURVE",
"287 366 OFFCURVE",
"278 366 CURVE SMOOTH",
"269 366 LINE",
"292 462 OFFCURVE",
"313 537 OFFCURVE",
"334 590 CURVE",
"387 578 LINE",
"371 563 OFFCURVE",
"356 548 OFFCURVE",
"345 533 CURVE",
"330 471 OFFCURVE",
"310 417 OFFCURVE",
"310 366 CURVE SMOOTH",
"310 365 LINE"
);
}
);
width = 747;
}
);
leftKerningGroup = E;
note = E;
rightKerningGroup = E;
unicode = 0045;
},
{
glyphname = Schwa;
lastChange = "2022-02-14 12:40:36 +0000";
layers = (
{
background = {
paths = (
{
closed = 1;
nodes = (
"154 563 OFFCURVE",
"255 648 OFFCURVE",
"403 648 CURVE SMOOTH",
"521 648 OFFCURVE",
"606 585 OFFCURVE",
"568 389 CURVE SMOOTH",
"529 183 OFFCURVE",
"341 0 OFFCURVE",
"177 0 CURVE SMOOTH",
"48 0 OFFCURVE",
"79 152 OFFCURVE",
"155 224 CURVE SMOOTH",
"301 365 OFFCURVE",
"489 360 OFFCURVE",
"558 360 CURVE SMOOTH",
"573 360 OFFCURVE",
"578 375 OFFCURVE",
"550 375 CURVE SMOOTH",
"502 375 OFFCURVE",
"301 400 OFFCURVE",
"136 261 CURVE SMOOTH",
"13 158 OFFCURVE",
"-12 -20 OFFCURVE",
"160 -20 CURVE SMOOTH",
"611 -20 OFFCURVE",
"821 679 OFFCURVE",
"427 679 CURVE SMOOTH",
"276 679 OFFCURVE",
"155 593 OFFCURVE",
"76 512 CURVE SMOOTH",
"65 501 OFFCURVE",
"79 492 OFFCURVE",
"90 501 CURVE SMOOTH"
);
}
);
};
layerId = "64752FBD-EC7B-42BB-A7F3-340BB4BBD1AC";
paths = (
{
closed = 1;
nodes = (
"446 -20 OFFCURVE",
"634 261 OFFCURVE",
"634 466 CURVE SMOOTH",
"634 585 OFFCURVE",
"572 679 OFFCURVE",
"427 679 CURVE SMOOTH",
"276 679 OFFCURVE",
"155 593 OFFCURVE",
"76 512 CURVE SMOOTH",
"73 509 OFFCURVE",
"72 506 OFFCURVE",
"72 503 CURVE SMOOTH",
"72 500 OFFCURVE",
"76 497 OFFCURVE",
"81 497 CURVE SMOOTH",
"84 497 OFFCURVE",
"87 498 OFFCURVE",
"90 501 CURVE SMOOTH",
"154 563 OFFCURVE",
"255 648 OFFCURVE",
"403 648 CURVE SMOOTH",
"502 648 OFFCURVE",
"577 604 OFFCURVE",
"577 475 CURVE SMOOTH",
"577 450 OFFCURVE",
"574 422 OFFCURVE",
"568 389 CURVE SMOOTH",
"529 183 OFFCURVE",
"341 0 OFFCURVE",
"177 0 CURVE SMOOTH",
"114 0 OFFCURVE",
"89 36 OFFCURVE",
"89 82 CURVE SMOOTH",
"89 130 OFFCURVE",
"116 187 OFFCURVE",
"155 224 CURVE SMOOTH",
"301 365 OFFCURVE",
"489 360 OFFCURVE",
"558 360 CURVE SMOOTH",
"565 360 OFFCURVE",
"570 363 OFFCURVE",
"570 367 CURVE SMOOTH",
"570 371 OFFCURVE",
"564 375 OFFCURVE",
"550 375 CURVE SMOOTH",
"538 375 OFFCURVE",
"513 377 OFFCURVE",
"482 377 CURVE SMOOTH",
"397 377 OFFCURVE",
"257 363 OFFCURVE",
"136 261 CURVE SMOOTH",
"74 210 OFFCURVE",
"37 140 OFFCURVE",
"37 82 CURVE SMOOTH",
"37 25 OFFCURVE",
"74 -20 OFFCURVE",
"160 -20 CURVE SMOOTH"
);
}
);
width = 654;
}
);
leftKerningGroup = Schwa;
rightKerningGroup = O;
unicode = 018F;
},
{
glyphname = F;
lastChange = "2022-02-14 21:32:36 +0000";
layers = (
{
background = {
paths = (
{
closed = 1;
nodes = (
"357 -53 OFFCURVE",
"437 -13 OFFCURVE",
"501 68 CURVE SMOOTH",
"545 126 OFFCURVE",
"587 215 OFFCURVE",
"625 336 CURVE",
"630 335 OFFCURVE",
"636 335 OFFCURVE",
"641 335 CURVE SMOOTH",
"665 335 OFFCURVE",
"687 340 OFFCURVE",
"707 348 CURVE SMOOTH",
"734 361 OFFCURVE",
"747 373 OFFCURVE",
"747 383 CURVE SMOOTH",
"747 384 OFFCURVE",
"746 385 OFFCURVE",
"743 385 CURVE",
"719 373 OFFCURVE",
"690 366 OFFCURVE",
"656 366 CURVE SMOOTH",
"635 366 LINE",
"669 476 OFFCURVE",
"689 539 OFFCURVE",
"694 551 CURVE",
"702 551 LINE SMOOTH",
"815 550 OFFCURVE",
"871 584 OFFCURVE",
"871 652 CURVE SMOOTH",
"871 680 OFFCURVE",
"865 694 OFFCURVE",
"853 694 CURVE SMOOTH",
"849 694 OFFCURVE",
"847 692 OFFCURVE",
"847 689 CURVE",
"847 689 OFFCURVE",
"863 671 OFFCURVE",
"863 652 CURVE SMOOTH",
"863 635 OFFCURVE",
"858 620 OFFCURVE",
"845 605 CURVE SMOOTH",
"830 589 OFFCURVE",
"800 582 OFFCURVE",
"753 582 CURVE SMOOTH",
"739 582 OFFCURVE",
"722 582 OFFCURVE",
"705 583 CURVE",
"714 602 LINE SMOOTH",
"731 640 OFFCURVE",
"751 660 OFFCURVE",
"776 660 CURVE SMOOTH",
"786 660 OFFCURVE",
"797 655 OFFCURVE",
"806 644 CURVE SMOOTH",
"816 634 OFFCURVE",
"822 629 OFFCURVE",
"823 629 CURVE SMOOTH",
"829 629 OFFCURVE",
"832 633 OFFCURVE",
"832 640 CURVE SMOOTH",
"832 659 OFFCURVE",
"800 672 OFFCURVE",
"781 672 CURVE SMOOTH",
"762 672 OFFCURVE",
"742 665 OFFCURVE",
"721 653 CURVE SMOOTH",
"701 640 OFFCURVE",
"685 625 OFFCURVE",
"674 609 CURVE SMOOTH",
"661 587 LINE",
"513 617 OFFCURVE",
"403 641 OFFCURVE",
"330 660 CURVE SMOOTH",
"286 668 OFFCURVE",
"248 673 OFFCURVE",
"215 673 CURVE SMOOTH",
"133 673 OFFCURVE",
"72 645 OFFCURVE",
"34 588 CURVE SMOOTH",
"23 573 OFFCURVE",
"19 557 OFFCURVE",
"19 542 CURVE SMOOTH",
"19 514 OFFCURVE",
"31 497 OFFCURVE",
"58 488 CURVE SMOOTH",
"64 486 OFFCURVE",
"69 485 OFFCURVE",
"72 485 CURVE SMOOTH",
"76 485 OFFCURVE",
"78 488 OFFCURVE",
"81 488 CURVE SMOOTH",
"98 489 OFFCURVE",
"106 491 OFFCURVE",
"106 493 CURVE SMOOTH",
"106 494 OFFCURVE",
"105 494 OFFCURVE",
"103 494 CURVE SMOOTH",
"53 494 OFFCURVE",
"27 512 OFFCURVE",
"27 548 CURVE SMOOTH",
"27 569 OFFCURVE",
"37 587 OFFCURVE",
"58 604 CURVE SMOOTH",
"83 624 OFFCURVE",
"122 635 OFFCURVE",
"174 635 CURVE SMOOTH",
"215 635 OFFCURVE",
"266 628 OFFCURVE",
"329 616 CURVE SMOOTH",
"381 604 OFFCURVE",
"433 592 OFFCURVE",
"486 580 CURVE SMOOTH",
"547 566 OFFCURVE",
"600 557 OFFCURVE",
"644 554 CURVE",
"627 516 OFFCURVE",
"607 456 OFFCURVE",
"584 371 CURVE",
"556 376 OFFCURVE",
"536 379 OFFCURVE",
"521 381 CURVE",
"517 421 OFFCURVE",
"505 454 OFFCURVE",
"486 482 CURVE SMOOTH",
"462 515 OFFCURVE",
"432 532 OFFCURVE",
"396 532 CURVE SMOOTH",
"372 532 OFFCURVE",
"359 527 OFFCURVE",
"359 516 CURVE SMOOTH",
"359 515 OFFCURVE",
"360 514 OFFCURVE",
"362 514 CURVE SMOOTH",
"369 514 OFFCURVE",
"384 520 OFFCURVE",
"392 520 CURVE SMOOTH",
"422 520 OFFCURVE",
"448 504 OFFCURVE",
"469 474 CURVE SMOOTH",
"488 449 OFFCURVE",
"501 419 OFFCURVE",
"506 382 CURVE",
"473 387 OFFCURVE",
"445 390 OFFCURVE",
"422 390 CURVE SMOOTH",
"366 390 OFFCURVE",
"324 379 OFFCURVE",
"296 356 CURVE SMOOTH",
"264 331 LINE",
"266 328 LINE",
"299 350 OFFCURVE",
"341 361 OFFCURVE",
"392 361 CURVE SMOOTH",
"420 361 OFFCURVE",
"459 357 OFFCURVE",
"508 349 CURVE",
"507 290 OFFCURVE",
"484 239 OFFCURVE",
"437 197 CURVE",
"451 221 LINE",
"452 221 OFFCURVE",
"452 223 OFFCURVE",
"452 225 CURVE SMOOTH",
"452 230 OFFCURVE",
"446 247 OFFCURVE",
"434 273 CURVE",
"432 275 LINE",
"424 272 OFFCURVE",
"416 247 OFFCURVE",
"416 238 CURVE",
"424 218 OFFCURVE",
"428 205 OFFCURVE",
"428 200 CURVE SMOOTH",
"428 192 OFFCURVE",
"426 184 OFFCURVE",
"422 178 CURVE",
"484 217 OFFCURVE",
"516 273 OFFCURVE",
"521 347 CURVE",
"544 343 OFFCURVE",
"563 341 OFFCURVE",
"577 340 CURVE",
"542 216 OFFCURVE",
"509 129 OFFCURVE",
"476 78 CURVE SMOOTH",
"423 -3 OFFCURVE",
"351 -43 OFFCURVE",
"259 -43 CURVE SMOOTH",
"174 -43 OFFCURVE",
"111 2 OFFCURVE",
"71 91 CURVE SMOOTH",
"94 41 OFFCURVE",
"141 17 OFFCURVE",
"213 17 CURVE SMOOTH",
"263 17 OFFCURVE",
"289 22 OFFCURVE",
"289 35 CURVE SMOOTH",
"289 36 OFFCURVE",
"288 37 OFFCURVE",
"286 38 CURVE",
"284 38 OFFCURVE",
"276 36 OFFCURVE",
"262 32 CURVE SMOOTH",
"249 28 OFFCURVE",
"238 26 OFFCURVE",
"229 26 CURVE SMOOTH",
"176 26 OFFCURVE",
"134 44 OFFCURVE",
"103 79 CURVE SMOOTH",
"91 93 OFFCURVE",
"80 109 OFFCURVE",
"73 128 CURVE SMOOTH",
"69 139 OFFCURVE",
"63 156 OFFCURVE",
"57 181 CURVE SMOOTH",
"56 186 OFFCURVE",
"53 188 OFFCURVE",
"49 188 CURVE SMOOTH",
"34 188 OFFCURVE",
"26 178 OFFCURVE",
"26 156 CURVE SMOOTH",
"26 138 OFFCURVE",
"31 113 OFFCURVE",
"42 84 CURVE SMOOTH",
"57 42 OFFCURVE",
"86 9 OFFCURVE",
"130 -18 CURVE SMOOTH",
"170 -41 OFFCURVE",
"214 -53 OFFCURVE",
"260 -53 CURVE SMOOTH"
);
}
);
};
layerId = "64752FBD-EC7B-42BB-A7F3-340BB4BBD1AC";
paths = (
{
closed = 1;
nodes = (
"357 -53 OFFCURVE",
"437 -13 OFFCURVE",
"501 68 CURVE SMOOTH",
"545 126 OFFCURVE",
"587 215 OFFCURVE",
"625 336 CURVE",
"630 335 OFFCURVE",
"636 335 OFFCURVE",
"641 335 CURVE SMOOTH",
"665 335 OFFCURVE",
"687 340 OFFCURVE",
"707 348 CURVE SMOOTH",
"734 361 OFFCURVE",
"747 373 OFFCURVE",
"747 383 CURVE SMOOTH",
"747 384 OFFCURVE",
"746 385 OFFCURVE",
"743 385 CURVE",
"719 373 OFFCURVE",
"690 366 OFFCURVE",
"656 366 CURVE SMOOTH",
"635 366 LINE",
"669 476 OFFCURVE",
"689 539 OFFCURVE",
"694 551 CURVE",
"702 551 LINE SMOOTH",
"815 550 OFFCURVE",
"871 584 OFFCURVE",
"871 652 CURVE SMOOTH",
"871 680 OFFCURVE",
"865 694 OFFCURVE",
"853 694 CURVE SMOOTH",
"849 694 OFFCURVE",
"847 692 OFFCURVE",
"847 689 CURVE",
"847 689 OFFCURVE",
"863 671 OFFCURVE",
"863 652 CURVE SMOOTH",
"863 635 OFFCURVE",
"858 620 OFFCURVE",
"845 605 CURVE SMOOTH",
"830 589 OFFCURVE",
"800 582 OFFCURVE",
"753 582 CURVE SMOOTH",
"739 582 OFFCURVE",
"722 582 OFFCURVE",
"705 583 CURVE",
"714 602 LINE SMOOTH",
"731 640 OFFCURVE",
"751 660 OFFCURVE",
"776 660 CURVE SMOOTH",
"786 660 OFFCURVE",
"797 655 OFFCURVE",
"806 644 CURVE SMOOTH",
"816 634 OFFCURVE",
"822 629 OFFCURVE",
"823 629 CURVE SMOOTH",
"829 629 OFFCURVE",
"832 633 OFFCURVE",
"832 640 CURVE SMOOTH",
"832 659 OFFCURVE",
"800 672 OFFCURVE",
"781 672 CURVE SMOOTH",
"762 672 OFFCURVE",
"742 665 OFFCURVE",
"721 653 CURVE SMOOTH",
"701 640 OFFCURVE",
"685 625 OFFCURVE",
"674 609 CURVE SMOOTH",
"661 587 LINE",
"513 617 OFFCURVE",
"403 641 OFFCURVE",
"330 660 CURVE",
"286 668 OFFCURVE",
"248 673 OFFCURVE",
"215 673 CURVE SMOOTH",
"133 673 OFFCURVE",
"72 645 OFFCURVE",
"34 588 CURVE SMOOTH",
"23 573 OFFCURVE",
"19 557 OFFCURVE",
"19 542 CURVE SMOOTH",
"19 514 OFFCURVE",
"31 497 OFFCURVE",
"58 488 CURVE SMOOTH",
"64 486 OFFCURVE",
"69 485 OFFCURVE",
"72 485 CURVE SMOOTH",
"76 485 OFFCURVE",
"78 488 OFFCURVE",
"81 488 CURVE SMOOTH",
"98 489 OFFCURVE",
"106 491 OFFCURVE",
"106 493 CURVE SMOOTH",
"106 494 OFFCURVE",
"105 494 OFFCURVE",
"103 494 CURVE SMOOTH",
"53 494 OFFCURVE",
"27 512 OFFCURVE",
"27 548 CURVE SMOOTH",
"27 569 OFFCURVE",
"37 587 OFFCURVE",
"58 604 CURVE SMOOTH",
"83 624 OFFCURVE",
"122 635 OFFCURVE",
"174 635 CURVE SMOOTH",
"215 635 OFFCURVE",
"266 628 OFFCURVE",
"329 616 CURVE SMOOTH",
"486 580 LINE SMOOTH",
"547 566 OFFCURVE",
"600 557 OFFCURVE",
"644 554 CURVE",
"627 516 OFFCURVE",
"607 456 OFFCURVE",
"584 371 CURVE",
"556 376 OFFCURVE",
"536 379 OFFCURVE",
"521 381 CURVE",
"517 421 OFFCURVE",
"505 454 OFFCURVE",
"486 482 CURVE SMOOTH",
"462 515 OFFCURVE",
"432 532 OFFCURVE",
"396 532 CURVE SMOOTH",
"372 532 OFFCURVE",
"359 527 OFFCURVE",
"359 516 CURVE SMOOTH",
"359 515 OFFCURVE",
"360 514 OFFCURVE",
"362 514 CURVE SMOOTH",
"369 514 OFFCURVE",
"384 520 OFFCURVE",
"392 520 CURVE SMOOTH",
"422 520 OFFCURVE",
"448 504 OFFCURVE",
"469 474 CURVE SMOOTH",
"488 449 OFFCURVE",
"501 419 OFFCURVE",
"506 382 CURVE",
"473 387 OFFCURVE",
"445 390 OFFCURVE",
"422 390 CURVE SMOOTH",
"366 390 OFFCURVE",
"324 379 OFFCURVE",
"296 356 CURVE SMOOTH",
"264 331 LINE",
"266 328 LINE",
"299 350 OFFCURVE",
"341 361 OFFCURVE",
"392 361 CURVE SMOOTH",
"420 361 OFFCURVE",
"459 357 OFFCURVE",
"508 349 CURVE",
"507 290 OFFCURVE",
"484 239 OFFCURVE",
"437 197 CURVE",
"451 221 LINE",
"452 221 OFFCURVE",
"452 223 OFFCURVE",
"452 225 CURVE SMOOTH",
"452 230 OFFCURVE",
"446 247 OFFCURVE",
"434 273 CURVE",
"432 275 LINE",
"424 272 OFFCURVE",
"416 247 OFFCURVE",
"416 238 CURVE",
"424 218 OFFCURVE",
"428 205 OFFCURVE",
"428 200 CURVE SMOOTH",
"428 192 OFFCURVE",
"426 184 OFFCURVE",
"422 178 CURVE",
"484 217 OFFCURVE",
"516 273 OFFCURVE",
"521 347 CURVE",
"544 343 OFFCURVE",
"563 341 OFFCURVE",
"577 340 CURVE",
"542 216 OFFCURVE",
"509 129 OFFCURVE",
"476 78 CURVE SMOOTH",
"423 -3 OFFCURVE",
"351 -43 OFFCURVE",
"259 -43 CURVE SMOOTH",
"174 -43 OFFCURVE",
"111 2 OFFCURVE",
"71 91 CURVE SMOOTH",
"94 41 OFFCURVE",
"141 17 OFFCURVE",
"213 17 CURVE SMOOTH",
"263 17 OFFCURVE",
"289 22 OFFCURVE",
"289 35 CURVE SMOOTH",
"289 36 OFFCURVE",
"288 37 OFFCURVE",
"286 38 CURVE",
"284 38 OFFCURVE",
"276 36 OFFCURVE",
"262 32 CURVE SMOOTH",
"249 28 OFFCURVE",
"238 26 OFFCURVE",
"229 26 CURVE SMOOTH",
"176 26 OFFCURVE",
"134 44 OFFCURVE",
"103 79 CURVE SMOOTH",
"91 93 OFFCURVE",
"80 109 OFFCURVE",
"73 128 CURVE SMOOTH",
"69 139 OFFCURVE",
"63 156 OFFCURVE",
"57 181 CURVE SMOOTH",
"56 186 OFFCURVE",
"53 188 OFFCURVE",
"49 188 CURVE SMOOTH",
"34 188 OFFCURVE",
"26 178 OFFCURVE",
"26 156 CURVE SMOOTH",
"26 138 OFFCURVE",
"31 113 OFFCURVE",
"42 84 CURVE SMOOTH",
"57 42 OFFCURVE",
"86 9 OFFCURVE",
"130 -18 CURVE SMOOTH",
"170 -41 OFFCURVE",
"214 -53 OFFCURVE",
"260 -53 CURVE SMOOTH"
);
}
);
width = 686;
}
);
leftKerningGroup = T;
note = F;
rightKerningGroup = T;
unicode = 0046;
},
{
color = 3;
glyphname = G;
lastChange = "2022-02-14 21:32:36 +0000";
layers = (
{
anchors = (
{
name = bottom;
position = "{130, -261}";
},
{
name = top;
position = "{534, 720}";
}
);
background = {
paths = (
{
closed = 1;
nodes = (
"205 -261 OFFCURVE",
"265 -244 OFFCURVE",
"320 -210 CURVE SMOOTH",
"393 -165 OFFCURVE",
"448 -101 OFFCURVE",
"484 -20 CURVE SMOOTH",
"499 13 OFFCURVE",
"524 94 OFFCURVE",
"560 221 CURVE SMOOTH",
"571 261 OFFCURVE",
"582 292 OFFCURVE",
"592 312 CURVE",
"626 305 OFFCURVE",
"649 301 OFFCURVE",
"659 301 CURVE SMOOTH",
"690 301 OFFCURVE",
"718 314 OFFCURVE",
"743 340 CURVE SMOOTH",
"749 345 OFFCURVE",
"752 350 OFFCURVE",
"752 354 CURVE SMOOTH",
"752 357 OFFCURVE",
"751 358 OFFCURVE",
"749 358 CURVE SMOOTH",
"747 358 OFFCURVE",
"745 357 OFFCURVE",
"743 355 CURVE SMOOTH",
"732 344 OFFCURVE",
"714 339 OFFCURVE",
"691 339 CURVE SMOOTH",
"678 339 OFFCURVE",
"653 342 OFFCURVE",
"617 349 CURVE",
"632 365 OFFCURVE",
"638 367 OFFCURVE",
"639 370 CURVE SMOOTH",
"639 371 OFFCURVE",
"637 372 OFFCURVE",
"634 372 CURVE SMOOTH",
"620 372 OFFCURVE",
"602 367 OFFCURVE",
"582 356 CURVE",
"553 361 OFFCURVE",
"528 364 OFFCURVE",
"507 364 CURVE",
"514 395 OFFCURVE",
"519 422 OFFCURVE",
"523 447 CURVE SMOOTH",
"537 529 OFFCURVE",
"543 604 OFFCURVE",
"544 673 CURVE",
"594 667 OFFCURVE",
"633 647 OFFCURVE",
"663 611 CURVE SMOOTH",
"675 594 OFFCURVE",
"682 582 OFFCURVE",
"682 571 CURVE SMOOTH",
"682 563 OFFCURVE",
"676 555 OFFCURVE",
"676 554 CURVE SMOOTH",
"676 550 OFFCURVE",
"679 548 OFFCURVE",
"686 548 CURVE SMOOTH",
"699 548 OFFCURVE",
"709 571 OFFCURVE",
"709 583 CURVE SMOOTH",
"709 596 OFFCURVE",
"703 609 OFFCURVE",
"692 623 CURVE SMOOTH",
"661 663 OFFCURVE",
"612 684 OFFCURVE",
"544 688 CURVE",
"543 745 OFFCURVE",
"542 776 OFFCURVE",
"538 779 CURVE",
"535 777 OFFCURVE",
"533 772 OFFCURVE",
"533 763 CURVE SMOOTH",
"533 740 LINE SMOOTH",
"534 729 OFFCURVE",
"534 721 OFFCURVE",
"534 716 CURVE SMOOTH",
"534 688 LINE",
"524 688 LINE SMOOTH",
"463 688 OFFCURVE",
"401 674 OFFCURVE",
"336 647 CURVE SMOOTH",
"248 609 OFFCURVE",
"178 555 OFFCURVE",
"124 486 CURVE SMOOTH",
"66 411 OFFCURVE",
"37 328 OFFCURVE",
"37 237 CURVE SMOOTH",
"37 172 OFFCURVE",
"55 118 OFFCURVE",
"91 76 CURVE SMOOTH",
"129 30 OFFCURVE",
"181 7 OFFCURVE",
"244 7 CURVE SMOOTH",
"314 7 OFFCURVE",
"372 39 OFFCURVE",
"418 104 CURVE",
"375 -18 OFFCURVE",
"334 -95 OFFCURVE",
"295 -125 CURVE SMOOTH",
"290 -129 OFFCURVE",
"286 -132 OFFCURVE",
"283 -133 CURVE",
"284 -132 OFFCURVE",
"285 -130 OFFCURVE",
"285 -129 CURVE SMOOTH",
"285 -123 OFFCURVE",
"280 -116 OFFCURVE",
"270 -109 CURVE SMOOTH",
"261 -102 OFFCURVE",
"255 -98 OFFCURVE",
"254 -94 CURVE",
"243 -94 OFFCURVE",
"229 -117 OFFCURVE",
"229 -129 CURVE SMOOTH",
"229 -144 OFFCURVE",
"236 -156 OFFCURVE",
"250 -164 CURVE",
"258 -158 OFFCURVE",
"264 -152 OFFCURVE",
"269 -146 CURVE",
"271 -156 OFFCURVE",
"275 -161 OFFCURVE",
"280 -161 CURVE SMOOTH",
"316 -161 OFFCURVE",
"362 -89 OFFCURVE",
"416 57 CURVE SMOOTH",
"452 155 OFFCURVE",
"480 246 OFFCURVE",
"499 327 CURVE",
"513 326 OFFCURVE",
"529 323 OFFCURVE",
"547 320 CURVE",
"536 286 OFFCURVE",
"528 261 OFFCURVE",
"523 243 CURVE SMOOTH",
"494 129 OFFCURVE",
"470 50 OFFCURVE",
"452 8 CURVE SMOOTH",
"418 -74 OFFCURVE",
"369 -140 OFFCURVE",
"306 -187 CURVE SMOOTH",
"253 -228 OFFCURVE",
"197 -249 OFFCURVE",
"139 -249 CURVE SMOOTH",
"51 -249 OFFCURVE",
"-12 -204 OFFCURVE",
"-48 -113 CURVE SMOOTH",
"-45 -119 OFFCURVE",
"-36 -129 OFFCURVE",
"-23 -142 CURVE SMOOTH",
"-11 -156 OFFCURVE",
"-2 -163 OFFCURVE",
"3 -163 CURVE SMOOTH",
"4 -163 OFFCURVE",
"5 -162 OFFCURVE",
"6 -161 CURVE",
"6 -159 OFFCURVE",
"5 -157 OFFCURVE",
"2 -154 CURVE SMOOTH",
"-22 -130 OFFCURVE",
"-37 -97 OFFCURVE",
"-41 -57 CURVE SMOOTH",
"-42 -42 OFFCURVE",
"-44 -30 OFFCURVE",
"-45 -23 CURVE SMOOTH",
"-46 -19 OFFCURVE",
"-50 -17 OFFCURVE",
"-57 -17 CURVE SMOOTH",
"-78 -17 OFFCURVE",
"-89 -28 OFFCURVE",
"-89 -53 CURVE SMOOTH",
"-89 -71 OFFCURVE",
"-85 -94 OFFCURVE",
"-77 -120 CURVE SMOOTH",
"-62 -166 OFFCURVE",
"-34 -202 OFFCURVE",
"7 -226 CURVE SMOOTH",
"45 -249 OFFCURVE",
"90 -261 OFFCURVE",
"140 -261 CURVE SMOOTH"
);
},
{
closed = 1;
nodes = (
"216 33 OFFCURVE",
"170 58 OFFCURVE",
"136 106 CURVE SMOOTH",
"104 150 OFFCURVE",
"89 201 OFFCURVE",
"89 261 CURVE SMOOTH",
"89 360 OFFCURVE",
"135 454 OFFCURVE",
"226 542 CURVE SMOOTH",
"319 631 OFFCURVE",
"415 675 OFFCURVE",
"514 675 CURVE SMOOTH",
"533 675 LINE",
"530 582 OFFCURVE",
"515 479 OFFCURVE",
"491 364 CURVE",
"437 361 OFFCURVE",
"395 346 OFFCURVE",
"364 321 CURVE SMOOTH",
"359 316 OFFCURVE",
"352 310 OFFCURVE",
"343 303 CURVE",
"336 300 OFFCURVE",
"328 295 OFFCURVE",
"319 288 CURVE",
"322 287 OFFCURVE",
"324 287 OFFCURVE",
"326 287 CURVE",
"327 285 LINE",
"328 286 LINE",
"348 279 OFFCURVE",
"358 266 OFFCURVE",
"358 247 CURVE SMOOTH",
"358 239 OFFCURVE",
"356 230 OFFCURVE",
"352 221 CURVE",
"376 225 OFFCURVE",
"397 250 OFFCURVE",
"397 272 CURVE SMOOTH",
"397 283 OFFCURVE",
"393 291 OFFCURVE",
"384 298 CURVE",
"422 294 OFFCURVE",
"442 262 OFFCURVE",
"442 203 CURVE SMOOTH",
"442 159 OFFCURVE",
"424 120 OFFCURVE",
"390 85 CURVE SMOOTH",
"356 51 OFFCURVE",
"316 33 OFFCURVE",
"272 33 CURVE SMOOTH"
);
},
{
closed = 1;
nodes = (
"453 245 OFFCURVE",
"446 266 OFFCURVE",
"434 283 CURVE SMOOTH",
"420 302 OFFCURVE",
"401 312 OFFCURVE",
"379 312 CURVE",
"407 323 OFFCURVE",
"438 328 OFFCURVE",
"472 328 CURVE SMOOTH",
"482 328 LINE",
"476 301 LINE SMOOTH",
"470 276 OFFCURVE",
"463 249 OFFCURVE",
"455 221 CURVE"
);
}
);
};
layerId = "64752FBD-EC7B-42BB-A7F3-340BB4BBD1AC";
paths = (
{
closed = 1;
nodes = (
"205 -261 OFFCURVE",
"265 -244 OFFCURVE",
"320 -210 CURVE SMOOTH",
"393 -165 OFFCURVE",
"448 -101 OFFCURVE",
"484 -20 CURVE SMOOTH",
"499 13 OFFCURVE",
"524 94 OFFCURVE",
"560 221 CURVE SMOOTH",
"571 261 OFFCURVE",
"582 292 OFFCURVE",
"592 312 CURVE",
"626 305 OFFCURVE",
"649 301 OFFCURVE",
"659 301 CURVE SMOOTH",
"690 301 OFFCURVE",
"718 314 OFFCURVE",
"743 340 CURVE",
"749 345 OFFCURVE",
"752 350 OFFCURVE",
"752 354 CURVE SMOOTH",
"752 357 OFFCURVE",
"751 358 OFFCURVE",
"749 358 CURVE SMOOTH",
"747 358 OFFCURVE",
"745 357 OFFCURVE",
"743 355 CURVE SMOOTH",
"732 344 OFFCURVE",
"714 339 OFFCURVE",
"691 339 CURVE SMOOTH",
"678 339 OFFCURVE",
"653 342 OFFCURVE",
"617 349 CURVE",
"632 365 OFFCURVE",
"638 367 OFFCURVE",
"639 370 CURVE SMOOTH",
"639 371 OFFCURVE",
"637 372 OFFCURVE",
"634 372 CURVE SMOOTH",
"620 372 OFFCURVE",
"602 367 OFFCURVE",
"582 356 CURVE",
"553 361 OFFCURVE",
"528 364 OFFCURVE",
"507 364 CURVE",
"514 395 OFFCURVE",
"519 422 OFFCURVE",
"523 447 CURVE SMOOTH",
"537 529 OFFCURVE",
"543 604 OFFCURVE",
"544 673 CURVE",
"594 667 OFFCURVE",
"633 647 OFFCURVE",
"663 611 CURVE",
"675 594 OFFCURVE",
"682 582 OFFCURVE",
"682 571 CURVE SMOOTH",
"682 563 OFFCURVE",
"676 555 OFFCURVE",
"676 554 CURVE SMOOTH",
"676 550 OFFCURVE",
"679 548 OFFCURVE",
"686 548 CURVE SMOOTH",
"699 548 OFFCURVE",
"709 571 OFFCURVE",
"709 583 CURVE SMOOTH",
"709 596 OFFCURVE",
"703 609 OFFCURVE",
"692 623 CURVE SMOOTH",
"661 663 OFFCURVE",
"612 684 OFFCURVE",
"544 688 CURVE",
"543 745 OFFCURVE",
"542 776 OFFCURVE",
"538 779 CURVE",
"535 777 OFFCURVE",
"533 772 OFFCURVE",
"533 763 CURVE SMOOTH",
"533 740 LINE SMOOTH",
"533 729 OFFCURVE",
"534 721 OFFCURVE",
"534 716 CURVE SMOOTH",
"534 688 LINE",
"524 688 LINE SMOOTH",
"463 688 OFFCURVE",
"401 674 OFFCURVE",
"336 647 CURVE SMOOTH",
"248 609 OFFCURVE",
"178 555 OFFCURVE",
"124 486 CURVE SMOOTH",
"66 411 OFFCURVE",
"37 328 OFFCURVE",
"37 237 CURVE SMOOTH",
"37 172 OFFCURVE",
"55 118 OFFCURVE",
"91 76 CURVE SMOOTH",
"129 30 OFFCURVE",
"181 7 OFFCURVE",
"244 7 CURVE SMOOTH",
"314 7 OFFCURVE",
"372 39 OFFCURVE",
"418 104 CURVE",
"375 -18 OFFCURVE",
"334 -95 OFFCURVE",
"295 -125 CURVE SMOOTH",
"290 -129 OFFCURVE",
"286 -132 OFFCURVE",
"283 -133 CURVE",
"284 -132 OFFCURVE",
"285 -130 OFFCURVE",
"285 -129 CURVE SMOOTH",
"285 -123 OFFCURVE",
"280 -116 OFFCURVE",
"270 -109 CURVE SMOOTH",
"261 -102 OFFCURVE",
"255 -98 OFFCURVE",
"254 -94 CURVE",
"243 -94 OFFCURVE",
"229 -117 OFFCURVE",
"229 -129 CURVE SMOOTH",
"229 -144 OFFCURVE",
"236 -156 OFFCURVE",
"250 -164 CURVE",
"258 -158 OFFCURVE",
"264 -152 OFFCURVE",
"269 -146 CURVE",
"271 -156 OFFCURVE",
"275 -161 OFFCURVE",
"280 -161 CURVE SMOOTH",
"316 -161 OFFCURVE",
"362 -89 OFFCURVE",
"416 57 CURVE SMOOTH",
"452 155 OFFCURVE",
"480 246 OFFCURVE",
"499 327 CURVE",
"513 326 OFFCURVE",
"529 323 OFFCURVE",
"547 320 CURVE",
"536 286 OFFCURVE",
"528 261 OFFCURVE",
"523 243 CURVE SMOOTH",
"494 129 OFFCURVE",
"470 50 OFFCURVE",
"452 8 CURVE SMOOTH",
"418 -74 OFFCURVE",
"369 -140 OFFCURVE",
"306 -187 CURVE SMOOTH",
"253 -228 OFFCURVE",
"197 -249 OFFCURVE",
"139 -249 CURVE SMOOTH",
"51 -249 OFFCURVE",
"-12 -204 OFFCURVE",
"-48 -113 CURVE SMOOTH",
"-45 -119 OFFCURVE",
"-36 -129 OFFCURVE",
"-23 -142 CURVE SMOOTH",
"-11 -156 OFFCURVE",
"-2 -163 OFFCURVE",
"3 -163 CURVE SMOOTH",
"4 -163 OFFCURVE",
"5 -162 OFFCURVE",
"6 -161 CURVE",
"6 -159 OFFCURVE",
"5 -157 OFFCURVE",
"2 -154 CURVE SMOOTH",
"-22 -130 OFFCURVE",
"-37 -97 OFFCURVE",
"-41 -57 CURVE SMOOTH",
"-42 -42 OFFCURVE",
"-44 -30 OFFCURVE",
"-45 -23 CURVE SMOOTH",
"-46 -19 OFFCURVE",
"-50 -17 OFFCURVE",
"-57 -17 CURVE SMOOTH",
"-78 -17 OFFCURVE",
"-89 -28 OFFCURVE",
"-89 -53 CURVE SMOOTH",
"-89 -71 OFFCURVE",
"-85 -94 OFFCURVE",
"-77 -120 CURVE SMOOTH",
"-62 -166 OFFCURVE",
"-34 -202 OFFCURVE",
"7 -226 CURVE SMOOTH",
"45 -249 OFFCURVE",
"90 -261 OFFCURVE",
"140 -261 CURVE SMOOTH"
);
},
{
closed = 1;
nodes = (
"216 33 OFFCURVE",
"170 58 OFFCURVE",
"136 106 CURVE SMOOTH",
"104 150 OFFCURVE",
"89 201 OFFCURVE",
"89 261 CURVE SMOOTH",
"89 360 OFFCURVE",
"135 454 OFFCURVE",
"226 542 CURVE SMOOTH",
"319 631 OFFCURVE",
"415 675 OFFCURVE",
"514 675 CURVE SMOOTH",
"533 675 LINE",
"530 582 OFFCURVE",
"515 479 OFFCURVE",
"491 364 CURVE",
"437 361 OFFCURVE",
"395 346 OFFCURVE",
"364 321 CURVE SMOOTH",
"359 316 OFFCURVE",
"352 310 OFFCURVE",
"343 303 CURVE",
"336 300 OFFCURVE",
"328 295 OFFCURVE",
"319 288 CURVE",
"322 287 OFFCURVE",
"324 287 OFFCURVE",
"326 287 CURVE",
"327 285 LINE",
"328 286 LINE",
"348 279 OFFCURVE",
"358 266 OFFCURVE",
"358 247 CURVE SMOOTH",
"358 239 OFFCURVE",
"356 230 OFFCURVE",
"352 221 CURVE",
"376 225 OFFCURVE",
"397 250 OFFCURVE",
"397 272 CURVE SMOOTH",
"397 283 OFFCURVE",
"393 291 OFFCURVE",
"384 298 CURVE",
"422 294 OFFCURVE",
"442 262 OFFCURVE",
"442 203 CURVE SMOOTH",
"442 159 OFFCURVE",
"424 120 OFFCURVE",
"390 85 CURVE SMOOTH",
"356 51 OFFCURVE",
"316 33 OFFCURVE",
"272 33 CURVE SMOOTH"
);
},
{
closed = 1;
nodes = (
"453 245 OFFCURVE",
"446 266 OFFCURVE",
"434 283 CURVE SMOOTH",
"420 302 OFFCURVE",
"401 312 OFFCURVE",
"379 312 CURVE",
"407 323 OFFCURVE",
"438 328 OFFCURVE",
"472 328 CURVE SMOOTH",
"482 328 LINE",
"476 301 LINE SMOOTH",
"470 276 OFFCURVE",
"463 249 OFFCURVE",
"455 221 CURVE"
);
}
);
width = 608;
}
);
leftKerningGroup = G;
note = G;
rightKerningGroup = G;
unicode = 0047;
},
{
color = 3;
glyphname = H;
lastChange = "2022-02-14 21:32:33 +0000";
layers = (
{
anchors = (
{
name = bottom;
position = "{576, 0}";
},
{
name = center;
position = "{476, 335}";
},
{
name = top;
position = "{906, 670}";
}
);
background = {
paths = (
{
closed = 1;
nodes = (
"258 -49 OFFCURVE",
"300 -42 OFFCURVE",
"340 -27 CURVE SMOOTH",
"439 8 OFFCURVE",
"521 101 OFFCURVE",
"584 255 CURVE",
"673 246 OFFCURVE",
"737 241 OFFCURVE",
"775 241 CURVE SMOOTH",
"812 241 OFFCURVE",
"842 244 OFFCURVE",
"865 251 CURVE",
"849 164 OFFCURVE",
"835 102 OFFCURVE",
"824 67 CURVE SMOOTH",
"811 24 OFFCURVE",
"791 3 OFFCURVE",
"765 3 CURVE SMOOTH",
"755 3 OFFCURVE",
"745 7 OFFCURVE",
"736 16 CURVE SMOOTH",
"726 24 OFFCURVE",
"720 29 OFFCURVE",
"718 29 CURVE SMOOTH",
"712 29 OFFCURVE",
"709 25 OFFCURVE",
"709 19 CURVE SMOOTH",
"709 10 OFFCURVE",
"716 3 OFFCURVE",
"729 -3 CURVE SMOOTH",
"740 -8 OFFCURVE",
"749 -10 OFFCURVE",
"759 -10 CURVE SMOOTH",
"779 -10 OFFCURVE",
"799 -2 OFFCURVE",
"820 13 CURVE SMOOTH",
"841 28 OFFCURVE",
"856 46 OFFCURVE",
"864 64 CURVE SMOOTH",
"877 93 OFFCURVE",
"888 129 OFFCURVE",
"899 174 CURVE SMOOTH",
"905 200 OFFCURVE",
"914 243 OFFCURVE",
"926 304 CURVE",
"976 319 OFFCURVE",
"1009 349 OFFCURVE",
"1025 393 CURVE SMOOTH",
"1032 413 OFFCURVE",
"1036 427 OFFCURVE",
"1036 438 CURVE SMOOTH",
"1036 443 OFFCURVE",
"1034 445 OFFCURVE",
"1030 445 CURVE SMOOTH",
"1027 445 OFFCURVE",
"1025 443 OFFCURVE",
"1024 439 CURVE SMOOTH",
"1020 415 OFFCURVE",
"1014 396 OFFCURVE",
"1007 385 CURVE SMOOTH",
"992 358 OFFCURVE",
"966 339 OFFCURVE",
"930 327 CURVE",
"951 437 OFFCURVE",
"973 518 OFFCURVE",
"994 572 CURVE SMOOTH",
"1027 654 OFFCURVE",
"1072 708 OFFCURVE",
"1129 736 CURVE SMOOTH",
"1157 748 OFFCURVE",
"1185 755 OFFCURVE",
"1213 755 CURVE SMOOTH",
"1242 755 OFFCURVE",
"1269 750 OFFCURVE",
"1295 741 CURVE SMOOTH",
"1328 727 OFFCURVE",
"1345 707 OFFCURVE",
"1345 683 CURVE SMOOTH",
"1345 678 OFFCURVE",
"1340 665 OFFCURVE",
"1340 662 CURVE SMOOTH",
"1340 660 OFFCURVE",
"1341 659 OFFCURVE",
"1342 659 CURVE SMOOTH",
"1348 659 OFFCURVE",
"1351 667 OFFCURVE",
"1351 686 CURVE SMOOTH",
"1351 691 LINE",
"1350 694 OFFCURVE",
"1350 696 OFFCURVE",
"1350 697 CURVE SMOOTH",
"1350 703 OFFCURVE",
"1362 706 OFFCURVE",
"1362 709 CURVE",
"1360 713 LINE",
"1328 749 OFFCURVE",
"1285 768 OFFCURVE",
"1231 768 CURVE SMOOTH",
"1184 768 OFFCURVE",
"1139 757 OFFCURVE",
"1099 736 CURVE SMOOTH",
"1036 703 OFFCURVE",
"986 645 OFFCURVE",
"949 562 CURVE SMOOTH",
"923 504 OFFCURVE",
"900 422 OFFCURVE",
"878 316 CURVE",
"861 314 OFFCURVE",
"840 313 OFFCURVE",
"817 313 CURVE SMOOTH",
"776 313 OFFCURVE",
"707 317 OFFCURVE",
"612 326 CURVE",
"698 579 LINE",
"719 576 OFFCURVE",
"739 574 OFFCURVE",
"756 574 CURVE SMOOTH",
"784 574 OFFCURVE",
"810 579 OFFCURVE",
"832 589 CURVE SMOOTH",
"862 602 OFFCURVE",
"876 622 OFFCURVE",
"876 647 CURVE SMOOTH",
"876 673 OFFCURVE",
"866 686 OFFCURVE",
"846 686 CURVE SMOOTH",
"837 686 OFFCURVE",
"833 683 OFFCURVE",
"833 676 CURVE SMOOTH",
"833 669 OFFCURVE",
"848 657 OFFCURVE",
"848 641 CURVE SMOOTH",
"848 605 OFFCURVE",
"817 586 OFFCURVE",
"754 586 CURVE SMOOTH",
"739 586 OFFCURVE",
"722 588 OFFCURVE",
"703 591 CURVE",
"713 613 LINE SMOOTH",
"732 651 OFFCURVE",
"752 670 OFFCURVE",
"776 670 CURVE SMOOTH",
"787 670 OFFCURVE",
"798 665 OFFCURVE",
"807 655 CURVE SMOOTH",
"816 644 OFFCURVE",
"822 639 OFFCURVE",
"823 639 CURVE SMOOTH",
"830 639 OFFCURVE",
"833 643 OFFCURVE",
"833 651 CURVE SMOOTH",
"833 660 OFFCURVE",
"826 667 OFFCURVE",
"813 674 CURVE SMOOTH",
"802 679 OFFCURVE",
"791 682 OFFCURVE",
"782 682 CURVE SMOOTH",
"740 682 OFFCURVE",
"703 662 OFFCURVE",
"673 620 CURVE SMOOTH",
"668 614 OFFCURVE",
"664 607 OFFCURVE",
"661 600 CURVE",
"640 605 OFFCURVE",
"614 613 OFFCURVE",
"582 622 CURVE",
"583 630 OFFCURVE",
"583 638 OFFCURVE",
"583 646 CURVE SMOOTH",
"583 713 OFFCURVE",
"562 747 OFFCURVE",
"519 747 CURVE SMOOTH",
"496 747 OFFCURVE",
"475 736 OFFCURVE",
"459 712 CURVE",
"486 714 OFFCURVE",
"500 702 OFFCURVE",
"500 675 CURVE SMOOTH",
"500 670 OFFCURVE",
"500 666 OFFCURVE",
"499 662 CURVE",
"519 672 OFFCURVE",
"529 689 OFFCURVE",
"529 712 CURVE SMOOTH",
"529 725 OFFCURVE",
"524 733 OFFCURVE",
"513 738 CURVE",
"520 738 LINE SMOOTH",
"548 738 OFFCURVE",
"563 707 OFFCURVE",
"563 647 CURVE SMOOTH",
"563 628 LINE",
"468 658 OFFCURVE",
"398 672 OFFCURVE",
"352 672 CURVE SMOOTH",
"248 672 OFFCURVE",
"178 639 OFFCURVE",
"141 573 CURVE SMOOTH",
"129 550 OFFCURVE",
"123 527 OFFCURVE",
"123 502 CURVE SMOOTH",
"123 459 OFFCURVE",
"140 422 OFFCURVE",
"173 396 CURVE SMOOTH",
"203 372 OFFCURVE",
"241 360 OFFCURVE",
"287 360 CURVE SMOOTH",
"327 360 OFFCURVE",
"363 372 OFFCURVE",
"395 396 CURVE SMOOTH",
"431 422 OFFCURVE",
"450 456 OFFCURVE",
"450 494 CURVE SMOOTH",
"450 520 OFFCURVE",
"438 542 OFFCURVE",
"416 558 CURVE SMOOTH",
"393 575 OFFCURVE",
"369 582 OFFCURVE",
"341 582 CURVE SMOOTH",
"318 582 OFFCURVE",
"298 578 OFFCURVE",
"280 567 CURVE SMOOTH",
"260 554 OFFCURVE",
"249 538 OFFCURVE",
"249 515 CURVE SMOOTH",
"249 514 OFFCURVE",
"250 512 OFFCURVE",
"251 511 CURVE",
"254 512 OFFCURVE",
"256 516 OFFCURVE",
"257 522 CURVE SMOOTH",
"258 531 OFFCURVE",
"260 537 OFFCURVE",
"261 540 CURVE SMOOTH",
"270 560 OFFCURVE",
"298 571 OFFCURVE",
"341 571 CURVE SMOOTH",
"366 571 OFFCURVE",
"387 564 OFFCURVE",
"408 549 CURVE SMOOTH",
"428 535 OFFCURVE",
"439 516 OFFCURVE",
"439 494 CURVE SMOOTH",
"439 459 OFFCURVE",
"422 428 OFFCURVE",
"388 404 CURVE SMOOTH",
"357 382 OFFCURVE",
"323 372 OFFCURVE",
"287 372 CURVE SMOOTH",
"249 372 OFFCURVE",
"216 381 OFFCURVE",
"189 398 CURVE SMOOTH",
"159 419 OFFCURVE",
"143 447 OFFCURVE",
"143 483 CURVE SMOOTH",
"143 505 OFFCURVE",
"150 527 OFFCURVE",
"163 547 CURVE SMOOTH",
"201 609 OFFCURVE",
"271 639 OFFCURVE",
"375 639 CURVE SMOOTH",
"421 639 OFFCURVE",
"483 629 OFFCURVE",
"562 610 CURVE",
"557 546 OFFCURVE",
"540 457 OFFCURVE",
"501 335 CURVE",
"480 336 OFFCURVE",
"460 337 OFFCURVE",
"441 337 CURVE SMOOTH",
"406 337 OFFCURVE",
"374 335 OFFCURVE",
"344 331 CURVE SMOOTH",
"185 312 OFFCURVE",
"81 265 OFFCURVE",
"31 190 CURVE SMOOTH",
"14 165 OFFCURVE",
"5 139 OFFCURVE",
"5 110 CURVE SMOOTH",
"5 60 OFFCURVE",
"28 20 OFFCURVE",
"75 -10 CURVE SMOOTH",
"116 -36 OFFCURVE",
"163 -49 OFFCURVE",
"216 -49 CURVE SMOOTH"
);
},
{
closed = 1;
nodes = (
"177 -35 OFFCURVE",
"140 -23 OFFCURVE",
"109 -1 CURVE SMOOTH",
"75 24 OFFCURVE",
"59 59 OFFCURVE",
"59 101 CURVE SMOOTH",
"59 129 OFFCURVE",
"66 155 OFFCURVE",
"81 181 CURVE SMOOTH",
"127 261 OFFCURVE",
"215 305 OFFCURVE",
"345 318 CURVE SMOOTH",
"368 321 OFFCURVE",
"391 322 OFFCURVE",
"418 322 CURVE SMOOTH",
"442 322 OFFCURVE",
"467 321 OFFCURVE",
"496 319 CURVE",
"484 284 LINE",
"465 285 OFFCURVE",
"448 285 OFFCURVE",
"431 285 CURVE SMOOTH",
"357 285 OFFCURVE",
"302 272 OFFCURVE",
"266 246 CURVE SMOOTH",
"248 232 OFFCURVE",
"239 219 OFFCURVE",
"239 204 CURVE SMOOTH",
"239 185 OFFCURVE",
"245 173 OFFCURVE",
"257 164 CURVE",
"283 186 OFFCURVE",
"296 200 OFFCURVE",
"294 204 CURVE",
"283 203 OFFCURVE",
"275 214 OFFCURVE",
"269 234 CURVE",
"302 255 OFFCURVE",
"354 265 OFFCURVE",
"424 265 CURVE SMOOTH",
"441 265 OFFCURVE",
"458 265 OFFCURVE",
"476 264 CURVE",
"424 120 OFFCURVE",
"376 36 OFFCURVE",
"329 12 CURVE SMOOTH",
"315 5 OFFCURVE",
"308 0 OFFCURVE",
"308 -3 CURVE SMOOTH",
"308 -4 OFFCURVE",
"310 -5 OFFCURVE",
"314 -5 CURVE SMOOTH",
"320 -5 OFFCURVE",
"327 -3 OFFCURVE",
"335 0 CURVE SMOOTH",
"379 20 OFFCURVE",
"430 108 OFFCURVE",
"492 263 CURVE",
"542 259 LINE",
"506 150 OFFCURVE",
"462 74 OFFCURVE",
"412 30 CURVE SMOOTH",
"389 12 OFFCURVE",
"364 -4 OFFCURVE",
"335 -15 CURVE SMOOTH",
"297 -28 OFFCURVE",
"260 -35 OFFCURVE",
"221 -35 CURVE SMOOTH"
);
},
{
closed = 1;
nodes = (
"499 283 LINE",
"512 317 LINE",
"527 316 OFFCURVE",
"542 315 OFFCURVE",
"559 313 CURVE",
"556 301 OFFCURVE",
"552 289 OFFCURVE",
"548 278 CURVE"
);
},
{
closed = 1;
nodes = (
"745 260 OFFCURVE",
"681 264 OFFCURVE",
"592 274 CURVE",
"596 285 OFFCURVE",
"600 297 OFFCURVE",
"605 308 CURVE",
"703 298 OFFCURVE",
"775 292 OFFCURVE",
"819 292 CURVE SMOOTH",
"839 292 OFFCURVE",
"858 293 OFFCURVE",
"874 295 CURVE",
"868 268 LINE",
"847 262 OFFCURVE",
"819 260 OFFCURVE",
"783 260 CURVE SMOOTH"
);
},
{
closed = 1;
nodes = (
"517 334 LINE",
"532 378 OFFCURVE",
"544 420 OFFCURVE",
"555 461 CURVE SMOOTH",
"570 517 OFFCURVE",
"579 565 OFFCURVE",
"582 605 CURVE",
"614 596 OFFCURVE",
"637 590 OFFCURVE",
"653 587 CURVE",
"636 557 OFFCURVE",
"619 513 OFFCURVE",
"602 458 CURVE SMOOTH",
"564 331 LINE"
);
}
);
};
layerId = "64752FBD-EC7B-42BB-A7F3-340BB4BBD1AC";
paths = (
{
closed = 1;
nodes = (
"258 -49 OFFCURVE",
"300 -42 OFFCURVE",
"340 -27 CURVE SMOOTH",
"439 8 OFFCURVE",
"521 101 OFFCURVE",
"584 255 CURVE",
"673 246 OFFCURVE",
"737 241 OFFCURVE",
"775 241 CURVE SMOOTH",
"812 241 OFFCURVE",
"842 244 OFFCURVE",
"865 251 CURVE",
"849 164 OFFCURVE",
"835 102 OFFCURVE",
"824 67 CURVE SMOOTH",
"811 24 OFFCURVE",
"791 3 OFFCURVE",
"765 3 CURVE SMOOTH",
"755 3 OFFCURVE",
"745 7 OFFCURVE",
"736 16 CURVE SMOOTH",
"726 24 OFFCURVE",
"720 29 OFFCURVE",
"718 29 CURVE SMOOTH",
"712 29 OFFCURVE",
"709 25 OFFCURVE",
"709 19 CURVE SMOOTH",
"709 10 OFFCURVE",
"716 3 OFFCURVE",
"729 -3 CURVE SMOOTH",
"740 -8 OFFCURVE",
"749 -10 OFFCURVE",
"759 -10 CURVE SMOOTH",
"779 -10 OFFCURVE",
"799 -2 OFFCURVE",
"820 13 CURVE SMOOTH",
"841 28 OFFCURVE",
"856 46 OFFCURVE",
"864 64 CURVE SMOOTH",
"877 93 OFFCURVE",
"888 129 OFFCURVE",
"899 174 CURVE SMOOTH",
"905 200 OFFCURVE",
"914 243 OFFCURVE",
"926 304 CURVE",
"976 319 OFFCURVE",
"1009 349 OFFCURVE",
"1025 393 CURVE SMOOTH",
"1032 413 OFFCURVE",
"1036 427 OFFCURVE",
"1036 438 CURVE SMOOTH",
"1036 443 OFFCURVE",
"1034 445 OFFCURVE",
"1030 445 CURVE SMOOTH",
"1027 445 OFFCURVE",
"1025 443 OFFCURVE",
"1024 439 CURVE SMOOTH",
"1020 415 OFFCURVE",
"1014 396 OFFCURVE",
"1007 385 CURVE SMOOTH",
"992 358 OFFCURVE",
"966 339 OFFCURVE",
"930 327 CURVE",
"951 437 OFFCURVE",
"973 518 OFFCURVE",
"994 572 CURVE SMOOTH",
"1027 654 OFFCURVE",
"1072 708 OFFCURVE",
"1129 736 CURVE SMOOTH",
"1157 748 OFFCURVE",
"1185 755 OFFCURVE",
"1213 755 CURVE SMOOTH",
"1242 755 OFFCURVE",
"1269 750 OFFCURVE",
"1295 741 CURVE SMOOTH",
"1328 727 OFFCURVE",
"1345 707 OFFCURVE",
"1345 683 CURVE SMOOTH",
"1345 678 OFFCURVE",
"1340 665 OFFCURVE",
"1340 662 CURVE SMOOTH",
"1340 660 OFFCURVE",
"1341 659 OFFCURVE",
"1342 659 CURVE SMOOTH",
"1348 659 OFFCURVE",
"1351 667 OFFCURVE",
"1351 686 CURVE SMOOTH",
"1351 691 LINE",
"1350 694 OFFCURVE",
"1350 696 OFFCURVE",
"1350 697 CURVE SMOOTH",
"1350 703 OFFCURVE",
"1362 706 OFFCURVE",
"1362 709 CURVE",
"1360 713 LINE",
"1328 749 OFFCURVE",
"1285 768 OFFCURVE",
"1231 768 CURVE SMOOTH",
"1184 768 OFFCURVE",
"1139 757 OFFCURVE",
"1099 736 CURVE SMOOTH",
"1036 703 OFFCURVE",
"986 645 OFFCURVE",
"949 562 CURVE SMOOTH",
"923 504 OFFCURVE",
"900 422 OFFCURVE",
"878 316 CURVE",
"861 314 OFFCURVE",
"840 313 OFFCURVE",
"817 313 CURVE SMOOTH",
"776 313 OFFCURVE",
"707 317 OFFCURVE",
"612 326 CURVE",
"698 579 LINE",
"719 576 OFFCURVE",
"739 574 OFFCURVE",
"756 574 CURVE SMOOTH",
"784 574 OFFCURVE",
"810 579 OFFCURVE",
"832 589 CURVE SMOOTH",
"862 602 OFFCURVE",
"876 622 OFFCURVE",
"876 647 CURVE SMOOTH",
"876 673 OFFCURVE",
"866 686 OFFCURVE",
"846 686 CURVE SMOOTH",
"837 686 OFFCURVE",
"833 683 OFFCURVE",
"833 676 CURVE SMOOTH",
"833 669 OFFCURVE",
"848 657 OFFCURVE",
"848 641 CURVE SMOOTH",
"848 605 OFFCURVE",
"817 586 OFFCURVE",
"754 586 CURVE SMOOTH",
"739 586 OFFCURVE",
"722 588 OFFCURVE",
"703 591 CURVE",
"713 613 LINE SMOOTH",
"731 652 OFFCURVE",
"752 670 OFFCURVE",
"776 670 CURVE SMOOTH",
"787 670 OFFCURVE",
"798 665 OFFCURVE",
"807 655 CURVE SMOOTH",
"816 644 OFFCURVE",
"822 639 OFFCURVE",
"823 639 CURVE SMOOTH",
"830 639 OFFCURVE",
"833 643 OFFCURVE",
"833 651 CURVE SMOOTH",
"833 660 OFFCURVE",
"826 667 OFFCURVE",
"813 674 CURVE SMOOTH",
"802 679 OFFCURVE",
"791 682 OFFCURVE",
"782 682 CURVE SMOOTH",
"740 682 OFFCURVE",
"703 662 OFFCURVE",
"673 620 CURVE SMOOTH",
"668 614 OFFCURVE",
"664 607 OFFCURVE",
"661 600 CURVE",
"640 605 OFFCURVE",
"614 613 OFFCURVE",
"582 622 CURVE",
"583 630 OFFCURVE",
"583 638 OFFCURVE",
"583 646 CURVE SMOOTH",
"583 713 OFFCURVE",
"562 747 OFFCURVE",
"519 747 CURVE SMOOTH",
"496 747 OFFCURVE",
"475 736 OFFCURVE",
"459 712 CURVE",
"486 714 OFFCURVE",
"500 702 OFFCURVE",
"500 675 CURVE SMOOTH",
"500 670 OFFCURVE",
"500 666 OFFCURVE",
"499 662 CURVE",
"519 672 OFFCURVE",
"529 689 OFFCURVE",
"529 712 CURVE SMOOTH",
"529 725 OFFCURVE",
"524 733 OFFCURVE",
"513 738 CURVE",
"520 738 LINE SMOOTH",
"548 738 OFFCURVE",
"563 707 OFFCURVE",
"563 647 CURVE SMOOTH",
"563 628 LINE",
"468 658 OFFCURVE",
"398 672 OFFCURVE",
"352 672 CURVE SMOOTH",
"248 672 OFFCURVE",
"178 639 OFFCURVE",
"141 573 CURVE SMOOTH",
"129 550 OFFCURVE",
"123 527 OFFCURVE",
"123 502 CURVE SMOOTH",
"123 459 OFFCURVE",
"140 422 OFFCURVE",
"173 396 CURVE SMOOTH",
"203 372 OFFCURVE",
"241 360 OFFCURVE",
"287 360 CURVE SMOOTH",
"327 360 OFFCURVE",
"363 372 OFFCURVE",
"395 396 CURVE SMOOTH",
"431 422 OFFCURVE",
"450 456 OFFCURVE",
"450 494 CURVE SMOOTH",
"450 520 OFFCURVE",
"438 542 OFFCURVE",
"416 558 CURVE SMOOTH",
"393 575 OFFCURVE",
"369 582 OFFCURVE",
"341 582 CURVE SMOOTH",
"318 582 OFFCURVE",
"298 578 OFFCURVE",
"280 567 CURVE SMOOTH",
"260 554 OFFCURVE",
"249 538 OFFCURVE",
"249 515 CURVE SMOOTH",
"249 514 OFFCURVE",
"250 512 OFFCURVE",
"251 511 CURVE",
"254 512 OFFCURVE",
"256 516 OFFCURVE",
"257 522 CURVE SMOOTH",
"258 531 OFFCURVE",
"260 537 OFFCURVE",
"261 540 CURVE SMOOTH",
"270 560 OFFCURVE",
"298 571 OFFCURVE",
"341 571 CURVE SMOOTH",
"366 571 OFFCURVE",
"387 564 OFFCURVE",
"408 549 CURVE SMOOTH",
"428 535 OFFCURVE",
"439 516 OFFCURVE",
"439 494 CURVE SMOOTH",
"439 459 OFFCURVE",
"422 428 OFFCURVE",
"388 404 CURVE SMOOTH",
"357 382 OFFCURVE",
"323 372 OFFCURVE",
"287 372 CURVE SMOOTH",
"249 372 OFFCURVE",
"216 381 OFFCURVE",
"189 398 CURVE SMOOTH",
"159 419 OFFCURVE",
"143 447 OFFCURVE",
"143 483 CURVE SMOOTH",
"143 505 OFFCURVE",
"150 527 OFFCURVE",
"163 547 CURVE SMOOTH",
"201 609 OFFCURVE",
"271 639 OFFCURVE",
"375 639 CURVE SMOOTH",
"421 639 OFFCURVE",
"483 629 OFFCURVE",
"562 610 CURVE",
"557 546 OFFCURVE",
"540 457 OFFCURVE",
"501 335 CURVE",
"480 336 OFFCURVE",
"460 337 OFFCURVE",
"441 337 CURVE SMOOTH",
"406 337 OFFCURVE",
"374 335 OFFCURVE",
"344 331 CURVE SMOOTH",
"185 312 OFFCURVE",
"81 265 OFFCURVE",
"31 190 CURVE SMOOTH",
"14 165 OFFCURVE",
"5 139 OFFCURVE",
"5 110 CURVE SMOOTH",
"5 60 OFFCURVE",
"28 20 OFFCURVE",
"75 -10 CURVE SMOOTH",
"116 -36 OFFCURVE",
"163 -49 OFFCURVE",
"216 -49 CURVE SMOOTH"
);
},
{
closed = 1;
nodes = (
"177 -35 OFFCURVE",
"140 -23 OFFCURVE",
"109 -1 CURVE SMOOTH",
"75 24 OFFCURVE",
"59 59 OFFCURVE",
"59 101 CURVE SMOOTH",
"59 129 OFFCURVE",
"66 155 OFFCURVE",
"81 181 CURVE SMOOTH",
"127 261 OFFCURVE",
"215 305 OFFCURVE",
"345 318 CURVE SMOOTH",
"368 321 OFFCURVE",
"391 322 OFFCURVE",
"418 322 CURVE SMOOTH",
"442 322 OFFCURVE",
"467 321 OFFCURVE",
"496 319 CURVE",
"484 284 LINE",
"465 285 OFFCURVE",
"448 285 OFFCURVE",
"431 285 CURVE SMOOTH",
"357 285 OFFCURVE",
"302 272 OFFCURVE",
"266 246 CURVE SMOOTH",
"248 232 OFFCURVE",
"239 219 OFFCURVE",
"239 204 CURVE SMOOTH",
"239 185 OFFCURVE",
"245 173 OFFCURVE",
"257 164 CURVE",
"283 186 OFFCURVE",
"296 200 OFFCURVE",
"294 204 CURVE",
"283 203 OFFCURVE",
"275 214 OFFCURVE",
"269 234 CURVE",
"302 255 OFFCURVE",
"354 265 OFFCURVE",
"424 265 CURVE SMOOTH",
"441 265 OFFCURVE",
"458 265 OFFCURVE",
"476 264 CURVE",
"424 120 OFFCURVE",
"376 36 OFFCURVE",
"329 12 CURVE SMOOTH",
"315 5 OFFCURVE",
"308 0 OFFCURVE",
"308 -3 CURVE SMOOTH",
"308 -4 OFFCURVE",
"310 -5 OFFCURVE",
"314 -5 CURVE SMOOTH",
"320 -5 OFFCURVE",
"327 -3 OFFCURVE",
"335 0 CURVE SMOOTH",
"379 20 OFFCURVE",
"430 108 OFFCURVE",
"492 263 CURVE",
"542 259 LINE",
"506 150 OFFCURVE",
"462 74 OFFCURVE",
"412 30 CURVE SMOOTH",
"389 12 OFFCURVE",
"364 -4 OFFCURVE",
"335 -15 CURVE SMOOTH",
"297 -28 OFFCURVE",
"260 -35 OFFCURVE",
"221 -35 CURVE SMOOTH"
);
},
{
closed = 1;
nodes = (
"499 283 LINE",
"512 317 LINE",
"527 316 OFFCURVE",
"542 315 OFFCURVE",
"559 313 CURVE",
"556 301 OFFCURVE",
"552 289 OFFCURVE",
"548 278 CURVE"
);
},
{
closed = 1;
nodes = (
"745 260 OFFCURVE",
"681 264 OFFCURVE",
"592 274 CURVE",
"596 285 OFFCURVE",
"600 297 OFFCURVE",
"605 308 CURVE",
"703 298 OFFCURVE",
"775 292 OFFCURVE",
"819 292 CURVE SMOOTH",
"839 292 OFFCURVE",
"858 293 OFFCURVE",
"874 295 CURVE",
"868 268 LINE",
"847 262 OFFCURVE",
"819 260 OFFCURVE",
"783 260 CURVE SMOOTH"
);
},
{
closed = 1;
nodes = (
"517 334 LINE",
"532 378 OFFCURVE",
"544 420 OFFCURVE",
"555 461 CURVE SMOOTH",
"570 517 OFFCURVE",
"579 565 OFFCURVE",
"582 605 CURVE",
"614 596 OFFCURVE",
"637 590 OFFCURVE",
"653 587 CURVE",
"636 557 OFFCURVE",
"619 513 OFFCURVE",
"602 458 CURVE SMOOTH",
"564 331 LINE"
);
}
);
width = 951;
}
);
leftKerningGroup = H;
note = H;
rightKerningGroup = H;
unicode = 0048;
},
{
color = 3;
glyphname = I;
lastChange = "2022-02-14 21:32:33 +0000";
layers = (
{
anchors = (
{
name = bottom;
position = "{219, 0}";
},
{
name = ogonek;
position = "{427, 10}";
},
{
name = top;
position = "{439, 771}";
}
);
background = {
paths = (
{
closed = 1;
nodes = (
"64 -162 OFFCURVE",
"77 -153 OFFCURVE",
"98 -137 CURVE SMOOTH",
"118 -120 OFFCURVE",
"144 -66 OFFCURVE",
"176 26 CURVE",
"203 22 LINE",
"199 16 OFFCURVE",
"195 9 OFFCURVE",
"190 2 CURVE",
"192 0 LINE",
"232 19 LINE",
"320 5 OFFCURVE",
"372 -2 OFFCURVE",
"387 -2 CURVE SMOOTH",
"418 -2 OFFCURVE",
"444 6 OFFCURVE",
"466 20 CURVE SMOOTH",
"502 45 OFFCURVE",
"520 61 OFFCURVE",
"520 70 CURVE SMOOTH",
"520 71 OFFCURVE",
"519 72 OFFCURVE",
"517 72 CURVE",
"489 58 OFFCURVE",
"456 50 OFFCURVE",
"416 50 CURVE SMOOTH",
"383 50 OFFCURVE",
"338 56 OFFCURVE",
"279 66 CURVE",
"296 103 OFFCURVE",
"318 190 OFFCURVE",
"346 326 CURVE SMOOTH",
"378 475 OFFCURVE",
"401 575 OFFCURVE",
"418 624 CURVE",
"456 615 OFFCURVE",
"489 610 OFFCURVE",
"517 610 CURVE SMOOTH",
"576 610 OFFCURVE",
"617 638 OFFCURVE",
"641 694 CURVE SMOOTH",
"643 698 OFFCURVE",
"644 701 OFFCURVE",
"644 703 CURVE SMOOTH",
"644 704 OFFCURVE",
"643 705 OFFCURVE",
"642 706 CURVE",
"639 706 OFFCURVE",
"635 703 OFFCURVE",
"630 694 CURVE SMOOTH",
"616 669 OFFCURVE",
"586 658 OFFCURVE",
"542 658 CURVE SMOOTH",
"510 658 OFFCURVE",
"475 663 OFFCURVE",
"436 671 CURVE",
"442 686 OFFCURVE",
"448 698 OFFCURVE",
"455 706 CURVE",
"448 706 OFFCURVE",
"441 705 OFFCURVE",
"434 703 CURVE SMOOTH",
"409 697 OFFCURVE",
"393 691 OFFCURVE",
"386 685 CURVE",
"340 700 LINE",
"358 773 OFFCURVE",
"374 819 OFFCURVE",
"386 835 CURVE",
"374 833 OFFCURVE",
"364 828 OFFCURVE",
"357 821 CURVE SMOOTH",
"353 817 OFFCURVE",
"346 807 OFFCURVE",
"338 792 CURVE",
"319 705 LINE",
"302 709 OFFCURVE",
"289 711 OFFCURVE",
"276 711 CURVE SMOOTH",
"241 711 OFFCURVE",
"205 692 OFFCURVE",
"167 652 CURVE SMOOTH",
"130 612 OFFCURVE",
"111 575 OFFCURVE",
"111 539 CURVE SMOOTH",
"111 525 OFFCURVE",
"114 514 OFFCURVE",
"121 505 CURVE",
"147 518 OFFCURVE",
"160 530 OFFCURVE",
"160 541 CURVE",
"160 541 OFFCURVE",
"157 546 OFFCURVE",
"151 559 CURVE SMOOTH",
"146 572 OFFCURVE",
"143 582 OFFCURVE",
"143 591 CURVE SMOOTH",
"143 616 OFFCURVE",
"157 634 OFFCURVE",
"184 647 CURVE SMOOTH",
"206 657 OFFCURVE",
"230 662 OFFCURVE",
"258 662 CURVE SMOOTH",
"274 662 OFFCURVE",
"291 660 OFFCURVE",
"308 656 CURVE",
"268 469 OFFCURVE",
"235 327 OFFCURVE",
"209 230 CURVE",
"214 261 OFFCURVE",
"217 287 OFFCURVE",
"217 309 CURVE SMOOTH",
"217 376 OFFCURVE",
"195 409 OFFCURVE",
"151 409 CURVE SMOOTH",
"118 409 OFFCURVE",
"93 392 OFFCURVE",
"76 365 CURVE",
"80 366 OFFCURVE",
"84 366 OFFCURVE",
"87 366 CURVE SMOOTH",
"111 366 OFFCURVE",
"122 345 OFFCURVE",
"121 318 CURVE",
"138 329 OFFCURVE",
"147 344 OFFCURVE",
"147 363 CURVE SMOOTH",
"147 381 OFFCURVE",
"141 390 OFFCURVE",
"128 394 CURVE",
"134 396 OFFCURVE",
"138 397 OFFCURVE",
"140 397 CURVE SMOOTH",
"178 398 OFFCURVE",
"197 365 OFFCURVE",
"197 299 CURVE SMOOTH",
"197 241 OFFCURVE",
"184 170 OFFCURVE",
"160 85 CURVE",
"147 86 OFFCURVE",
"135 87 OFFCURVE",
"123 87 CURVE SMOOTH",
"85 87 OFFCURVE",
"55 80 OFFCURVE",
"32 65 CURVE SMOOTH",
"23 60 OFFCURVE",
"0 38 OFFCURVE",
"-40 0 CURVE",
"-38 -2 LINE",
"-6 20 OFFCURVE",
"40 31 OFFCURVE",
"101 31 CURVE SMOOTH",
"114 31 OFFCURVE",
"129 30 OFFCURVE",
"143 29 CURVE",
"143 28 OFFCURVE",
"143 28 OFFCURVE",
"144 28 CURVE SMOOTH",
"145 28 OFFCURVE",
"145 28 OFFCURVE",
"146 29 CURVE",
"147 29 LINE",
"123 -40 OFFCURVE",
"102 -91 OFFCURVE",
"88 -121 CURVE SMOOTH",
"78 -141 OFFCURVE",
"65 -152 OFFCURVE",
"49 -157 CURVE SMOOTH",
"44 -158 OFFCURVE",
"43 -159 OFFCURVE",
"46 -162 CURVE SMOOTH",
"49 -164 OFFCURVE",
"53 -164 OFFCURVE",
"59 -163 CURVE SMOOTH"
);
},
{
closed = 1;
nodes = (
"217 78 OFFCURVE",
"204 80 OFFCURVE",
"193 81 CURVE",
"220 166 OFFCURVE",
"239 239 OFFCURVE",
"252 301 CURVE SMOOTH",
"292 491 OFFCURVE",
"316 608 OFFCURVE",
"327 651 CURVE",
"365 640 LINE",
"352 563 LINE SMOOTH",
"315 343 OFFCURVE",
"274 181 OFFCURVE",
"229 75 CURVE"
);
}
);
};
layerId = "64752FBD-EC7B-42BB-A7F3-340BB4BBD1AC";
paths = (
{
closed = 1;
nodes = (
"64 -162 OFFCURVE",
"77 -153 OFFCURVE",
"98 -137 CURVE SMOOTH",
"118 -120 OFFCURVE",
"144 -66 OFFCURVE",
"176 26 CURVE",
"203 22 LINE",
"199 16 OFFCURVE",
"195 9 OFFCURVE",
"190 2 CURVE",
"192 0 LINE",
"232 19 LINE",
"320 5 OFFCURVE",
"372 -2 OFFCURVE",
"387 -2 CURVE SMOOTH",
"418 -2 OFFCURVE",
"444 6 OFFCURVE",
"466 20 CURVE SMOOTH",
"502 45 OFFCURVE",
"520 61 OFFCURVE",
"520 70 CURVE SMOOTH",
"520 71 OFFCURVE",
"519 72 OFFCURVE",
"517 72 CURVE",
"489 58 OFFCURVE",
"456 50 OFFCURVE",
"416 50 CURVE SMOOTH",
"383 50 OFFCURVE",
"338 56 OFFCURVE",
"279 66 CURVE",
"296 103 OFFCURVE",
"318 190 OFFCURVE",
"346 326 CURVE SMOOTH",
"378 475 OFFCURVE",
"401 575 OFFCURVE",
"418 624 CURVE",
"456 615 OFFCURVE",
"489 610 OFFCURVE",
"517 610 CURVE SMOOTH",
"576 610 OFFCURVE",
"617 638 OFFCURVE",
"641 694 CURVE SMOOTH",
"643 698 OFFCURVE",
"644 701 OFFCURVE",
"644 703 CURVE SMOOTH",
"644 704 OFFCURVE",
"643 705 OFFCURVE",
"642 706 CURVE",
"639 706 OFFCURVE",
"635 703 OFFCURVE",
"630 694 CURVE SMOOTH",
"616 669 OFFCURVE",
"586 658 OFFCURVE",
"542 658 CURVE SMOOTH",
"510 658 OFFCURVE",
"475 663 OFFCURVE",
"436 671 CURVE",
"442 686 OFFCURVE",
"448 698 OFFCURVE",
"455 706 CURVE",
"448 706 OFFCURVE",
"441 705 OFFCURVE",
"434 703 CURVE SMOOTH",
"409 697 OFFCURVE",
"393 691 OFFCURVE",
"386 685 CURVE",
"340 700 LINE",
"358 773 OFFCURVE",
"374 819 OFFCURVE",
"386 835 CURVE",
"374 833 OFFCURVE",
"364 828 OFFCURVE",
"357 821 CURVE SMOOTH",
"353 817 OFFCURVE",
"346 807 OFFCURVE",
"338 792 CURVE",
"319 705 LINE",
"302 709 OFFCURVE",
"289 711 OFFCURVE",
"276 711 CURVE SMOOTH",
"241 711 OFFCURVE",
"205 692 OFFCURVE",
"167 652 CURVE SMOOTH",
"130 612 OFFCURVE",
"111 575 OFFCURVE",
"111 539 CURVE SMOOTH",
"111 525 OFFCURVE",
"114 514 OFFCURVE",
"121 505 CURVE",
"147 518 OFFCURVE",
"160 530 OFFCURVE",
"160 541 CURVE",
"151 559 LINE SMOOTH",
"145 571 OFFCURVE",
"143 582 OFFCURVE",
"143 591 CURVE SMOOTH",
"143 616 OFFCURVE",
"157 634 OFFCURVE",
"184 647 CURVE SMOOTH",
"206 657 OFFCURVE",
"230 662 OFFCURVE",
"258 662 CURVE SMOOTH",
"274 662 OFFCURVE",
"291 660 OFFCURVE",
"308 656 CURVE",
"268 469 OFFCURVE",
"235 327 OFFCURVE",
"209 230 CURVE",
"214 261 OFFCURVE",
"217 287 OFFCURVE",
"217 309 CURVE SMOOTH",
"217 376 OFFCURVE",
"195 409 OFFCURVE",
"151 409 CURVE SMOOTH",
"118 409 OFFCURVE",
"93 392 OFFCURVE",
"76 365 CURVE",
"80 366 OFFCURVE",
"84 366 OFFCURVE",
"87 366 CURVE SMOOTH",
"111 366 OFFCURVE",
"122 345 OFFCURVE",
"121 318 CURVE",
"138 329 OFFCURVE",
"147 344 OFFCURVE",
"147 363 CURVE SMOOTH",
"147 381 OFFCURVE",
"141 390 OFFCURVE",
"128 394 CURVE",
"134 396 OFFCURVE",
"138 397 OFFCURVE",
"140 397 CURVE SMOOTH",
"178 398 OFFCURVE",
"197 365 OFFCURVE",
"197 299 CURVE SMOOTH",
"197 241 OFFCURVE",
"184 170 OFFCURVE",
"160 85 CURVE",
"147 86 OFFCURVE",
"135 87 OFFCURVE",
"123 87 CURVE SMOOTH",
"85 87 OFFCURVE",
"55 80 OFFCURVE",
"32 65 CURVE SMOOTH",
"23 60 OFFCURVE",
"0 38 OFFCURVE",
"-40 0 CURVE",
"-38 -2 LINE",
"-6 20 OFFCURVE",
"40 31 OFFCURVE",
"101 31 CURVE SMOOTH",
"114 31 OFFCURVE",
"129 30 OFFCURVE",
"143 29 CURVE",
"143 28 OFFCURVE",
"143 28 OFFCURVE",
"144 28 CURVE SMOOTH",
"145 28 OFFCURVE",
"145 28 OFFCURVE",
"146 29 CURVE",
"147 29 LINE",
"123 -40 OFFCURVE",
"102 -91 OFFCURVE",
"88 -121 CURVE SMOOTH",
"78 -141 OFFCURVE",
"65 -152 OFFCURVE",
"49 -157 CURVE SMOOTH",
"44 -158 OFFCURVE",
"43 -159 OFFCURVE",
"46 -162 CURVE SMOOTH",
"49 -164 OFFCURVE",
"53 -164 OFFCURVE",
"59 -163 CURVE SMOOTH"
);
},
{
closed = 1;
nodes = (
"217 78 OFFCURVE",
"204 80 OFFCURVE",
"193 81 CURVE",
"220 166 OFFCURVE",
"239 239 OFFCURVE",
"252 301 CURVE SMOOTH",
"292 491 OFFCURVE",
"316 608 OFFCURVE",
"327 651 CURVE",
"365 640 LINE",
"352 563 LINE SMOOTH",
"315 343 OFFCURVE",
"274 181 OFFCURVE",
"229 75 CURVE"
);
}
);
width = 497;
}
);
leftKerningGroup = I;
note = I;
rightKerningGroup = I;
unicode = 0049;
},
{
color = 3;
glyphname = J;
lastChange = "2022-02-14 21:32:33 +0000";
layers = (
{
anchors = (
{
name = bottom;
position = "{198, -223}";
},
{
name = top;
position = "{652, 670}";
}
);
background = {
paths = (
{
closed = 1;
nodes = (
"328 -233 OFFCURVE",
"435 -166 OFFCURVE",
"521 -30 CURVE SMOOTH",
"549 16 OFFCURVE",
"579 80 OFFCURVE",
"608 161 CURVE SMOOTH",
"612 173 LINE",
"667 205 OFFCURVE",
"705 245 OFFCURVE",
"725 294 CURVE SMOOTH",
"729 303 OFFCURVE",
"731 311 OFFCURVE",
"731 318 CURVE SMOOTH",
"731 333 OFFCURVE",
"726 341 OFFCURVE",
"715 341 CURVE SMOOTH",
"708 341 OFFCURVE",
"704 338 OFFCURVE",
"704 333 CURVE SMOOTH",
"704 332 OFFCURVE",
"711 328 OFFCURVE",
"711 319 CURVE SMOOTH",
"711 312 OFFCURVE",
"709 303 OFFCURVE",
"704 292 CURVE SMOOTH",
"687 250 OFFCURVE",
"658 215 OFFCURVE",
"617 187 CURVE",
"641 258 OFFCURVE",
"671 360 OFFCURVE",
"707 496 CURVE SMOOTH",
"743 627 LINE",
"747 627 LINE SMOOTH",
"793 625 OFFCURVE",
"820 624 OFFCURVE",
"828 624 CURVE SMOOTH",
"902 624 OFFCURVE",
"945 650 OFFCURVE",
"962 700 CURVE SMOOTH",
"965 708 OFFCURVE",
"966 716 OFFCURVE",
"966 725 CURVE SMOOTH",
"966 734 OFFCURVE",
"964 744 OFFCURVE",
"959 758 CURVE SMOOTH",
"954 775 OFFCURVE",
"949 783 OFFCURVE",
"943 783 CURVE SMOOTH",
"941 783 OFFCURVE",
"940 783 OFFCURVE",
"940 780 CURVE SMOOTH",
"940 776 OFFCURVE",
"958 746 OFFCURVE",
"958 724 CURVE SMOOTH",
"958 675 OFFCURVE",
"912 651 OFFCURVE",
"820 651 CURVE SMOOTH",
"804 651 OFFCURVE",
"782 652 OFFCURVE",
"751 653 CURVE",
"771 710 OFFCURVE",
"796 740 OFFCURVE",
"828 740 CURVE SMOOTH",
"841 740 OFFCURVE",
"851 735 OFFCURVE",
"860 724 CURVE SMOOTH",
"868 714 OFFCURVE",
"874 709 OFFCURVE",
"875 709 CURVE SMOOTH",
"883 709 OFFCURVE",
"887 715 OFFCURVE",
"887 727 CURVE SMOOTH",
"887 743 OFFCURVE",
"862 755 OFFCURVE",
"845 755 CURVE SMOOTH",
"805 755 OFFCURVE",
"767 727 OFFCURVE",
"733 670 CURVE SMOOTH",
"723 654 LINE",
"707 655 OFFCURVE",
"694 655 OFFCURVE",
"683 655 CURVE SMOOTH",
"633 655 OFFCURVE",
"587 649 OFFCURVE",
"546 636 CURVE",
"532 694 OFFCURVE",
"510 737 OFFCURVE",
"482 763 CURVE",
"484 757 OFFCURVE",
"485 751 OFFCURVE",
"485 745 CURVE SMOOTH",
"485 731 OFFCURVE",
"476 712 OFFCURVE",
"459 688 CURVE",
"459 681 LINE SMOOTH",
"459 656 OFFCURVE",
"462 643 OFFCURVE",
"470 643 CURVE SMOOTH",
"473 643 OFFCURVE",
"479 651 OFFCURVE",
"488 666 CURVE SMOOTH",
"498 682 OFFCURVE",
"502 693 OFFCURVE",
"502 700 CURVE",
"493 729 LINE",
"510 704 OFFCURVE",
"524 672 OFFCURVE",
"535 632 CURVE",
"460 608 OFFCURVE",
"396 566 OFFCURVE",
"342 506 CURVE SMOOTH",
"283 441 OFFCURVE",
"254 372 OFFCURVE",
"254 298 CURVE SMOOTH",
"254 242 OFFCURVE",
"271 199 OFFCURVE",
"306 169 CURVE SMOOTH",
"340 141 OFFCURVE",
"384 126 OFFCURVE",
"440 126 CURVE SMOOTH",
"450 126 OFFCURVE",
"460 126 OFFCURVE",
"470 127 CURVE",
"387 -69 OFFCURVE",
"278 -168 OFFCURVE",
"143 -168 CURVE SMOOTH",
"84 -168 OFFCURVE",
"24 -131 OFFCURVE",
"-36 -56 CURVE SMOOTH",
"-49 -38 OFFCURVE",
"-58 -24 OFFCURVE",
"-63 -16 CURVE SMOOTH",
"-66 -12 OFFCURVE",
"-70 -10 OFFCURVE",
"-76 -10 CURVE SMOOTH",
"-99 -10 OFFCURVE",
"-109 -17 OFFCURVE",
"-109 -30 CURVE SMOOTH",
"-109 -49 OFFCURVE",
"-90 -80 OFFCURVE",
"-52 -126 CURVE SMOOTH",
"-23 -159 OFFCURVE",
"15 -185 OFFCURVE",
"61 -205 CURVE SMOOTH",
"106 -223 OFFCURVE",
"152 -233 OFFCURVE",
"198 -233 CURVE SMOOTH"
);
},
{
closed = 1;
nodes = (
"116 -218 OFFCURVE",
"44 -182 OFFCURVE",
"-24 -113 CURVE SMOOTH",
"20 -158 OFFCURVE",
"81 -181 OFFCURVE",
"156 -181 CURVE SMOOTH",
"187 -181 OFFCURVE",
"215 -176 OFFCURVE",
"239 -166 CURVE SMOOTH",
"344 -124 OFFCURVE",
"428 -25 OFFCURVE",
"490 130 CURVE",
"510 133 OFFCURVE",
"530 138 OFFCURVE",
"549 144 CURVE",
"527 79 OFFCURVE",
"503 27 OFFCURVE",
"479 -12 CURVE SMOOTH",
"393 -149 OFFCURVE",
"298 -218 OFFCURVE",
"193 -218 CURVE SMOOTH"
);
},
{
closed = 1;
nodes = (
"426 146 OFFCURVE",
"385 160 OFFCURVE",
"354 186 CURVE SMOOTH",
"320 215 OFFCURVE",
"303 254 OFFCURVE",
"303 303 CURVE SMOOTH",
"303 370 OFFCURVE",
"327 434 OFFCURVE",
"373 498 CURVE SMOOTH",
"419 561 OFFCURVE",
"473 603 OFFCURVE",
"537 623 CURVE",
"546 582 OFFCURVE",
"551 536 OFFCURVE",
"551 486 CURVE SMOOTH",
"551 436 OFFCURVE",
"546 386 OFFCURVE",
"536 337 CURVE",
"537 374 OFFCURVE",
"526 392 OFFCURVE",
"504 392 CURVE SMOOTH",
"484 392 OFFCURVE",
"464 371 OFFCURVE",
"465 351 CURVE SMOOTH",
"465 346 LINE",
"470 348 OFFCURVE",
"474 349 OFFCURVE",
"479 349 CURVE SMOOTH",
"504 349 OFFCURVE",
"521 336 OFFCURVE",
"530 307 CURVE",
"516 252 OFFCURVE",
"499 198 OFFCURVE",
"478 146 CURVE",
"476 146 LINE SMOOTH"
);
},
{
closed = 1;
nodes = (
"542 266 OFFCURVE",
"564 378 OFFCURVE",
"564 482 CURVE SMOOTH",
"564 533 OFFCURVE",
"559 581 OFFCURVE",
"548 626 CURVE",
"572 633 OFFCURVE",
"598 636 OFFCURVE",
"626 636 CURVE SMOOTH",
"639 636 OFFCURVE",
"667 634 OFFCURVE",
"711 630 CURVE",
"697 600 OFFCURVE",
"679 555 OFFCURVE",
"660 496 CURVE SMOOTH",
"612 346 OFFCURVE",
"577 233 OFFCURVE",
"554 158 CURVE",
"536 152 OFFCURVE",
"516 148 OFFCURVE",
"497 146 CURVE"
);
}
);
};
layerId = "64752FBD-EC7B-42BB-A7F3-340BB4BBD1AC";
paths = (
{
closed = 1;
nodes = (
"328 -233 OFFCURVE",
"435 -166 OFFCURVE",
"521 -30 CURVE SMOOTH",
"549 16 OFFCURVE",
"581 79 OFFCURVE",
"608 161 CURVE SMOOTH",
"612 173 LINE",
"667 205 OFFCURVE",
"705 245 OFFCURVE",
"725 294 CURVE SMOOTH",
"729 303 OFFCURVE",
"731 311 OFFCURVE",
"731 318 CURVE SMOOTH",
"731 333 OFFCURVE",
"726 341 OFFCURVE",
"715 341 CURVE SMOOTH",
"708 341 OFFCURVE",
"704 338 OFFCURVE",
"704 333 CURVE SMOOTH",
"704 332 OFFCURVE",
"711 328 OFFCURVE",
"711 319 CURVE SMOOTH",
"711 312 OFFCURVE",
"709 303 OFFCURVE",
"704 292 CURVE SMOOTH",
"687 250 OFFCURVE",
"658 215 OFFCURVE",
"617 187 CURVE",
"641 258 OFFCURVE",
"670 360 OFFCURVE",
"707 496 CURVE SMOOTH",
"743 627 LINE",
"747 627 LINE SMOOTH",
"793 627 OFFCURVE",
"820 624 OFFCURVE",
"828 624 CURVE SMOOTH",
"902 624 OFFCURVE",
"945 650 OFFCURVE",
"962 700 CURVE SMOOTH",
"965 708 OFFCURVE",
"966 716 OFFCURVE",
"966 725 CURVE SMOOTH",
"966 734 OFFCURVE",
"964 744 OFFCURVE",
"959 758 CURVE SMOOTH",
"954 775 OFFCURVE",
"949 783 OFFCURVE",
"943 783 CURVE SMOOTH",
"941 783 OFFCURVE",
"940 783 OFFCURVE",
"940 780 CURVE SMOOTH",
"940 776 OFFCURVE",
"958 746 OFFCURVE",
"958 724 CURVE SMOOTH",
"958 675 OFFCURVE",
"912 651 OFFCURVE",
"820 651 CURVE SMOOTH",
"804 651 OFFCURVE",
"782 652 OFFCURVE",
"751 653 CURVE",
"771 710 OFFCURVE",
"796 740 OFFCURVE",
"828 740 CURVE SMOOTH",
"841 740 OFFCURVE",
"851 735 OFFCURVE",
"860 724 CURVE SMOOTH",
"868 714 OFFCURVE",
"874 709 OFFCURVE",
"875 709 CURVE SMOOTH",
"883 709 OFFCURVE",
"887 715 OFFCURVE",
"887 727 CURVE SMOOTH",
"887 743 OFFCURVE",
"862 755 OFFCURVE",
"845 755 CURVE SMOOTH",
"805 755 OFFCURVE",
"768 726 OFFCURVE",
"733 670 CURVE SMOOTH",
"723 654 LINE",
"707 655 OFFCURVE",
"694 655 OFFCURVE",
"683 655 CURVE SMOOTH",
"633 655 OFFCURVE",
"587 649 OFFCURVE",
"546 636 CURVE",
"532 694 OFFCURVE",
"510 737 OFFCURVE",
"482 763 CURVE",
"484 757 OFFCURVE",
"485 751 OFFCURVE",
"485 745 CURVE SMOOTH",
"485 731 OFFCURVE",
"476 712 OFFCURVE",
"459 688 CURVE",
"459 681 LINE SMOOTH",
"459 656 OFFCURVE",
"462 643 OFFCURVE",
"470 643 CURVE SMOOTH",
"473 643 OFFCURVE",
"479 651 OFFCURVE",
"488 666 CURVE SMOOTH",
"498 682 OFFCURVE",
"502 693 OFFCURVE",
"502 700 CURVE",
"493 729 LINE",
"510 704 OFFCURVE",
"524 672 OFFCURVE",
"535 632 CURVE",
"460 608 OFFCURVE",
"396 566 OFFCURVE",
"342 506 CURVE SMOOTH",
"283 441 OFFCURVE",
"254 372 OFFCURVE",
"254 298 CURVE SMOOTH",
"254 242 OFFCURVE",
"271 199 OFFCURVE",
"306 169 CURVE SMOOTH",
"340 141 OFFCURVE",
"384 126 OFFCURVE",
"440 126 CURVE SMOOTH",
"450 126 OFFCURVE",
"460 126 OFFCURVE",
"470 127 CURVE",
"387 -69 OFFCURVE",
"278 -168 OFFCURVE",
"143 -168 CURVE SMOOTH",
"84 -168 OFFCURVE",
"24 -131 OFFCURVE",
"-36 -56 CURVE SMOOTH",
"-49 -38 OFFCURVE",
"-58 -24 OFFCURVE",
"-63 -16 CURVE SMOOTH",
"-66 -12 OFFCURVE",
"-70 -10 OFFCURVE",
"-76 -10 CURVE SMOOTH",
"-99 -10 OFFCURVE",
"-109 -17 OFFCURVE",
"-109 -30 CURVE SMOOTH",
"-109 -49 OFFCURVE",
"-90 -80 OFFCURVE",
"-52 -126 CURVE SMOOTH",
"-23 -159 OFFCURVE",
"15 -185 OFFCURVE",
"61 -205 CURVE SMOOTH",
"106 -223 OFFCURVE",
"152 -233 OFFCURVE",
"198 -233 CURVE SMOOTH"
);
},
{
closed = 1;
nodes = (
"116 -218 OFFCURVE",
"44 -182 OFFCURVE",
"-24 -113 CURVE SMOOTH",
"20 -158 OFFCURVE",
"81 -181 OFFCURVE",
"156 -181 CURVE SMOOTH",
"187 -181 OFFCURVE",
"215 -176 OFFCURVE",
"239 -166 CURVE SMOOTH",
"344 -124 OFFCURVE",
"428 -25 OFFCURVE",
"490 130 CURVE",
"510 133 OFFCURVE",
"530 138 OFFCURVE",
"549 144 CURVE",
"527 79 OFFCURVE",
"503 27 OFFCURVE",
"479 -12 CURVE SMOOTH",
"393 -149 OFFCURVE",
"298 -218 OFFCURVE",
"193 -218 CURVE SMOOTH"
);
},
{
closed = 1;
nodes = (
"426 146 OFFCURVE",
"385 160 OFFCURVE",
"354 186 CURVE SMOOTH",
"320 215 OFFCURVE",
"303 254 OFFCURVE",
"303 303 CURVE SMOOTH",
"303 370 OFFCURVE",
"327 434 OFFCURVE",
"373 498 CURVE SMOOTH",
"419 561 OFFCURVE",
"473 603 OFFCURVE",
"537 623 CURVE",
"546 582 OFFCURVE",
"551 536 OFFCURVE",
"551 486 CURVE SMOOTH",
"551 436 OFFCURVE",
"546 386 OFFCURVE",
"536 337 CURVE",
"537 374 OFFCURVE",
"526 392 OFFCURVE",
"504 392 CURVE SMOOTH",
"484 392 OFFCURVE",
"465 371 OFFCURVE",
"465 351 CURVE SMOOTH",
"465 346 LINE",
"470 348 OFFCURVE",
"474 349 OFFCURVE",
"479 349 CURVE SMOOTH",
"504 349 OFFCURVE",
"521 336 OFFCURVE",
"530 307 CURVE",
"516 252 OFFCURVE",
"499 198 OFFCURVE",
"478 146 CURVE",
"476 146 LINE SMOOTH"
);
},
{
closed = 1;
nodes = (
"542 266 OFFCURVE",
"564 378 OFFCURVE",
"564 482 CURVE SMOOTH",
"564 533 OFFCURVE",
"559 581 OFFCURVE",
"548 626 CURVE",
"572 633 OFFCURVE",
"598 636 OFFCURVE",
"626 636 CURVE SMOOTH",
"639 636 OFFCURVE",
"667 634 OFFCURVE",
"711 630 CURVE",
"697 600 OFFCURVE",
"679 555 OFFCURVE",
"660 496 CURVE SMOOTH",
"612 346 OFFCURVE",
"577 233 OFFCURVE",
"554 158 CURVE",
"536 152 OFFCURVE",
"516 148 OFFCURVE",
"497 146 CURVE"
);
}
);
width = 684;
}
);
leftKerningGroup = J;
note = J;
rightKerningGroup = J;
unicode = 004A;
},
{
color = 3;
glyphname = K;
lastChange = "2022-02-14 21:32:36 +0000";
layers = (
{
anchors = (
{
name = bottom;
position = "{524, 0}";
},
{
name = top;
position = "{864, 670}";
}
);
background = {
paths = (
{
closed = 1;
nodes = (
"922 -100 OFFCURVE",
"924 -99 OFFCURVE",
"924 -94 CURVE SMOOTH",
"924 -87 OFFCURVE",
"919 -72 OFFCURVE",
"919 -65 CURVE SMOOTH",
"919 -55 OFFCURVE",
"926 -50 OFFCURVE",
"940 -50 CURVE SMOOTH",
"952 -50 LINE SMOOTH",
"1008 -50 OFFCURVE",
"1035 -26 OFFCURVE",
"1035 21 CURVE SMOOTH",
"1035 44 OFFCURVE",
"1032 56 OFFCURVE",
"1025 56 CURVE SMOOTH",
"1024 56 OFFCURVE",
"1023 54 OFFCURVE",
"1023 49 CURVE SMOOTH",
"1023 48 OFFCURVE",
"1023 46 OFFCURVE",
"1024 43 CURVE",
"1024 36 LINE SMOOTH",
"1024 -13 OFFCURVE",
"997 -37 OFFCURVE",
"944 -37 CURVE SMOOTH",
"885 -37 OFFCURVE",
"826 -8 OFFCURVE",
"767 50 CURVE SMOOTH",
"712 102 OFFCURVE",
"672 163 OFFCURVE",
"648 232 CURVE",
"702 270 OFFCURVE",
"766 338 OFFCURVE",
"840 434 CURVE SMOOTH",
"1013 657 LINE",
"1074 727 OFFCURVE",
"1128 762 OFFCURVE",
"1172 762 CURVE SMOOTH",
"1211 762 OFFCURVE",
"1238 739 OFFCURVE",
"1253 693 CURVE SMOOTH",
"1256 682 OFFCURVE",
"1260 677 OFFCURVE",
"1265 677 CURVE SMOOTH",
"1273 677 OFFCURVE",
"1278 685 OFFCURVE",
"1278 702 CURVE SMOOTH",
"1278 705 OFFCURVE",
"1275 712 OFFCURVE",
"1270 723 CURVE SMOOTH",
"1254 756 OFFCURVE",
"1224 773 OFFCURVE",
"1181 773 CURVE SMOOTH",
"1106 773 OFFCURVE",
"1021 716 OFFCURVE",
"924 604 CURVE",
"721 342 LINE",
"691 308 OFFCURVE",
"663 280 OFFCURVE",
"640 260 CURVE",
"633 284 OFFCURVE",
"630 306 OFFCURVE",
"630 327 CURVE SMOOTH",
"630 357 OFFCURVE",
"637 382 OFFCURVE",
"652 402 CURVE",
"651 408 OFFCURVE",
"648 411 OFFCURVE",
"644 411 CURVE SMOOTH",
"637 411 OFFCURVE",
"626 403 OFFCURVE",
"614 386 CURVE SMOOTH",
"602 373 OFFCURVE",
"594 361 OFFCURVE",
"591 352 CURVE SMOOTH",
"586 340 OFFCURVE",
"584 324 OFFCURVE",
"584 305 CURVE SMOOTH",
"584 280 OFFCURVE",
"588 253 OFFCURVE",
"596 224 CURVE",
"565 203 OFFCURVE",
"539 192 OFFCURVE",
"516 193 CURVE SMOOTH",
"515 193 LINE",
"542 249 OFFCURVE",
"568 317 OFFCURVE",
"594 400 CURVE SMOOTH",
"651 590 LINE SMOOTH",
"664 637 OFFCURVE",
"678 678 OFFCURVE",
"693 714 CURVE SMOOTH",
"697 723 OFFCURVE",
"699 729 OFFCURVE",
"699 734 CURVE SMOOTH",
"699 743 OFFCURVE",
"694 747 OFFCURVE",
"684 747 CURVE SMOOTH",
"665 747 OFFCURVE",
"651 739 OFFCURVE",
"640 721 CURVE SMOOTH",
"633 710 OFFCURVE",
"625 688 OFFCURVE",
"617 653 CURVE",
"579 664 OFFCURVE",
"537 673 OFFCURVE",
"493 678 CURVE",
"480 721 OFFCURVE",
"462 753 OFFCURVE",
"438 774 CURVE SMOOTH",
"433 779 OFFCURVE",
"428 781 OFFCURVE",
"423 781 CURVE SMOOTH",
"418 781 OFFCURVE",
"415 778 OFFCURVE",
"415 773 CURVE SMOOTH",
"415 770 OFFCURVE",
"418 765 OFFCURVE",
"422 759 CURVE SMOOTH",
"443 739 OFFCURVE",
"459 712 OFFCURVE",
"469 681 CURVE",
"438 684 OFFCURVE",
"406 685 OFFCURVE",
"373 685 CURVE SMOOTH",
"144 685 OFFCURVE",
"30 642 OFFCURVE",
"30 556 CURVE SMOOTH",
"30 530 OFFCURVE",
"48 502 OFFCURVE",
"82 471 CURVE SMOOTH",
"116 441 OFFCURVE",
"145 426 OFFCURVE",
"170 426 CURVE",
"177 427 OFFCURVE",
"180 428 OFFCURVE",
"180 430 CURVE",
"178 432 LINE",
"102 462 OFFCURVE",
"65 497 OFFCURVE",
"65 539 CURVE SMOOTH",
"65 610 OFFCURVE",
"164 646 OFFCURVE",
"360 646 CURVE SMOOTH",
"403 646 OFFCURVE",
"443 644 OFFCURVE",
"481 639 CURVE",
"488 606 OFFCURVE",
"492 566 OFFCURVE",
"492 520 CURVE SMOOTH",
"492 490 OFFCURVE",
"490 457 OFFCURVE",
"485 422 CURVE",
"482 446 OFFCURVE",
"471 458 OFFCURVE",
"455 458 CURVE SMOOTH",
"435 458 OFFCURVE",
"416 437 OFFCURVE",
"417 417 CURVE SMOOTH",
"417 413 LINE",
"421 414 OFFCURVE",
"424 415 OFFCURVE",
"429 415 CURVE SMOOTH",
"454 415 OFFCURVE",
"469 401 OFFCURVE",
"478 375 CURVE",
"471 328 OFFCURVE",
"461 283 OFFCURVE",
"447 240 CURVE",
"444 242 OFFCURVE",
"442 243 OFFCURVE",
"440 243 CURVE SMOOTH",
"427 243 OFFCURVE",
"422 234 OFFCURVE",
"422 217 CURVE SMOOTH",
"422 211 OFFCURVE",
"425 205 OFFCURVE",
"432 198 CURVE",
"394 97 OFFCURVE",
"346 27 OFFCURVE",
"287 -9 CURVE",
"306 14 LINE",
"307 18 OFFCURVE",
"308 21 OFFCURVE",
"308 26 CURVE SMOOTH",
"308 31 OFFCURVE",
"304 48 OFFCURVE",
"298 77 CURVE",
"296 79 LINE",
"289 78 OFFCURVE",
"281 71 OFFCURVE",
"271 60 CURVE SMOOTH",
"262 49 OFFCURVE",
"257 40 OFFCURVE",
"255 33 CURVE",
"258 26 OFFCURVE",
"274 3 OFFCURVE",
"274 -9 CURVE SMOOTH",
"274 -16 OFFCURVE",
"271 -21 OFFCURVE",
"265 -28 CURVE",
"335 0 OFFCURVE",
"393 73 OFFCURVE",
"441 191 CURVE",
"450 185 OFFCURVE",
"462 181 OFFCURVE",
"479 180 CURVE",
"430 77 OFFCURVE",
"373 10 OFFCURVE",
"306 -21 CURVE SMOOTH",
"277 -36 OFFCURVE",
"246 -43 OFFCURVE",
"213 -43 CURVE SMOOTH",
"128 -43 OFFCURVE",
"65 2 OFFCURVE",
"25 91 CURVE",
"36 75 OFFCURVE",
"52 60 OFFCURVE",
"74 44 CURVE SMOOTH",
"97 29 OFFCURVE",
"117 21 OFFCURVE",
"134 21 CURVE SMOOTH",
"138 21 OFFCURVE",
"140 22 OFFCURVE",
"140 23 CURVE SMOOTH",
"140 24 OFFCURVE",
"137 27 OFFCURVE",
"130 30 CURVE",
"92 52 OFFCURVE",
"67 68 OFFCURVE",
"58 79 CURVE SMOOTH",
"39 100 OFFCURVE",
"23 134 OFFCURVE",
"11 181 CURVE SMOOTH",
"10 186 OFFCURVE",
"8 188 OFFCURVE",
"3 188 CURVE SMOOTH",
"-12 188 OFFCURVE",
"-20 178 OFFCURVE",
"-20 156 CURVE SMOOTH",
"-20 138 OFFCURVE",
"-14 114 OFFCURVE",
"-3 84 CURVE SMOOTH",
"12 42 OFFCURVE",
"40 9 OFFCURVE",
"84 -18 CURVE SMOOTH",
"124 -41 OFFCURVE",
"168 -53 OFFCURVE",
"215 -53 CURVE SMOOTH",
"265 -53 OFFCURVE",
"311 -40 OFFCURVE",
"351 -15 CURVE SMOOTH",
"409 21 OFFCURVE",
"462 86 OFFCURVE",
"508 179 CURVE",
"539 180 OFFCURVE",
"570 187 OFFCURVE",
"602 204 CURVE",
"650 60 OFFCURVE",
"751 -40 OFFCURVE",
"906 -98 CURVE SMOOTH",
"911 -100 OFFCURVE",
"914 -100 OFFCURVE",
"917 -100 CURVE SMOOTH"
);
},
{
closed = 1;
nodes = (
"472 212 OFFCURVE",
"462 222 OFFCURVE",
"456 229 CURVE",
"470 271 OFFCURVE",
"483 314 OFFCURVE",
"492 357 CURVE SMOOTH",
"504 419 OFFCURVE",
"511 478 OFFCURVE",
"511 535 CURVE SMOOTH",
"511 571 OFFCURVE",
"508 604 OFFCURVE",
"502 636 CURVE",
"540 631 OFFCURVE",
"575 623 OFFCURVE",
"607 614 CURVE",
"587 526 LINE SMOOTH",
"555 384 OFFCURVE",
"522 276 OFFCURVE",
"488 199 CURVE"
);
}
);
};
layerId = "64752FBD-EC7B-42BB-A7F3-340BB4BBD1AC";
paths = (
{
closed = 1;
nodes = (
"922 -100 OFFCURVE",
"924 -99 OFFCURVE",
"924 -94 CURVE SMOOTH",
"924 -87 OFFCURVE",
"919 -72 OFFCURVE",
"919 -65 CURVE SMOOTH",
"919 -55 OFFCURVE",
"926 -50 OFFCURVE",
"940 -50 CURVE SMOOTH",
"952 -50 LINE SMOOTH",
"1008 -50 OFFCURVE",
"1035 -26 OFFCURVE",
"1035 21 CURVE SMOOTH",
"1035 44 OFFCURVE",
"1032 56 OFFCURVE",
"1025 56 CURVE SMOOTH",
"1024 56 OFFCURVE",
"1023 54 OFFCURVE",
"1023 49 CURVE SMOOTH",
"1023 48 OFFCURVE",
"1023 46 OFFCURVE",
"1024 43 CURVE",
"1024 36 LINE SMOOTH",
"1024 -13 OFFCURVE",
"997 -37 OFFCURVE",
"944 -37 CURVE SMOOTH",
"885 -37 OFFCURVE",
"826 -8 OFFCURVE",
"767 50 CURVE SMOOTH",
"712 102 OFFCURVE",
"672 163 OFFCURVE",
"648 232 CURVE",
"702 270 OFFCURVE",
"766 338 OFFCURVE",
"840 434 CURVE SMOOTH",
"1013 657 LINE",
"1074 727 OFFCURVE",
"1128 762 OFFCURVE",
"1172 762 CURVE SMOOTH",
"1211 762 OFFCURVE",
"1238 739 OFFCURVE",
"1253 693 CURVE SMOOTH",
"1256 682 OFFCURVE",
"1260 677 OFFCURVE",
"1265 677 CURVE SMOOTH",
"1273 677 OFFCURVE",
"1278 685 OFFCURVE",
"1278 702 CURVE SMOOTH",
"1278 705 OFFCURVE",
"1275 712 OFFCURVE",
"1270 723 CURVE SMOOTH",
"1254 756 OFFCURVE",
"1224 773 OFFCURVE",
"1181 773 CURVE SMOOTH",
"1106 773 OFFCURVE",
"1021 716 OFFCURVE",
"924 604 CURVE",
"721 342 LINE",
"691 308 OFFCURVE",
"663 280 OFFCURVE",
"640 260 CURVE",
"633 284 OFFCURVE",
"630 306 OFFCURVE",
"630 327 CURVE SMOOTH",
"630 357 OFFCURVE",
"637 382 OFFCURVE",
"652 402 CURVE",
"651 408 OFFCURVE",
"648 411 OFFCURVE",
"644 411 CURVE SMOOTH",
"637 411 OFFCURVE",
"626 403 OFFCURVE",
"614 386 CURVE",
"602 373 OFFCURVE",
"594 361 OFFCURVE",
"591 352 CURVE SMOOTH",
"586 340 OFFCURVE",
"584 324 OFFCURVE",
"584 305 CURVE SMOOTH",
"584 280 OFFCURVE",
"588 253 OFFCURVE",
"596 224 CURVE",
"565 203 OFFCURVE",
"539 193 OFFCURVE",
"516 193 CURVE SMOOTH",
"515 193 LINE",
"542 249 OFFCURVE",
"569 317 OFFCURVE",
"594 400 CURVE SMOOTH",
"651 590 LINE SMOOTH",
"665 637 OFFCURVE",
"678 678 OFFCURVE",
"693 714 CURVE SMOOTH",
"697 723 OFFCURVE",
"699 729 OFFCURVE",
"699 734 CURVE SMOOTH",
"699 743 OFFCURVE",
"694 747 OFFCURVE",
"684 747 CURVE SMOOTH",
"665 747 OFFCURVE",
"651 739 OFFCURVE",
"640 721 CURVE SMOOTH",
"633 710 OFFCURVE",
"625 688 OFFCURVE",
"617 653 CURVE",
"579 664 OFFCURVE",
"537 673 OFFCURVE",
"493 678 CURVE",
"480 721 OFFCURVE",
"462 753 OFFCURVE",
"438 774 CURVE SMOOTH",
"433 779 OFFCURVE",
"428 781 OFFCURVE",
"423 781 CURVE SMOOTH",
"418 781 OFFCURVE",
"415 778 OFFCURVE",
"415 773 CURVE SMOOTH",
"415 770 OFFCURVE",
"418 765 OFFCURVE",
"422 759 CURVE",
"443 739 OFFCURVE",
"459 712 OFFCURVE",
"469 681 CURVE",
"438 684 OFFCURVE",
"406 685 OFFCURVE",
"373 685 CURVE SMOOTH",
"144 685 OFFCURVE",
"30 642 OFFCURVE",
"30 556 CURVE SMOOTH",
"30 530 OFFCURVE",
"48 502 OFFCURVE",
"82 471 CURVE SMOOTH",
"116 441 OFFCURVE",
"145 426 OFFCURVE",
"170 426 CURVE",
"177 427 OFFCURVE",
"180 428 OFFCURVE",
"180 430 CURVE",
"178 432 LINE",
"102 462 OFFCURVE",
"65 497 OFFCURVE",
"65 539 CURVE SMOOTH",
"65 610 OFFCURVE",
"164 646 OFFCURVE",
"360 646 CURVE SMOOTH",
"403 646 OFFCURVE",
"443 644 OFFCURVE",
"481 639 CURVE",
"488 606 OFFCURVE",
"492 566 OFFCURVE",
"492 520 CURVE SMOOTH",
"492 490 OFFCURVE",
"490 457 OFFCURVE",
"485 422 CURVE",
"482 446 OFFCURVE",
"471 458 OFFCURVE",
"455 458 CURVE SMOOTH",
"435 458 OFFCURVE",
"417 437 OFFCURVE",
"417 417 CURVE SMOOTH",
"417 413 LINE",
"421 414 OFFCURVE",
"424 415 OFFCURVE",
"429 415 CURVE SMOOTH",
"454 415 OFFCURVE",
"469 401 OFFCURVE",
"478 375 CURVE",
"471 328 OFFCURVE",
"461 283 OFFCURVE",
"447 240 CURVE",
"444 242 OFFCURVE",
"442 243 OFFCURVE",
"440 243 CURVE SMOOTH",
"427 243 OFFCURVE",
"422 234 OFFCURVE",
"422 217 CURVE SMOOTH",
"422 211 OFFCURVE",
"425 205 OFFCURVE",
"432 198 CURVE",
"394 97 OFFCURVE",
"346 27 OFFCURVE",
"287 -9 CURVE",
"306 14 LINE",
"307 18 OFFCURVE",
"308 21 OFFCURVE",
"308 26 CURVE SMOOTH",
"308 31 OFFCURVE",
"304 48 OFFCURVE",
"298 77 CURVE",
"296 79 LINE",
"289 78 OFFCURVE",
"281 71 OFFCURVE",
"271 60 CURVE SMOOTH",
"262 49 OFFCURVE",
"257 40 OFFCURVE",
"255 33 CURVE",
"258 26 OFFCURVE",
"274 3 OFFCURVE",
"274 -9 CURVE SMOOTH",
"274 -16 OFFCURVE",
"271 -21 OFFCURVE",
"265 -28 CURVE",
"335 0 OFFCURVE",
"393 73 OFFCURVE",
"441 191 CURVE",
"450 185 OFFCURVE",
"462 181 OFFCURVE",
"479 180 CURVE",
"430 77 OFFCURVE",
"373 10 OFFCURVE",
"306 -21 CURVE SMOOTH",
"277 -36 OFFCURVE",
"246 -43 OFFCURVE",
"213 -43 CURVE SMOOTH",
"128 -43 OFFCURVE",
"65 2 OFFCURVE",
"25 91 CURVE",
"36 75 OFFCURVE",
"52 60 OFFCURVE",
"74 44 CURVE SMOOTH",
"97 29 OFFCURVE",
"117 21 OFFCURVE",
"134 21 CURVE SMOOTH",
"138 21 OFFCURVE",
"140 22 OFFCURVE",
"140 23 CURVE SMOOTH",
"140 24 OFFCURVE",
"137 27 OFFCURVE",
"130 30 CURVE",
"92 52 OFFCURVE",
"67 68 OFFCURVE",
"58 79 CURVE SMOOTH",
"39 100 OFFCURVE",
"23 134 OFFCURVE",
"11 181 CURVE SMOOTH",
"10 186 OFFCURVE",
"8 188 OFFCURVE",
"3 188 CURVE SMOOTH",
"-12 188 OFFCURVE",
"-20 178 OFFCURVE",
"-20 156 CURVE SMOOTH",
"-20 138 OFFCURVE",
"-14 114 OFFCURVE",
"-3 84 CURVE SMOOTH",
"12 42 OFFCURVE",
"40 9 OFFCURVE",
"84 -18 CURVE SMOOTH",
"124 -41 OFFCURVE",
"168 -53 OFFCURVE",
"215 -53 CURVE SMOOTH",
"265 -53 OFFCURVE",
"311 -40 OFFCURVE",
"351 -15 CURVE SMOOTH",
"409 21 OFFCURVE",
"462 86 OFFCURVE",
"508 179 CURVE",
"539 180 OFFCURVE",
"570 187 OFFCURVE",
"602 204 CURVE",
"650 60 OFFCURVE",
"751 -40 OFFCURVE",
"906 -98 CURVE SMOOTH",
"911 -100 OFFCURVE",
"914 -100 OFFCURVE",
"917 -100 CURVE SMOOTH"
);
},
{
closed = 1;
nodes = (
"472 212 OFFCURVE",
"462 222 OFFCURVE",
"456 229 CURVE",
"470 271 OFFCURVE",
"483 314 OFFCURVE",
"492 357 CURVE SMOOTH",
"504 419 OFFCURVE",
"511 478 OFFCURVE",
"511 535 CURVE SMOOTH",
"511 571 OFFCURVE",
"508 604 OFFCURVE",
"502 636 CURVE",
"540 631 OFFCURVE",
"575 623 OFFCURVE",
"607 614 CURVE",
"587 526 LINE SMOOTH",
"555 384 OFFCURVE",
"522 276 OFFCURVE",
"488 199 CURVE"
);
}
);
width = 927;
}
);
leftKerningGroup = K;
note = K;
rightKerningGroup = k;
unicode = 004B;
},
{
color = 3;
glyphname = L;
lastChange = "2022-02-14 21:32:33 +0000";
layers = (
{
anchors = (
{
name = bottom;
position = "{441, 0}";
},
{
name = center;
position = "{667, 430}";
},
{
name = top;
position = "{971, 670}";
},
{
name = topright;
position = "{1061, 670}";
}
);
background = {
paths = (
{
closed = 1;
nodes = (
"556 -134 OFFCURVE",
"557 -131 OFFCURVE",
"558 -126 CURVE SMOOTH",
"564 -72 OFFCURVE",
"578 -10 OFFCURVE",
"599 61 CURVE",
"689 -3 OFFCURVE",
"751 -44 OFFCURVE",
"786 -61 CURVE SMOOTH",
"826 -82 OFFCURVE",
"867 -92 OFFCURVE",
"909 -92 CURVE SMOOTH",
"955 -92 OFFCURVE",
"993 -81 OFFCURVE",
"1024 -59 CURVE SMOOTH",
"1055 -37 OFFCURVE",
"1070 -9 OFFCURVE",
"1070 25 CURVE SMOOTH",
"1070 54 OFFCURVE",
"1066 68 OFFCURVE",
"1058 68 CURVE SMOOTH",
"1055 68 OFFCURVE",
"1053 65 OFFCURVE",
"1053 60 CURVE SMOOTH",
"1053 53 OFFCURVE",
"1057 38 OFFCURVE",
"1057 31 CURVE SMOOTH",
"1057 2 OFFCURVE",
"1043 -21 OFFCURVE",
"1015 -39 CURVE SMOOTH",
"987 -58 OFFCURVE",
"955 -66 OFFCURVE",
"918 -66 CURVE SMOOTH",
"890 -66 OFFCURVE",
"863 -60 OFFCURVE",
"841 -50 CURVE SMOOTH",
"785 -22 OFFCURVE",
"709 29 OFFCURVE",
"613 106 CURVE",
"618 121 OFFCURVE",
"622 137 OFFCURVE",
"628 152 CURVE",
"629 151 LINE",
"660 176 OFFCURVE",
"676 189 OFFCURVE",
"675 192 CURVE SMOOTH",
"674 199 OFFCURVE",
"654 204 OFFCURVE",
"648 207 CURVE",
"669 261 LINE",
"788 271 OFFCURVE",
"889 324 OFFCURVE",
"970 420 CURVE SMOOTH",
"1011 468 OFFCURVE",
"1031 519 OFFCURVE",
"1031 572 CURVE SMOOTH",
"1031 647 OFFCURVE",
"984 703 OFFCURVE",
"917 703 CURVE SMOOTH",
"880 703 OFFCURVE",
"842 688 OFFCURVE",
"802 656 CURVE SMOOTH",
"733 601 OFFCURVE",
"657 476 OFFCURVE",
"576 282 CURVE",
"531 287 OFFCURVE",
"491 302 OFFCURVE",
"457 327 CURVE SMOOTH",
"401 367 OFFCURVE",
"374 416 OFFCURVE",
"374 471 CURVE SMOOTH",
"374 503 OFFCURVE",
"391 523 OFFCURVE",
"425 530 CURVE SMOOTH",
"430 531 OFFCURVE",
"434 532 OFFCURVE",
"439 532 CURVE SMOOTH",
"454 532 OFFCURVE",
"463 527 OFFCURVE",
"468 518 CURVE",
"469 504 OFFCURVE",
"476 498 OFFCURVE",
"489 498 CURVE SMOOTH",
"499 498 OFFCURVE",
"503 502 OFFCURVE",
"503 513 CURVE SMOOTH",
"503 514 OFFCURVE",
"503 515 OFFCURVE",
"503 516 CURVE SMOOTH",
"500 548 OFFCURVE",
"471 570 OFFCURVE",
"438 570 CURVE SMOOTH",
"390 570 OFFCURVE",
"359 528 OFFCURVE",
"359 472 CURVE SMOOTH",
"359 411 OFFCURVE",
"389 359 OFFCURVE",
"452 316 CURVE SMOOTH",
"488 292 OFFCURVE",
"527 275 OFFCURVE",
"570 266 CURVE",
"556 234 LINE SMOOTH",
"544 206 OFFCURVE",
"537 185 OFFCURVE",
"530 172 CURVE",
"466 220 OFFCURVE",
"408 255 OFFCURVE",
"356 276 CURVE SMOOTH",
"320 291 OFFCURVE",
"283 299 OFFCURVE",
"244 299 CURVE SMOOTH",
"196 299 OFFCURVE",
"153 287 OFFCURVE",
"116 264 CURVE SMOOTH",
"76 240 OFFCURVE",
"49 207 OFFCURVE",
"33 164 CURVE SMOOTH",
"25 141 OFFCURVE",
"21 118 OFFCURVE",
"21 98 CURVE SMOOTH",
"21 54 OFFCURVE",
"37 17 OFFCURVE",
"67 -15 CURVE SMOOTH",
"94 -42 OFFCURVE",
"125 -60 OFFCURVE",
"159 -66 CURVE SMOOTH",
"164 -67 OFFCURVE",
"169 -67 OFFCURVE",
"172 -67 CURVE SMOOTH",
"181 -67 OFFCURVE",
"185 -65 OFFCURVE",
"185 -60 CURVE SMOOTH",
"185 -57 OFFCURVE",
"181 -54 OFFCURVE",
"174 -53 CURVE SMOOTH",
"144 -47 OFFCURVE",
"115 -28 OFFCURVE",
"86 4 CURVE SMOOTH",
"54 39 OFFCURVE",
"38 76 OFFCURVE",
"38 115 CURVE SMOOTH",
"38 129 OFFCURVE",
"40 142 OFFCURVE",
"45 156 CURVE SMOOTH",
"68 222 OFFCURVE",
"125 256 OFFCURVE",
"216 256 CURVE SMOOTH",
"260 256 OFFCURVE",
"301 246 OFFCURVE",
"340 227 CURVE SMOOTH",
"389 203 OFFCURVE",
"446 169 OFFCURVE",
"509 126 CURVE",
"459 25 OFFCURVE",
"395 -25 OFFCURVE",
"319 -25 CURVE SMOOTH",
"296 -25 OFFCURVE",
"270 -21 OFFCURVE",
"244 -13 CURVE SMOOTH",
"240 -12 OFFCURVE",
"236 -11 OFFCURVE",
"233 -11 CURVE SMOOTH",
"229 -11 OFFCURVE",
"227 -12 OFFCURVE",
"227 -14 CURVE SMOOTH",
"227 -19 OFFCURVE",
"233 -22 OFFCURVE",
"244 -26 CURVE SMOOTH",
"274 -35 OFFCURVE",
"301 -40 OFFCURVE",
"328 -40 CURVE SMOOTH",
"410 -40 OFFCURVE",
"480 9 OFFCURVE",
"538 105 CURVE",
"552 96 OFFCURVE",
"569 84 OFFCURVE",
"588 69 CURVE",
"573 13 OFFCURVE",
"561 -40 OFFCURVE",
"554 -90 CURVE SMOOTH",
"551 -109 OFFCURVE",
"549 -122 OFFCURVE",
"549 -127 CURVE SMOOTH",
"550 -132 OFFCURVE",
"551 -134 OFFCURVE",
"553 -134 CURVE SMOOTH"
);
},
{
closed = 1;
nodes = (
"585 129 OFFCURVE",
"572 140 OFFCURVE",
"561 147 CURVE",
"576 178 OFFCURVE",
"593 215 OFFCURVE",
"612 261 CURVE",
"625 260 OFFCURVE",
"639 260 OFFCURVE",
"654 261 CURVE",
"649 248 OFFCURVE",
"644 235 OFFCURVE",
"639 224 CURVE",
"638 224 LINE SMOOTH",
"621 222 OFFCURVE",
"606 194 OFFCURVE",
"606 183 CURVE",
"607 178 OFFCURVE",
"609 169 OFFCURVE",
"617 161 CURVE",
"602 115 LINE"
);
},
{
closed = 1;
nodes = (
"663 386 OFFCURVE",
"692 454 OFFCURVE",
"705 482 CURVE SMOOTH",
"776 625 OFFCURVE",
"855 688 OFFCURVE",
"921 688 CURVE SMOOTH",
"971 688 OFFCURVE",
"1004 647 OFFCURVE",
"1004 588 CURVE SMOOTH",
"1004 542 OFFCURVE",
"985 495 OFFCURVE",
"947 448 CURVE SMOOTH",
"879 363 OFFCURVE",
"790 309 OFFCURVE",
"680 287 CURVE",
"759 475 OFFCURVE",
"823 587 OFFCURVE",
"868 623 CURVE SMOOTH",
"871 625 OFFCURVE",
"872 627 OFFCURVE",
"872 630 CURVE SMOOTH",
"872 635 OFFCURVE",
"870 637 OFFCURVE",
"865 637 CURVE SMOOTH",
"845 636 OFFCURVE",
"807 582 OFFCURVE",
"753 478 CURVE SMOOTH",
"719 411 OFFCURVE",
"690 345 OFFCURVE",
"663 284 CURVE",
"649 282 OFFCURVE",
"634 281 OFFCURVE",
"620 280 CURVE"
);
}
);
};
layerId = "64752FBD-EC7B-42BB-A7F3-340BB4BBD1AC";
paths = (
{
closed = 1;
nodes = (
"556 -134 OFFCURVE",
"557 -131 OFFCURVE",
"558 -126 CURVE SMOOTH",
"564 -72 OFFCURVE",
"578 -10 OFFCURVE",
"599 61 CURVE",
"689 -3 OFFCURVE",
"751 -44 OFFCURVE",
"786 -61 CURVE SMOOTH",
"826 -82 OFFCURVE",
"867 -92 OFFCURVE",
"909 -92 CURVE SMOOTH",
"955 -92 OFFCURVE",
"993 -81 OFFCURVE",
"1024 -59 CURVE SMOOTH",
"1055 -37 OFFCURVE",
"1070 -9 OFFCURVE",
"1070 25 CURVE SMOOTH",
"1070 54 OFFCURVE",
"1066 68 OFFCURVE",
"1058 68 CURVE SMOOTH",
"1055 68 OFFCURVE",
"1053 65 OFFCURVE",
"1053 60 CURVE SMOOTH",
"1053 53 OFFCURVE",
"1057 38 OFFCURVE",
"1057 31 CURVE SMOOTH",
"1057 2 OFFCURVE",
"1043 -21 OFFCURVE",
"1015 -39 CURVE SMOOTH",
"987 -58 OFFCURVE",
"955 -66 OFFCURVE",
"918 -66 CURVE SMOOTH",
"890 -66 OFFCURVE",
"863 -60 OFFCURVE",
"841 -50 CURVE SMOOTH",
"785 -22 OFFCURVE",
"709 29 OFFCURVE",
"613 106 CURVE",
"618 121 OFFCURVE",
"622 137 OFFCURVE",
"628 152 CURVE",
"629 151 LINE",
"660 176 OFFCURVE",
"676 189 OFFCURVE",
"675 192 CURVE SMOOTH",
"674 199 OFFCURVE",
"654 204 OFFCURVE",
"648 207 CURVE",
"669 261 LINE",
"788 271 OFFCURVE",
"889 324 OFFCURVE",
"970 420 CURVE SMOOTH",
"1011 468 OFFCURVE",
"1031 519 OFFCURVE",
"1031 572 CURVE SMOOTH",
"1031 647 OFFCURVE",
"984 703 OFFCURVE",
"917 703 CURVE SMOOTH",
"880 703 OFFCURVE",
"842 688 OFFCURVE",
"802 656 CURVE SMOOTH",
"733 601 OFFCURVE",
"657 476 OFFCURVE",
"576 282 CURVE",
"531 287 OFFCURVE",
"491 302 OFFCURVE",
"457 327 CURVE SMOOTH",
"401 367 OFFCURVE",
"374 416 OFFCURVE",
"374 471 CURVE SMOOTH",
"374 503 OFFCURVE",
"391 523 OFFCURVE",
"425 530 CURVE SMOOTH",
"430 531 OFFCURVE",
"434 532 OFFCURVE",
"439 532 CURVE SMOOTH",
"454 532 OFFCURVE",
"463 527 OFFCURVE",
"468 518 CURVE",
"469 504 OFFCURVE",
"476 498 OFFCURVE",
"489 498 CURVE SMOOTH",
"499 498 OFFCURVE",
"503 502 OFFCURVE",
"503 513 CURVE SMOOTH",
"503 516 LINE SMOOTH",
"503 548 OFFCURVE",
"471 570 OFFCURVE",
"438 570 CURVE SMOOTH",
"390 570 OFFCURVE",
"359 528 OFFCURVE",
"359 472 CURVE SMOOTH",
"359 411 OFFCURVE",
"389 359 OFFCURVE",
"452 316 CURVE SMOOTH",
"488 292 OFFCURVE",
"527 275 OFFCURVE",
"570 266 CURVE",
"556 234 LINE SMOOTH",
"544 206 OFFCURVE",
"537 185 OFFCURVE",
"530 172 CURVE",
"466 220 OFFCURVE",
"408 255 OFFCURVE",
"356 276 CURVE SMOOTH",
"320 291 OFFCURVE",
"283 299 OFFCURVE",
"244 299 CURVE SMOOTH",
"196 299 OFFCURVE",
"153 287 OFFCURVE",
"116 264 CURVE SMOOTH",
"76 240 OFFCURVE",
"49 207 OFFCURVE",
"33 164 CURVE SMOOTH",
"25 141 OFFCURVE",
"21 118 OFFCURVE",
"21 98 CURVE SMOOTH",
"21 54 OFFCURVE",
"37 17 OFFCURVE",
"67 -15 CURVE SMOOTH",
"94 -42 OFFCURVE",
"125 -60 OFFCURVE",
"159 -66 CURVE SMOOTH",
"164 -67 OFFCURVE",
"169 -67 OFFCURVE",
"172 -67 CURVE SMOOTH",
"181 -67 OFFCURVE",
"185 -65 OFFCURVE",
"185 -60 CURVE SMOOTH",
"185 -57 OFFCURVE",
"181 -54 OFFCURVE",
"174 -53 CURVE SMOOTH",
"144 -47 OFFCURVE",
"115 -28 OFFCURVE",
"86 4 CURVE SMOOTH",
"54 39 OFFCURVE",
"38 76 OFFCURVE",
"38 115 CURVE SMOOTH",
"38 129 OFFCURVE",
"40 142 OFFCURVE",
"45 156 CURVE SMOOTH",
"68 222 OFFCURVE",
"125 256 OFFCURVE",
"216 256 CURVE SMOOTH",
"260 256 OFFCURVE",
"301 246 OFFCURVE",
"340 227 CURVE SMOOTH",
"389 203 OFFCURVE",
"446 169 OFFCURVE",
"509 126 CURVE",
"459 25 OFFCURVE",
"395 -25 OFFCURVE",
"319 -25 CURVE SMOOTH",
"296 -25 OFFCURVE",
"270 -21 OFFCURVE",
"244 -13 CURVE SMOOTH",
"240 -12 OFFCURVE",
"236 -11 OFFCURVE",
"233 -11 CURVE SMOOTH",
"229 -11 OFFCURVE",
"227 -12 OFFCURVE",
"227 -14 CURVE SMOOTH",
"227 -19 OFFCURVE",
"233 -22 OFFCURVE",
"244 -26 CURVE SMOOTH",
"274 -35 OFFCURVE",
"301 -40 OFFCURVE",
"328 -40 CURVE SMOOTH",
"410 -40 OFFCURVE",
"480 9 OFFCURVE",
"538 105 CURVE",
"552 96 OFFCURVE",
"569 84 OFFCURVE",
"588 69 CURVE",
"573 13 OFFCURVE",
"561 -40 OFFCURVE",
"554 -90 CURVE SMOOTH",
"551 -109 OFFCURVE",
"549 -122 OFFCURVE",
"549 -127 CURVE SMOOTH",
"550 -132 OFFCURVE",
"551 -134 OFFCURVE",
"553 -134 CURVE SMOOTH"
);
},
{
closed = 1;
nodes = (
"585 129 OFFCURVE",
"572 140 OFFCURVE",
"561 147 CURVE",
"576 178 OFFCURVE",
"593 215 OFFCURVE",
"612 261 CURVE",
"625 260 OFFCURVE",
"639 260 OFFCURVE",
"654 261 CURVE",
"649 248 OFFCURVE",
"644 235 OFFCURVE",
"639 224 CURVE",
"638 224 LINE SMOOTH",
"621 224 OFFCURVE",
"606 194 OFFCURVE",
"606 183 CURVE",
"607 178 OFFCURVE",
"609 169 OFFCURVE",
"617 161 CURVE",
"602 115 LINE"
);
},
{
closed = 1;
nodes = (
"663 386 OFFCURVE",
"692 454 OFFCURVE",
"705 482 CURVE SMOOTH",
"776 625 OFFCURVE",
"855 688 OFFCURVE",
"921 688 CURVE SMOOTH",
"971 688 OFFCURVE",
"1004 647 OFFCURVE",
"1004 588 CURVE SMOOTH",
"1004 542 OFFCURVE",
"985 495 OFFCURVE",
"947 448 CURVE SMOOTH",
"879 363 OFFCURVE",
"790 309 OFFCURVE",
"680 287 CURVE",
"759 475 OFFCURVE",
"823 587 OFFCURVE",
"868 623 CURVE SMOOTH",
"871 625 OFFCURVE",
"872 627 OFFCURVE",
"872 630 CURVE SMOOTH",
"872 635 OFFCURVE",
"870 637 OFFCURVE",
"865 637 CURVE SMOOTH",
"845 636 OFFCURVE",
"807 582 OFFCURVE",
"753 478 CURVE SMOOTH",
"719 411 OFFCURVE",
"690 345 OFFCURVE",
"663 284 CURVE",
"649 282 OFFCURVE",
"634 281 OFFCURVE",
"620 280 CURVE"
);
}
);
width = 941;
}
);
leftKerningGroup = L;
note = L;
rightKerningGroup = M;
unicode = 004C;
},
{
color = 3;
glyphname = Ldot;
lastChange = "2022-02-14 21:32:33 +0000";
layers = (
{
background = {
components = (
{
name = L;
},
{
name = periodcentered;
}
);
};
layerId = "64752FBD-EC7B-42BB-A7F3-340BB4BBD1AC";
paths = (
{
closed = 1;
nodes = (
"556 -134 OFFCURVE",
"557 -131 OFFCURVE",
"558 -126 CURVE SMOOTH",
"564 -72 OFFCURVE",
"578 -10 OFFCURVE",
"599 61 CURVE",
"689 -3 OFFCURVE",
"751 -44 OFFCURVE",
"786 -61 CURVE SMOOTH",
"826 -82 OFFCURVE",
"867 -92 OFFCURVE",
"909 -92 CURVE SMOOTH",
"955 -92 OFFCURVE",
"993 -81 OFFCURVE",
"1024 -59 CURVE SMOOTH",
"1055 -37 OFFCURVE",
"1070 -9 OFFCURVE",
"1070 25 CURVE SMOOTH",
"1070 54 OFFCURVE",
"1066 68 OFFCURVE",
"1058 68 CURVE SMOOTH",
"1055 68 OFFCURVE",
"1053 65 OFFCURVE",
"1053 60 CURVE SMOOTH",
"1053 53 OFFCURVE",
"1057 38 OFFCURVE",
"1057 31 CURVE SMOOTH",
"1057 2 OFFCURVE",
"1043 -21 OFFCURVE",
"1015 -39 CURVE SMOOTH",
"987 -58 OFFCURVE",
"955 -66 OFFCURVE",
"918 -66 CURVE SMOOTH",
"890 -66 OFFCURVE",
"863 -60 OFFCURVE",
"841 -50 CURVE SMOOTH",
"785 -22 OFFCURVE",
"709 29 OFFCURVE",
"613 106 CURVE",
"618 121 OFFCURVE",
"622 137 OFFCURVE",
"628 152 CURVE",
"629 151 LINE",
"660 176 OFFCURVE",
"676 189 OFFCURVE",
"675 192 CURVE SMOOTH",
"674 199 OFFCURVE",
"654 204 OFFCURVE",
"648 207 CURVE",
"669 261 LINE",
"788 271 OFFCURVE",
"889 324 OFFCURVE",
"970 420 CURVE SMOOTH",
"1011 468 OFFCURVE",
"1031 519 OFFCURVE",
"1031 572 CURVE SMOOTH",
"1031 647 OFFCURVE",
"984 703 OFFCURVE",
"917 703 CURVE SMOOTH",
"880 703 OFFCURVE",
"842 688 OFFCURVE",
"802 656 CURVE SMOOTH",
"733 601 OFFCURVE",
"657 476 OFFCURVE",
"576 282 CURVE",
"531 287 OFFCURVE",
"491 302 OFFCURVE",
"457 327 CURVE SMOOTH",
"401 367 OFFCURVE",
"374 416 OFFCURVE",
"374 471 CURVE SMOOTH",
"374 503 OFFCURVE",
"391 523 OFFCURVE",
"425 530 CURVE SMOOTH",
"430 531 OFFCURVE",
"434 532 OFFCURVE",
"439 532 CURVE SMOOTH",
"454 532 OFFCURVE",
"463 527 OFFCURVE",
"468 518 CURVE",
"469 504 OFFCURVE",
"476 498 OFFCURVE",
"489 498 CURVE SMOOTH",
"499 498 OFFCURVE",
"503 502 OFFCURVE",
"503 513 CURVE SMOOTH",
"503 516 LINE SMOOTH",
"503 548 OFFCURVE",
"471 570 OFFCURVE",
"438 570 CURVE SMOOTH",
"390 570 OFFCURVE",
"359 528 OFFCURVE",
"359 472 CURVE SMOOTH",
"359 411 OFFCURVE",
"389 359 OFFCURVE",
"452 316 CURVE SMOOTH",
"488 292 OFFCURVE",
"527 275 OFFCURVE",
"570 266 CURVE",
"556 234 LINE SMOOTH",
"544 206 OFFCURVE",
"537 185 OFFCURVE",
"530 172 CURVE",
"466 220 OFFCURVE",
"408 255 OFFCURVE",
"356 276 CURVE SMOOTH",
"320 291 OFFCURVE",
"283 299 OFFCURVE",
"244 299 CURVE SMOOTH",
"196 299 OFFCURVE",
"153 287 OFFCURVE",
"116 264 CURVE SMOOTH",
"76 240 OFFCURVE",
"49 207 OFFCURVE",
"33 164 CURVE SMOOTH",
"25 141 OFFCURVE",
"21 118 OFFCURVE",
"21 98 CURVE SMOOTH",
"21 54 OFFCURVE",
"37 17 OFFCURVE",
"67 -15 CURVE SMOOTH",
"94 -42 OFFCURVE",
"125 -60 OFFCURVE",
"159 -66 CURVE SMOOTH",
"164 -67 OFFCURVE",
"169 -67 OFFCURVE",
"172 -67 CURVE SMOOTH",
"181 -67 OFFCURVE",
"185 -65 OFFCURVE",
"185 -60 CURVE SMOOTH",
"185 -57 OFFCURVE",
"181 -54 OFFCURVE",
"174 -53 CURVE SMOOTH",
"144 -47 OFFCURVE",
"115 -28 OFFCURVE",
"86 4 CURVE SMOOTH",
"54 39 OFFCURVE",
"38 76 OFFCURVE",
"38 115 CURVE SMOOTH",
"38 129 OFFCURVE",
"40 142 OFFCURVE",
"45 156 CURVE SMOOTH",
"68 222 OFFCURVE",
"125 256 OFFCURVE",
"216 256 CURVE SMOOTH",
"260 256 OFFCURVE",
"301 246 OFFCURVE",
"340 227 CURVE SMOOTH",
"389 203 OFFCURVE",
"446 169 OFFCURVE",
"509 126 CURVE",
"459 25 OFFCURVE",
"395 -25 OFFCURVE",
"319 -25 CURVE SMOOTH",
"296 -25 OFFCURVE",
"270 -21 OFFCURVE",
"244 -13 CURVE SMOOTH",
"240 -12 OFFCURVE",
"236 -11 OFFCURVE",
"233 -11 CURVE SMOOTH",
"229 -11 OFFCURVE",
"227 -12 OFFCURVE",
"227 -14 CURVE SMOOTH",
"227 -19 OFFCURVE",
"233 -22 OFFCURVE",
"244 -26 CURVE SMOOTH",
"274 -35 OFFCURVE",
"301 -40 OFFCURVE",
"328 -40 CURVE SMOOTH",
"410 -40 OFFCURVE",
"480 9 OFFCURVE",
"538 105 CURVE",
"552 96 OFFCURVE",
"569 84 OFFCURVE",
"588 69 CURVE",
"573 13 OFFCURVE",
"561 -40 OFFCURVE",
"554 -90 CURVE SMOOTH",
"551 -109 OFFCURVE",
"549 -122 OFFCURVE",
"549 -127 CURVE SMOOTH",
"550 -132 OFFCURVE",
"551 -134 OFFCURVE",
"553 -134 CURVE SMOOTH"
);
},
{
closed = 1;
nodes = (
"585 129 OFFCURVE",
"572 140 OFFCURVE",
"561 147 CURVE",
"576 178 OFFCURVE",
"593 215 OFFCURVE",
"612 261 CURVE",
"625 260 OFFCURVE",
"639 260 OFFCURVE",
"654 261 CURVE",
"649 248 OFFCURVE",
"644 235 OFFCURVE",
"639 224 CURVE",
"638 224 LINE SMOOTH",
"621 224 OFFCURVE",
"606 194 OFFCURVE",
"606 183 CURVE",
"607 178 OFFCURVE",
"609 169 OFFCURVE",
"617 161 CURVE",
"602 115 LINE"
);
},
{
closed = 1;
nodes = (
"663 386 OFFCURVE",
"692 454 OFFCURVE",
"705 482 CURVE SMOOTH",
"776 625 OFFCURVE",
"855 688 OFFCURVE",
"921 688 CURVE SMOOTH",
"971 688 OFFCURVE",
"1004 647 OFFCURVE",
"1004 588 CURVE SMOOTH",
"1004 542 OFFCURVE",
"985 495 OFFCURVE",
"947 448 CURVE SMOOTH",
"879 363 OFFCURVE",
"790 309 OFFCURVE",
"680 287 CURVE",
"759 475 OFFCURVE",
"823 587 OFFCURVE",
"868 623 CURVE SMOOTH",
"871 625 OFFCURVE",
"872 627 OFFCURVE",
"872 630 CURVE SMOOTH",
"872 635 OFFCURVE",
"870 637 OFFCURVE",
"865 637 CURVE SMOOTH",
"845 636 OFFCURVE",
"807 582 OFFCURVE",
"753 478 CURVE SMOOTH",
"719 411 OFFCURVE",
"690 345 OFFCURVE",
"663 284 CURVE",
"649 282 OFFCURVE",
"634 281 OFFCURVE",
"620 280 CURVE"
);
},
{
closed = 1;
nodes = (
"1120 344 OFFCURVE",
"1130 355 OFFCURVE",
"1137 377 CURVE SMOOTH",
"1144 405 OFFCURVE",
"1156 417 OFFCURVE",
"1165 427 CURVE",
"1164 428 LINE SMOOTH",
"1163 429 OFFCURVE",
"1163 429 OFFCURVE",
"1162 429 CURVE SMOOTH",
"1157 429 OFFCURVE",
"1146 425 OFFCURVE",
"1132 418 CURVE SMOOTH",
"1117 410 OFFCURVE",
"1108 404 OFFCURVE",
"1104 399 CURVE",
"1093 394 OFFCURVE",
"1087 386 OFFCURVE",
"1087 375 CURVE SMOOTH",
"1087 364 OFFCURVE",
"1097 344 OFFCURVE",
"1107 344 CURVE SMOOTH"
);
}
);
width = 941;
}
);
leftKerningGroup = L;
unicode = 013F;
},
{
glyphname = Lslash;
lastChange = "2022-02-14 12:42:52 +0000";
layers = (
{
background = {
paths = (
{
closed = 1;
nodes = (
"556 -134 OFFCURVE",
"557 -131 OFFCURVE",
"558 -126 CURVE SMOOTH",
"564 -72 OFFCURVE",
"578 -10 OFFCURVE",
"599 61 CURVE",
"689 -3 OFFCURVE",
"751 -44 OFFCURVE",
"786 -61 CURVE SMOOTH",
"826 -82 OFFCURVE",
"867 -92 OFFCURVE",
"909 -92 CURVE SMOOTH",
"955 -92 OFFCURVE",
"993 -81 OFFCURVE",
"1024 -59 CURVE SMOOTH",
"1055 -37 OFFCURVE",
"1070 -9 OFFCURVE",
"1070 25 CURVE SMOOTH",
"1070 54 OFFCURVE",
"1066 68 OFFCURVE",
"1058 68 CURVE SMOOTH",
"1055 68 OFFCURVE",
"1053 65 OFFCURVE",
"1053 60 CURVE SMOOTH",
"1053 53 OFFCURVE",
"1057 38 OFFCURVE",
"1057 31 CURVE SMOOTH",
"1057 2 OFFCURVE",
"1043 -21 OFFCURVE",
"1015 -39 CURVE SMOOTH",
"987 -58 OFFCURVE",
"955 -66 OFFCURVE",
"918 -66 CURVE SMOOTH",
"890 -66 OFFCURVE",
"863 -60 OFFCURVE",
"841 -50 CURVE SMOOTH",
"785 -22 OFFCURVE",
"709 29 OFFCURVE",
"613 106 CURVE",
"616 116 OFFCURVE",
"637 175 OFFCURVE",
"653 218 CURVE",
"689 222 OFFCURVE",
"723 226 OFFCURVE",
"753 228 CURVE SMOOTH",
"757 228 OFFCURVE",
"760 230 OFFCURVE",
"760 232 CURVE SMOOTH",
"760 232 OFFCURVE",
"760 233 OFFCURVE",
"760 233 CURVE",
"760 235 OFFCURVE",
"759 236 OFFCURVE",
"756 237 CURVE",
"733 240 OFFCURVE",
"702 241 OFFCURVE",
"662 240 CURVE",
"664 250 OFFCURVE",
"667 258 OFFCURVE",
"669 261 CURVE",
"788 271 OFFCURVE",
"889 324 OFFCURVE",
"970 420 CURVE SMOOTH",
"1011 468 OFFCURVE",
"1031 519 OFFCURVE",
"1031 572 CURVE SMOOTH",
"1031 647 OFFCURVE",
"984 703 OFFCURVE",
"917 703 CURVE SMOOTH",
"880 703 OFFCURVE",
"842 688 OFFCURVE",
"802 656 CURVE SMOOTH",
"733 601 OFFCURVE",
"657 476 OFFCURVE",
"576 282 CURVE",
"531 287 OFFCURVE",
"491 302 OFFCURVE",
"457 327 CURVE SMOOTH",
"401 367 OFFCURVE",
"374 416 OFFCURVE",
"374 471 CURVE SMOOTH",
"374 503 OFFCURVE",
"391 523 OFFCURVE",
"425 530 CURVE SMOOTH",
"430 531 OFFCURVE",
"434 532 OFFCURVE",
"439 532 CURVE SMOOTH",
"454 532 OFFCURVE",
"463 527 OFFCURVE",
"468 518 CURVE",
"469 504 OFFCURVE",
"476 498 OFFCURVE",
"489 498 CURVE SMOOTH",
"499 498 OFFCURVE",
"503 502 OFFCURVE",
"503 513 CURVE SMOOTH",
"503 514 OFFCURVE",
"503 515 OFFCURVE",
"503 516 CURVE SMOOTH",
"500 548 OFFCURVE",
"471 570 OFFCURVE",
"438 570 CURVE SMOOTH",
"390 570 OFFCURVE",
"359 528 OFFCURVE",
"359 472 CURVE SMOOTH",
"359 411 OFFCURVE",
"389 359 OFFCURVE",
"452 316 CURVE SMOOTH",
"488 292 OFFCURVE",
"527 275 OFFCURVE",
"570 266 CURVE",
"556 234 LINE",
"556 233 OFFCURVE",
"555 232 OFFCURVE",
"555 231 CURVE",
"531 228 OFFCURVE",
"505 225 OFFCURVE",
"480 221 CURVE",
"477 219 LINE",
"480 212 OFFCURVE",
"498 200 OFFCURVE",
"507 199 CURVE",
"543 204 LINE",
"539 190 OFFCURVE",
"534 180 OFFCURVE",
"530 172 CURVE",
"466 220 OFFCURVE",
"408 255 OFFCURVE",
"356 276 CURVE SMOOTH",
"320 291 OFFCURVE",
"283 299 OFFCURVE",
"244 299 CURVE SMOOTH",
"196 299 OFFCURVE",
"153 287 OFFCURVE",
"116 264 CURVE SMOOTH",
"76 240 OFFCURVE",
"49 207 OFFCURVE",
"33 164 CURVE SMOOTH",
"25 141 OFFCURVE",
"21 118 OFFCURVE",
"21 98 CURVE SMOOTH",
"21 54 OFFCURVE",
"37 17 OFFCURVE",
"67 -15 CURVE SMOOTH",
"94 -42 OFFCURVE",
"125 -60 OFFCURVE",
"159 -66 CURVE SMOOTH",
"164 -67 OFFCURVE",
"169 -67 OFFCURVE",
"172 -67 CURVE SMOOTH",
"181 -67 OFFCURVE",
"185 -65 OFFCURVE",
"185 -60 CURVE SMOOTH",
"185 -57 OFFCURVE",
"181 -54 OFFCURVE",
"174 -53 CURVE SMOOTH",
"144 -47 OFFCURVE",
"115 -28 OFFCURVE",
"86 4 CURVE SMOOTH",
"54 39 OFFCURVE",
"38 76 OFFCURVE",
"38 115 CURVE SMOOTH",
"38 129 OFFCURVE",
"40 142 OFFCURVE",
"45 156 CURVE SMOOTH",
"68 222 OFFCURVE",
"125 256 OFFCURVE",
"216 256 CURVE SMOOTH",
"260 256 OFFCURVE",
"301 246 OFFCURVE",
"340 227 CURVE SMOOTH",
"389 203 OFFCURVE",
"446 169 OFFCURVE",
"509 126 CURVE",
"459 25 OFFCURVE",
"395 -25 OFFCURVE",
"319 -25 CURVE SMOOTH",
"296 -25 OFFCURVE",
"270 -21 OFFCURVE",
"244 -13 CURVE SMOOTH",
"240 -12 OFFCURVE",
"236 -11 OFFCURVE",
"233 -11 CURVE SMOOTH",
"229 -11 OFFCURVE",
"227 -12 OFFCURVE",
"227 -14 CURVE SMOOTH",
"227 -19 OFFCURVE",
"233 -22 OFFCURVE",
"244 -26 CURVE SMOOTH",
"274 -35 OFFCURVE",
"301 -40 OFFCURVE",
"328 -40 CURVE SMOOTH",
"410 -40 OFFCURVE",
"480 9 OFFCURVE",
"538 105 CURVE",
"552 96 OFFCURVE",
"569 84 OFFCURVE",
"588 69 CURVE",
"573 13 OFFCURVE",
"561 -40 OFFCURVE",
"554 -90 CURVE SMOOTH",
"551 -109 OFFCURVE",
"549 -122 OFFCURVE",
"549 -127 CURVE SMOOTH",
"550 -132 OFFCURVE",
"551 -134 OFFCURVE",
"553 -134 CURVE SMOOTH"
);
},
{
closed = 1;
nodes = (
"508 199 OFFCURVE",
"508 199 OFFCURVE",
"509 199 CURVE SMOOTH",
"507 199 LINE SMOOTH"
);
},
{
closed = 1;
nodes = (
"585 129 OFFCURVE",
"572 140 OFFCURVE",
"561 147 CURVE",
"570 166 OFFCURVE",
"580 186 OFFCURVE",
"590 210 CURVE",
"636 216 LINE",
"630 199 OFFCURVE",
"624 184 OFFCURVE",
"621 172 CURVE SMOOTH",
"602 115 LINE"
);
},
{
closed = 1;
nodes = (
"605 244 OFFCURVE",
"609 252 OFFCURVE",
"612 261 CURVE",
"625 260 OFFCURVE",
"639 260 OFFCURVE",
"654 261 CURVE",
"645 239 LINE",
"634 239 OFFCURVE",
"622 238 OFFCURVE",
"611 237 CURVE SMOOTH",
"608 237 OFFCURVE",
"605 236 OFFCURVE",
"602 236 CURVE"
);
},
{
closed = 1;
nodes = (
"663 386 OFFCURVE",
"692 454 OFFCURVE",
"705 482 CURVE SMOOTH",
"776 625 OFFCURVE",
"855 688 OFFCURVE",
"921 688 CURVE SMOOTH",
"971 688 OFFCURVE",
"1004 647 OFFCURVE",
"1004 588 CURVE SMOOTH",
"1004 542 OFFCURVE",
"985 495 OFFCURVE",
"947 448 CURVE SMOOTH",
"879 363 OFFCURVE",
"790 309 OFFCURVE",
"680 287 CURVE",
"759 475 OFFCURVE",
"823 587 OFFCURVE",
"868 623 CURVE SMOOTH",
"871 625 OFFCURVE",
"872 627 OFFCURVE",
"872 630 CURVE SMOOTH",
"872 635 OFFCURVE",
"870 637 OFFCURVE",
"865 637 CURVE SMOOTH",
"845 636 OFFCURVE",
"807 582 OFFCURVE",
"753 478 CURVE SMOOTH",
"719 411 OFFCURVE",
"690 345 OFFCURVE",
"663 284 CURVE",
"649 282 OFFCURVE",
"634 281 OFFCURVE",
"620 280 CURVE"
);
}
);
};
layerId = "64752FBD-EC7B-42BB-A7F3-340BB4BBD1AC";
paths = (
{
closed = 1;
nodes = (
"556 -134 OFFCURVE",
"557 -131 OFFCURVE",
"558 -126 CURVE SMOOTH",
"564 -72 OFFCURVE",
"578 -10 OFFCURVE",
"599 61 CURVE",
"689 -3 OFFCURVE",
"751 -44 OFFCURVE",
"786 -61 CURVE SMOOTH",
"826 -82 OFFCURVE",
"867 -92 OFFCURVE",
"909 -92 CURVE SMOOTH",
"955 -92 OFFCURVE",
"993 -81 OFFCURVE",
"1024 -59 CURVE SMOOTH",
"1055 -37 OFFCURVE",
"1070 -9 OFFCURVE",
"1070 25 CURVE SMOOTH",
"1070 54 OFFCURVE",
"1066 68 OFFCURVE",
"1058 68 CURVE SMOOTH",
"1055 68 OFFCURVE",
"1053 65 OFFCURVE",
"1053 60 CURVE SMOOTH",
"1053 53 OFFCURVE",
"1057 38 OFFCURVE",
"1057 31 CURVE SMOOTH",
"1057 2 OFFCURVE",
"1043 -21 OFFCURVE",
"1015 -39 CURVE SMOOTH",
"987 -58 OFFCURVE",
"955 -66 OFFCURVE",
"918 -66 CURVE SMOOTH",
"890 -66 OFFCURVE",
"863 -60 OFFCURVE",
"841 -50 CURVE SMOOTH",
"785 -22 OFFCURVE",
"709 29 OFFCURVE",
"613 106 CURVE",
"616 116 OFFCURVE",
"637 175 OFFCURVE",
"653 218 CURVE",
"689 222 OFFCURVE",
"723 226 OFFCURVE",
"753 228 CURVE SMOOTH",
"757 228 OFFCURVE",
"760 230 OFFCURVE",
"760 232 CURVE SMOOTH",
"760 233 LINE SMOOTH",
"760 235 OFFCURVE",
"759 236 OFFCURVE",
"756 237 CURVE",
"733 240 OFFCURVE",
"702 241 OFFCURVE",
"662 240 CURVE",
"664 250 OFFCURVE",
"667 258 OFFCURVE",
"669 261 CURVE",
"788 271 OFFCURVE",
"889 324 OFFCURVE",
"970 420 CURVE SMOOTH",
"1011 468 OFFCURVE",
"1031 519 OFFCURVE",
"1031 572 CURVE SMOOTH",
"1031 647 OFFCURVE",
"984 703 OFFCURVE",
"917 703 CURVE SMOOTH",
"880 703 OFFCURVE",
"842 688 OFFCURVE",
"802 656 CURVE SMOOTH",
"733 601 OFFCURVE",
"657 476 OFFCURVE",
"576 282 CURVE",
"531 287 OFFCURVE",
"491 302 OFFCURVE",
"457 327 CURVE SMOOTH",
"401 367 OFFCURVE",
"374 416 OFFCURVE",
"374 471 CURVE SMOOTH",
"374 503 OFFCURVE",
"391 523 OFFCURVE",
"425 530 CURVE SMOOTH",
"430 531 OFFCURVE",
"434 532 OFFCURVE",
"439 532 CURVE SMOOTH",
"454 532 OFFCURVE",
"463 527 OFFCURVE",
"468 518 CURVE",
"469 504 OFFCURVE",
"476 498 OFFCURVE",
"489 498 CURVE SMOOTH",
"499 498 OFFCURVE",
"503 502 OFFCURVE",
"503 513 CURVE SMOOTH",
"503 516 LINE SMOOTH",
"500 548 OFFCURVE",
"471 570 OFFCURVE",
"438 570 CURVE SMOOTH",
"390 570 OFFCURVE",
"359 528 OFFCURVE",
"359 472 CURVE SMOOTH",
"359 411 OFFCURVE",
"389 359 OFFCURVE",
"452 316 CURVE SMOOTH",
"488 292 OFFCURVE",
"527 275 OFFCURVE",
"570 266 CURVE",
"556 234 LINE",
"556 233 OFFCURVE",
"555 232 OFFCURVE",
"555 231 CURVE",
"531 228 OFFCURVE",
"505 225 OFFCURVE",
"480 221 CURVE",
"477 219 LINE",
"480 212 OFFCURVE",
"498 200 OFFCURVE",
"507 199 CURVE",
"543 204 LINE",
"539 190 OFFCURVE",
"534 180 OFFCURVE",
"530 172 CURVE",
"466 220 OFFCURVE",
"408 255 OFFCURVE",
"356 276 CURVE SMOOTH",
"320 291 OFFCURVE",
"283 299 OFFCURVE",
"244 299 CURVE SMOOTH",
"196 299 OFFCURVE",
"153 287 OFFCURVE",
"116 264 CURVE SMOOTH",
"76 240 OFFCURVE",
"49 207 OFFCURVE",
"33 164 CURVE SMOOTH",
"25 141 OFFCURVE",
"21 118 OFFCURVE",
"21 98 CURVE SMOOTH",
"21 54 OFFCURVE",
"37 17 OFFCURVE",
"67 -15 CURVE SMOOTH",
"94 -42 OFFCURVE",
"125 -60 OFFCURVE",
"159 -66 CURVE SMOOTH",
"164 -67 OFFCURVE",
"169 -67 OFFCURVE",
"172 -67 CURVE SMOOTH",
"181 -67 OFFCURVE",
"185 -65 OFFCURVE",
"185 -60 CURVE SMOOTH",
"185 -57 OFFCURVE",
"181 -54 OFFCURVE",
"174 -53 CURVE SMOOTH",
"144 -47 OFFCURVE",
"115 -28 OFFCURVE",
"86 4 CURVE SMOOTH",
"54 39 OFFCURVE",
"38 76 OFFCURVE",
"38 115 CURVE SMOOTH",
"38 129 OFFCURVE",
"40 142 OFFCURVE",
"45 156 CURVE SMOOTH",
"68 222 OFFCURVE",
"125 256 OFFCURVE",
"216 256 CURVE SMOOTH",
"260 256 OFFCURVE",
"301 246 OFFCURVE",
"340 227 CURVE SMOOTH",
"389 203 OFFCURVE",
"446 169 OFFCURVE",
"509 126 CURVE",
"459 25 OFFCURVE",
"395 -25 OFFCURVE",
"319 -25 CURVE SMOOTH",
"296 -25 OFFCURVE",
"270 -21 OFFCURVE",
"244 -13 CURVE SMOOTH",
"240 -12 OFFCURVE",
"236 -11 OFFCURVE",
"233 -11 CURVE SMOOTH",
"229 -11 OFFCURVE",
"227 -12 OFFCURVE",
"227 -14 CURVE SMOOTH",
"227 -19 OFFCURVE",
"233 -22 OFFCURVE",
"244 -26 CURVE SMOOTH",
"274 -35 OFFCURVE",
"301 -40 OFFCURVE",
"328 -40 CURVE SMOOTH",
"410 -40 OFFCURVE",
"480 9 OFFCURVE",
"538 105 CURVE",
"552 96 OFFCURVE",
"569 84 OFFCURVE",
"588 69 CURVE",
"573 13 OFFCURVE",
"561 -40 OFFCURVE",
"554 -90 CURVE SMOOTH",
"551 -109 OFFCURVE",
"549 -122 OFFCURVE",
"549 -127 CURVE SMOOTH",
"550 -132 OFFCURVE",
"551 -134 OFFCURVE",
"553 -134 CURVE SMOOTH"
);
},
{
closed = 1;
nodes = (
"585 129 OFFCURVE",
"572 140 OFFCURVE",
"561 147 CURVE",
"590 210 LINE",
"636 216 LINE",
"630 199 OFFCURVE",
"624 184 OFFCURVE",
"621 172 CURVE SMOOTH",
"602 115 LINE"
);
},
{
closed = 1;
nodes = (
"605 244 OFFCURVE",
"609 252 OFFCURVE",
"612 261 CURVE",
"625 260 OFFCURVE",
"639 260 OFFCURVE",
"654 261 CURVE",
"645 239 LINE",
"634 239 OFFCURVE",
"622 238 OFFCURVE",
"611 237 CURVE SMOOTH",
"608 237 OFFCURVE",
"605 236 OFFCURVE",
"602 236 CURVE"
);
},
{
closed = 1;
nodes = (
"663 386 OFFCURVE",
"692 454 OFFCURVE",
"705 482 CURVE SMOOTH",
"776 625 OFFCURVE",
"855 688 OFFCURVE",
"921 688 CURVE SMOOTH",
"971 688 OFFCURVE",
"1004 647 OFFCURVE",
"1004 588 CURVE SMOOTH",
"1004 542 OFFCURVE",
"985 495 OFFCURVE",
"947 448 CURVE SMOOTH",
"879 363 OFFCURVE",
"790 309 OFFCURVE",
"680 287 CURVE",
"759 475 OFFCURVE",
"823 587 OFFCURVE",
"868 623 CURVE SMOOTH",
"871 625 OFFCURVE",
"872 627 OFFCURVE",
"872 630 CURVE SMOOTH",
"872 635 OFFCURVE",
"870 637 OFFCURVE",
"865 637 CURVE SMOOTH",
"845 636 OFFCURVE",
"807 582 OFFCURVE",
"753 478 CURVE SMOOTH",
"719 411 OFFCURVE",
"690 345 OFFCURVE",
"663 284 CURVE",
"649 282 OFFCURVE",
"634 281 OFFCURVE",
"620 280 CURVE"
);
}
);
width = 941;
}
);
leftKerningGroup = L;
rightKerningGroup = M;
unicode = 0141;
},
{
glyphname = M;
lastChange = "2022-02-14 21:32:36 +0000";
layers = (
{
background = {
paths = (
{
closed = 1;
nodes = (
"220 -84 OFFCURVE",
"258 -77 OFFCURVE",
"298 -64 CURVE SMOOTH",
"384 -36 OFFCURVE",
"466 21 OFFCURVE",
"544 109 CURVE SMOOTH",
"590 161 OFFCURVE",
"650 245 OFFCURVE",
"723 360 CURVE SMOOTH",
"768 432 LINE",
"825 326 OFFCURVE",
"857 235 OFFCURVE",
"863 161 CURVE",
"821 90 OFFCURVE",
"800 39 OFFCURVE",
"800 8 CURVE SMOOTH",
"800 -13 OFFCURVE",
"811 -22 OFFCURVE",
"832 -22 CURVE SMOOTH",
"860 -22 OFFCURVE",
"881 -10 OFFCURVE",
"898 15 CURVE SMOOTH",
"910 34 OFFCURVE",
"918 59 OFFCURVE",
"921 89 CURVE SMOOTH",
"922 100 OFFCURVE",
"922 112 OFFCURVE",
"922 125 CURVE SMOOTH",
"922 154 OFFCURVE",
"919 184 OFFCURVE",
"913 216 CURVE",
"989 337 OFFCURVE",
"1079 451 OFFCURVE",
"1182 557 CURVE SMOOTH",
"1296 675 OFFCURVE",
"1381 734 OFFCURVE",
"1437 734 CURVE SMOOTH",
"1459 734 OFFCURVE",
"1469 737 OFFCURVE",
"1469 743 CURVE SMOOTH",
"1469 753 OFFCURVE",
"1458 758 OFFCURVE",
"1436 758 CURVE SMOOTH",
"1386 758 OFFCURVE",
"1303 700 OFFCURVE",
"1188 582 CURVE SMOOTH",
"1085 475 OFFCURVE",
"992 359 OFFCURVE",
"909 234 CURVE",
"895 297 OFFCURVE",
"859 380 OFFCURVE",
"801 483 CURVE",
"826 522 OFFCURVE",
"850 554 OFFCURVE",
"870 580 CURVE",
"896 576 OFFCURVE",
"919 574 OFFCURVE",
"940 574 CURVE SMOOTH",
"997 574 OFFCURVE",
"1035 588 OFFCURVE",
"1055 618 CURVE",
"1064 627 OFFCURVE",
"1067 638 OFFCURVE",
"1067 650 CURVE SMOOTH",
"1067 662 OFFCURVE",
"1063 671 OFFCURVE",
"1053 678 CURVE SMOOTH",
"1050 681 OFFCURVE",
"1046 684 OFFCURVE",
"1042 685 CURVE SMOOTH",
"1034 688 OFFCURVE",
"1025 690 OFFCURVE",
"1016 690 CURVE SMOOTH",
"973 690 OFFCURVE",
"924 658 OFFCURVE",
"868 593 CURVE",
"838 599 OFFCURVE",
"797 610 OFFCURVE",
"745 624 CURVE",
"745 664 OFFCURVE",
"739 695 OFFCURVE",
"725 717 CURVE",
"726 722 OFFCURVE",
"720 724 OFFCURVE",
"716 724 CURVE SMOOTH",
"713 724 OFFCURVE",
"710 722 OFFCURVE",
"708 719 CURVE",
"674 709 OFFCURVE",
"657 699 OFFCURVE",
"656 687 CURVE SMOOTH",
"655 676 OFFCURVE",
"657 663 OFFCURVE",
"660 650 CURVE",
"591 668 OFFCURVE",
"536 677 OFFCURVE",
"494 677 CURVE SMOOTH",
"390 677 OFFCURVE",
"318 644 OFFCURVE",
"276 579 CURVE SMOOTH",
"260 553 OFFCURVE",
"252 526 OFFCURVE",
"252 496 CURVE SMOOTH",
"252 458 OFFCURVE",
"265 426 OFFCURVE",
"294 402 CURVE SMOOTH",
"322 378 OFFCURVE",
"359 365 OFFCURVE",
"404 365 CURVE SMOOTH",
"444 365 OFFCURVE",
"481 378 OFFCURVE",
"516 402 CURVE SMOOTH",
"557 430 OFFCURVE",
"579 465 OFFCURVE",
"579 507 CURVE SMOOTH",
"579 530 OFFCURVE",
"568 549 OFFCURVE",
"548 565 CURVE SMOOTH",
"528 580 OFFCURVE",
"504 587 OFFCURVE",
"476 587 CURVE SMOOTH",
"426 587 OFFCURVE",
"390 565 OFFCURVE",
"368 519 CURVE SMOOTH",
"366 514 OFFCURVE",
"365 510 OFFCURVE",
"364 505 CURVE SMOOTH",
"364 504 OFFCURVE",
"369 489 OFFCURVE",
"380 457 CURVE",
"403 489 LINE",
"395 504 OFFCURVE",
"390 517 OFFCURVE",
"390 529 CURVE SMOOTH",
"390 560 OFFCURVE",
"420 576 OFFCURVE",
"475 576 CURVE SMOOTH",
"500 576 OFFCURVE",
"521 569 OFFCURVE",
"540 556 CURVE SMOOTH",
"558 542 OFFCURVE",
"568 525 OFFCURVE",
"568 504 CURVE SMOOTH",
"568 466 OFFCURVE",
"547 435 OFFCURVE",
"509 410 CURVE SMOOTH",
"476 387 OFFCURVE",
"441 377 OFFCURVE",
"405 377 CURVE SMOOTH",
"367 377 OFFCURVE",
"335 385 OFFCURVE",
"310 404 CURVE SMOOTH",
"284 422 OFFCURVE",
"271 448 OFFCURVE",
"271 479 CURVE SMOOTH",
"271 505 OFFCURVE",
"278 529 OFFCURVE",
"295 552 CURVE SMOOTH",
"339 614 OFFCURVE",
"412 644 OFFCURVE",
"515 644 CURVE SMOOTH",
"557 644 OFFCURVE",
"608 637 OFFCURVE",
"667 624 CURVE",
"676 601 OFFCURVE",
"692 568 OFFCURVE",
"716 525 CURVE",
"702 460 OFFCURVE",
"673 389 OFFCURVE",
"633 315 CURVE",
"634 320 OFFCURVE",
"635 326 OFFCURVE",
"635 331 CURVE SMOOTH",
"637 353 OFFCURVE",
"628 364 OFFCURVE",
"610 364 CURVE SMOOTH",
"586 364 OFFCURVE",
"572 352 OFFCURVE",
"566 330 CURVE",
"593 331 OFFCURVE",
"612 307 OFFCURVE",
"612 279 CURVE",
"518 123 OFFCURVE",
"421 30 OFFCURVE",
"320 0 CURVE",
"346 18 LINE",
"355 44 OFFCURVE",
"359 64 OFFCURVE",
"360 81 CURVE SMOOTH",
"360 82 OFFCURVE",
"359 83 OFFCURVE",
"357 83 CURVE SMOOTH",
"344 83 OFFCURVE",
"333 73 OFFCURVE",
"321 53 CURVE",
"321 51 LINE SMOOTH",
"318 19 OFFCURVE",
"308 -3 OFFCURVE",
"294 -13 CURVE",
"369 -3 OFFCURVE",
"449 52 OFFCURVE",
"532 152 CURVE SMOOTH",
"598 231 OFFCURVE",
"651 316 OFFCURVE",
"691 407 CURVE SMOOTH",
"705 441 OFFCURVE",
"718 474 OFFCURVE",
"727 506 CURVE",
"761 444 LINE",
"713 366 LINE SMOOTH",
"639 249 OFFCURVE",
"582 166 OFFCURVE",
"540 118 CURVE SMOOTH",
"462 30 OFFCURVE",
"382 -27 OFFCURVE",
"296 -54 CURVE SMOOTH",
"261 -64 OFFCURVE",
"228 -69 OFFCURVE",
"198 -69 CURVE SMOOTH",
"156 -69 OFFCURVE",
"122 -59 OFFCURVE",
"96 -38 CURVE SMOOTH",
"68 -17 OFFCURVE",
"56 12 OFFCURVE",
"56 47 CURVE SMOOTH",
"56 93 OFFCURVE",
"76 135 OFFCURVE",
"120 172 CURVE SMOOTH",
"152 200 OFFCURVE",
"192 221 OFFCURVE",
"239 235 CURVE SMOOTH",
"282 245 OFFCURVE",
"314 251 OFFCURVE",
"336 254 CURVE SMOOTH",
"345 255 OFFCURVE",
"350 258 OFFCURVE",
"351 261 CURVE",
"347 264 OFFCURVE",
"343 266 OFFCURVE",
"341 266 CURVE SMOOTH",
"336 266 LINE SMOOTH",
"298 263 OFFCURVE",
"254 255 OFFCURVE",
"204 239 CURVE SMOOTH",
"74 197 OFFCURVE",
"8 133 OFFCURVE",
"8 45 CURVE SMOOTH",
"8 6 OFFCURVE",
"26 -25 OFFCURVE",
"60 -50 CURVE SMOOTH",
"94 -72 OFFCURVE",
"134 -84 OFFCURVE",
"181 -84 CURVE SMOOTH"
);
},
{
closed = 1;
nodes = (
"828 0 OFFCURVE",
"825 6 OFFCURVE",
"825 18 CURVE SMOOTH",
"825 19 OFFCURVE",
"825 20 OFFCURVE",
"825 22 CURVE SMOOTH",
"827 48 OFFCURVE",
"840 83 OFFCURVE",
"863 129 CURVE",
"863 121 OFFCURVE",
"863 113 OFFCURVE",
"863 105 CURVE SMOOTH",
"858 35 OFFCURVE",
"848 0 OFFCURVE",
"835 0 CURVE SMOOTH"
);
},
{
closed = 1;
nodes = (
"770 539 OFFCURVE",
"753 572 OFFCURVE",
"743 594 CURVE",
"744 601 LINE",
"744 606 LINE",
"792 594 OFFCURVE",
"830 586 OFFCURVE",
"859 582 CURVE",
"838 557 OFFCURVE",
"817 529 OFFCURVE",
"794 495 CURVE"
);
},
{
closed = 1;
nodes = (
"1253 -79 OFFCURVE",
"1256 -70 OFFCURVE",
"1260 -53 CURVE SMOOTH",
"1265 -36 OFFCURVE",
"1273 -27 OFFCURVE",
"1287 -26 CURVE",
"1292 -27 OFFCURVE",
"1296 -27 OFFCURVE",
"1299 -27 CURVE SMOOTH",
"1327 -26 OFFCURVE",
"1351 -15 OFFCURVE",
"1373 8 CURVE SMOOTH",
"1394 30 OFFCURVE",
"1406 57 OFFCURVE",
"1408 85 CURVE",
"1407 88 OFFCURVE",
"1407 90 OFFCURVE",
"1406 91 CURVE",
"1403 89 OFFCURVE",
"1402 87 OFFCURVE",
"1401 84 CURVE SMOOTH",
"1381 18 OFFCURVE",
"1347 -15 OFFCURVE",
"1305 -15 CURVE SMOOTH",
"1254 -15 OFFCURVE",
"1216 16 OFFCURVE",
"1190 75 CURVE SMOOTH",
"1172 119 OFFCURVE",
"1163 171 OFFCURVE",
"1163 230 CURVE SMOOTH",
"1163 247 OFFCURVE",
"1164 263 OFFCURVE",
"1165 280 CURVE SMOOTH",
"1170 347 OFFCURVE",
"1185 410 OFFCURVE",
"1207 468 CURVE SMOOTH",
"1237 545 OFFCURVE",
"1276 596 OFFCURVE",
"1324 622 CURVE",
"1325 622 OFFCURVE",
"1325 622 OFFCURVE",
"1326 622 CURVE",
"1326 622 OFFCURVE",
"1326 622 OFFCURVE",
"1325 622 CURVE SMOOTH",
"1318 622 OFFCURVE",
"1305 619 OFFCURVE",
"1287 612 CURVE SMOOTH",
"1269 605 OFFCURVE",
"1258 599 OFFCURVE",
"1253 594 CURVE SMOOTH",
"1243 585 OFFCURVE",
"1231 572 OFFCURVE",
"1218 553 CURVE SMOOTH",
"1149 461 OFFCURVE",
"1115 348 OFFCURVE",
"1115 219 CURVE SMOOTH",
"1115 81 OFFCURVE",
"1157 -17 OFFCURVE",
"1240 -75 CURVE SMOOTH",
"1244 -78 OFFCURVE",
"1247 -79 OFFCURVE",
"1250 -79 CURVE SMOOTH"
);
},
{
closed = 1;
nodes = (
"920 586 OFFCURVE",
"901 588 OFFCURVE",
"880 591 CURVE",
"926 645 OFFCURVE",
"965 671 OFFCURVE",
"996 671 CURVE SMOOTH",
"1020 671 OFFCURVE",
"1031 663 OFFCURVE",
"1031 645 CURVE SMOOTH",
"1031 626 OFFCURVE",
"1020 613 OFFCURVE",
"994 602 CURVE SMOOTH",
"950 586 LINE",
"939 586 LINE SMOOTH"
);
}
);
};
layerId = "64752FBD-EC7B-42BB-A7F3-340BB4BBD1AC";
paths = (
{
closed = 1;
nodes = (
"220 -84 OFFCURVE",
"258 -77 OFFCURVE",
"298 -64 CURVE SMOOTH",
"384 -36 OFFCURVE",
"466 21 OFFCURVE",
"544 109 CURVE SMOOTH",
"590 161 OFFCURVE",
"650 245 OFFCURVE",
"723 360 CURVE SMOOTH",
"768 432 LINE",
"825 326 OFFCURVE",
"857 235 OFFCURVE",
"863 161 CURVE",
"821 90 OFFCURVE",
"800 39 OFFCURVE",
"800 8 CURVE SMOOTH",
"800 -13 OFFCURVE",
"811 -22 OFFCURVE",
"832 -22 CURVE SMOOTH",
"860 -22 OFFCURVE",
"881 -10 OFFCURVE",
"898 15 CURVE SMOOTH",
"910 34 OFFCURVE",
"918 59 OFFCURVE",
"921 89 CURVE SMOOTH",
"922 100 OFFCURVE",
"922 112 OFFCURVE",
"922 125 CURVE SMOOTH",
"922 154 OFFCURVE",
"919 184 OFFCURVE",
"913 216 CURVE",
"989 337 OFFCURVE",
"1079 451 OFFCURVE",
"1182 557 CURVE SMOOTH",
"1296 675 OFFCURVE",
"1381 734 OFFCURVE",
"1437 734 CURVE SMOOTH",
"1459 734 OFFCURVE",
"1469 737 OFFCURVE",
"1469 743 CURVE SMOOTH",
"1469 753 OFFCURVE",
"1458 758 OFFCURVE",
"1436 758 CURVE SMOOTH",
"1386 758 OFFCURVE",
"1303 700 OFFCURVE",
"1188 582 CURVE SMOOTH",
"1085 475 OFFCURVE",
"992 359 OFFCURVE",
"909 234 CURVE",
"895 297 OFFCURVE",
"859 380 OFFCURVE",
"801 483 CURVE",
"826 522 OFFCURVE",
"850 554 OFFCURVE",
"870 580 CURVE",
"896 576 OFFCURVE",
"919 574 OFFCURVE",
"940 574 CURVE SMOOTH",
"997 574 OFFCURVE",
"1035 588 OFFCURVE",
"1055 618 CURVE",
"1064 627 OFFCURVE",
"1067 638 OFFCURVE",
"1067 650 CURVE SMOOTH",
"1067 662 OFFCURVE",
"1063 671 OFFCURVE",
"1053 678 CURVE",
"1050 681 OFFCURVE",
"1046 684 OFFCURVE",
"1042 685 CURVE SMOOTH",
"1034 688 OFFCURVE",
"1025 690 OFFCURVE",
"1016 690 CURVE SMOOTH",
"973 690 OFFCURVE",
"924 658 OFFCURVE",
"868 593 CURVE",
"838 599 OFFCURVE",
"797 610 OFFCURVE",
"745 624 CURVE",
"745 664 OFFCURVE",
"739 695 OFFCURVE",
"725 717 CURVE",
"726 722 OFFCURVE",
"720 724 OFFCURVE",
"716 724 CURVE SMOOTH",
"713 724 OFFCURVE",
"710 722 OFFCURVE",
"708 719 CURVE",
"674 709 OFFCURVE",
"657 699 OFFCURVE",
"656 687 CURVE SMOOTH",
"655 676 OFFCURVE",
"657 663 OFFCURVE",
"660 650 CURVE",
"591 668 OFFCURVE",
"536 677 OFFCURVE",
"494 677 CURVE SMOOTH",
"390 677 OFFCURVE",
"318 644 OFFCURVE",
"276 579 CURVE SMOOTH",
"260 553 OFFCURVE",
"252 526 OFFCURVE",
"252 496 CURVE SMOOTH",
"252 458 OFFCURVE",
"265 426 OFFCURVE",
"294 402 CURVE SMOOTH",
"322 378 OFFCURVE",
"359 365 OFFCURVE",
"404 365 CURVE SMOOTH",
"444 365 OFFCURVE",
"481 378 OFFCURVE",
"516 402 CURVE SMOOTH",
"557 430 OFFCURVE",
"579 465 OFFCURVE",
"579 507 CURVE SMOOTH",
"579 530 OFFCURVE",
"568 549 OFFCURVE",
"548 565 CURVE SMOOTH",
"528 580 OFFCURVE",
"504 587 OFFCURVE",
"476 587 CURVE SMOOTH",
"426 587 OFFCURVE",
"390 565 OFFCURVE",
"368 519 CURVE SMOOTH",
"366 514 OFFCURVE",
"365 510 OFFCURVE",
"364 505 CURVE SMOOTH",
"364 504 OFFCURVE",
"369 489 OFFCURVE",
"380 457 CURVE",
"403 489 LINE",
"395 504 OFFCURVE",
"390 517 OFFCURVE",
"390 529 CURVE SMOOTH",
"390 560 OFFCURVE",
"420 576 OFFCURVE",
"475 576 CURVE SMOOTH",
"500 576 OFFCURVE",
"521 569 OFFCURVE",
"540 556 CURVE SMOOTH",
"558 542 OFFCURVE",
"568 525 OFFCURVE",
"568 504 CURVE SMOOTH",
"568 466 OFFCURVE",
"547 435 OFFCURVE",
"509 410 CURVE SMOOTH",
"476 387 OFFCURVE",
"441 377 OFFCURVE",
"405 377 CURVE SMOOTH",
"367 377 OFFCURVE",
"335 385 OFFCURVE",
"310 404 CURVE SMOOTH",
"284 422 OFFCURVE",
"271 448 OFFCURVE",
"271 479 CURVE SMOOTH",
"271 505 OFFCURVE",
"278 529 OFFCURVE",
"295 552 CURVE SMOOTH",
"339 614 OFFCURVE",
"412 644 OFFCURVE",
"515 644 CURVE SMOOTH",
"557 644 OFFCURVE",
"608 637 OFFCURVE",
"667 624 CURVE",
"676 601 OFFCURVE",
"692 568 OFFCURVE",
"716 525 CURVE",
"702 460 OFFCURVE",
"673 389 OFFCURVE",
"633 315 CURVE",
"634 320 OFFCURVE",
"635 326 OFFCURVE",
"635 331 CURVE SMOOTH",
"637 353 OFFCURVE",
"628 364 OFFCURVE",
"610 364 CURVE SMOOTH",
"586 364 OFFCURVE",
"572 352 OFFCURVE",
"566 330 CURVE",
"593 331 OFFCURVE",
"612 307 OFFCURVE",
"612 279 CURVE",
"518 123 OFFCURVE",
"421 30 OFFCURVE",
"320 0 CURVE",
"346 18 LINE",
"355 44 OFFCURVE",
"359 64 OFFCURVE",
"360 81 CURVE SMOOTH",
"360 82 OFFCURVE",
"359 83 OFFCURVE",
"357 83 CURVE SMOOTH",
"344 83 OFFCURVE",
"333 73 OFFCURVE",
"321 53 CURVE",
"321 51 LINE SMOOTH",
"318 19 OFFCURVE",
"308 -3 OFFCURVE",
"294 -13 CURVE",
"369 -3 OFFCURVE",
"449 52 OFFCURVE",
"532 152 CURVE SMOOTH",
"598 231 OFFCURVE",
"651 316 OFFCURVE",
"691 407 CURVE SMOOTH",
"705 441 OFFCURVE",
"718 474 OFFCURVE",
"727 506 CURVE",
"761 444 LINE",
"713 366 LINE SMOOTH",
"639 249 OFFCURVE",
"582 166 OFFCURVE",
"540 118 CURVE SMOOTH",
"462 30 OFFCURVE",
"382 -27 OFFCURVE",
"296 -54 CURVE SMOOTH",
"261 -64 OFFCURVE",
"228 -69 OFFCURVE",
"198 -69 CURVE SMOOTH",
"156 -69 OFFCURVE",
"122 -59 OFFCURVE",
"96 -38 CURVE SMOOTH",
"68 -17 OFFCURVE",
"56 12 OFFCURVE",
"56 47 CURVE SMOOTH",
"56 93 OFFCURVE",
"76 135 OFFCURVE",
"120 172 CURVE SMOOTH",
"152 200 OFFCURVE",
"192 221 OFFCURVE",
"239 235 CURVE SMOOTH",
"282 245 OFFCURVE",
"314 251 OFFCURVE",
"336 254 CURVE SMOOTH",
"345 255 OFFCURVE",
"350 258 OFFCURVE",
"351 261 CURVE",
"347 264 OFFCURVE",
"343 266 OFFCURVE",
"341 266 CURVE SMOOTH",
"336 266 LINE SMOOTH",
"298 263 OFFCURVE",
"254 255 OFFCURVE",
"204 239 CURVE SMOOTH",
"74 197 OFFCURVE",
"8 133 OFFCURVE",
"8 45 CURVE SMOOTH",
"8 6 OFFCURVE",
"26 -25 OFFCURVE",
"60 -50 CURVE SMOOTH",
"94 -72 OFFCURVE",
"134 -84 OFFCURVE",
"181 -84 CURVE SMOOTH"
);
},
{
closed = 1;
nodes = (
"828 0 OFFCURVE",
"825 6 OFFCURVE",
"825 18 CURVE SMOOTH",
"825 22 LINE SMOOTH",
"827 48 OFFCURVE",
"840 83 OFFCURVE",
"863 129 CURVE",
"863 105 LINE",
"858 35 OFFCURVE",
"848 0 OFFCURVE",
"835 0 CURVE SMOOTH"
);
},
{
closed = 1;
nodes = (
"770 539 OFFCURVE",
"753 572 OFFCURVE",
"743 594 CURVE",
"744 601 LINE",
"744 606 LINE",
"792 594 OFFCURVE",
"830 586 OFFCURVE",
"859 582 CURVE",
"838 557 OFFCURVE",
"817 529 OFFCURVE",
"794 495 CURVE"
);
},
{
closed = 1;
nodes = (
"1253 -79 OFFCURVE",
"1256 -70 OFFCURVE",
"1260 -53 CURVE SMOOTH",
"1265 -36 OFFCURVE",
"1273 -27 OFFCURVE",
"1287 -26 CURVE",
"1292 -27 OFFCURVE",
"1296 -27 OFFCURVE",
"1299 -27 CURVE SMOOTH",
"1327 -26 OFFCURVE",
"1351 -15 OFFCURVE",
"1373 8 CURVE SMOOTH",
"1394 30 OFFCURVE",
"1406 57 OFFCURVE",
"1408 85 CURVE",
"1407 88 OFFCURVE",
"1407 90 OFFCURVE",
"1406 91 CURVE",
"1403 89 OFFCURVE",
"1402 87 OFFCURVE",
"1401 84 CURVE SMOOTH",
"1381 18 OFFCURVE",
"1347 -15 OFFCURVE",
"1305 -15 CURVE SMOOTH",
"1254 -15 OFFCURVE",
"1216 16 OFFCURVE",
"1190 75 CURVE SMOOTH",
"1172 119 OFFCURVE",
"1163 171 OFFCURVE",
"1163 230 CURVE SMOOTH",
"1163 247 OFFCURVE",
"1164 263 OFFCURVE",
"1165 280 CURVE SMOOTH",
"1170 347 OFFCURVE",
"1185 410 OFFCURVE",
"1207 468 CURVE SMOOTH",
"1237 545 OFFCURVE",
"1276 596 OFFCURVE",
"1324 622 CURVE",
"1326 622 LINE",
"1325 622 LINE SMOOTH",
"1318 622 OFFCURVE",
"1305 619 OFFCURVE",
"1287 612 CURVE SMOOTH",
"1269 605 OFFCURVE",
"1258 599 OFFCURVE",
"1253 594 CURVE SMOOTH",
"1243 585 OFFCURVE",
"1231 572 OFFCURVE",
"1218 553 CURVE SMOOTH",
"1149 461 OFFCURVE",
"1115 348 OFFCURVE",
"1115 219 CURVE SMOOTH",
"1115 81 OFFCURVE",
"1157 -17 OFFCURVE",
"1240 -75 CURVE SMOOTH",
"1244 -78 OFFCURVE",
"1247 -79 OFFCURVE",
"1250 -79 CURVE SMOOTH"
);
},
{
closed = 1;
nodes = (
"920 586 OFFCURVE",
"901 588 OFFCURVE",
"880 591 CURVE",
"926 645 OFFCURVE",
"965 671 OFFCURVE",
"996 671 CURVE SMOOTH",
"1020 671 OFFCURVE",
"1031 663 OFFCURVE",
"1031 645 CURVE SMOOTH",
"1031 626 OFFCURVE",
"1020 613 OFFCURVE",
"994 602 CURVE SMOOTH",
"950 586 LINE",
"939 586 LINE SMOOTH"
);
}
);
width = 1373;
}
);
note = M;
unicode = 004D;
},
{
color = 3;
glyphname = N;
lastChange = "2022-02-14 21:32:36 +0000";
layers = (
{
anchors = (
{
name = bottom;
position = "{590, 0}";
},
{
name = top;
position = "{851, 670}";
}
);
background = {
paths = (
{
closed = 1;
nodes = (
"941 -61 LINE SMOOTH",
"980 -62 OFFCURVE",
"1013 -46 OFFCURVE",
"1039 -13 CURVE SMOOTH",
"1041 -10 OFFCURVE",
"1042 -7 OFFCURVE",
"1042 -4 CURVE SMOOTH",
"1042 1 OFFCURVE",
"1040 3 OFFCURVE",
"1035 3 CURVE SMOOTH",
"1034 3 OFFCURVE",
"1025 -5 OFFCURVE",
"1007 -20 CURVE SMOOTH",
"988 -35 OFFCURVE",
"970 -43 OFFCURVE",
"949 -43 CURVE SMOOTH",
"916 -43 OFFCURVE",
"881 -14 OFFCURVE",
"843 44 CURVE",
"865 72 OFFCURVE",
"888 122 OFFCURVE",
"910 195 CURVE SMOOTH",
"921 229 OFFCURVE",
"934 279 OFFCURVE",
"950 345 CURVE SMOOTH",
"1012 594 OFFCURVE",
"1067 727 OFFCURVE",
"1118 743 CURVE SMOOTH",
"1124 744 OFFCURVE",
"1131 745 OFFCURVE",
"1138 745 CURVE SMOOTH",
"1164 745 OFFCURVE",
"1182 735 OFFCURVE",
"1190 712 CURVE SMOOTH",
"1191 708 OFFCURVE",
"1193 706 OFFCURVE",
"1196 706 CURVE SMOOTH",
"1200 706 OFFCURVE",
"1202 708 OFFCURVE",
"1202 713 CURVE SMOOTH",
"1202 716 OFFCURVE",
"1201 720 OFFCURVE",
"1198 723 CURVE SMOOTH",
"1182 743 OFFCURVE",
"1161 754 OFFCURVE",
"1135 754 CURVE SMOOTH",
"1054 754 OFFCURVE",
"979 622 OFFCURVE",
"910 359 CURVE SMOOTH",
"875 212 LINE SMOOTH",
"861 148 OFFCURVE",
"846 99 OFFCURVE",
"831 62 CURVE",
"802 111 OFFCURVE",
"770 181 OFFCURVE",
"734 273 CURVE SMOOTH",
"654 484 LINE",
"694 609 OFFCURVE",
"733 671 OFFCURVE",
"773 671 CURVE SMOOTH",
"792 671 OFFCURVE",
"805 659 OFFCURVE",
"810 633 CURVE SMOOTH",
"812 626 OFFCURVE",
"814 622 OFFCURVE",
"816 622 CURVE SMOOTH",
"819 622 OFFCURVE",
"820 625 OFFCURVE",
"820 632 CURVE SMOOTH",
"820 657 OFFCURVE",
"796 680 OFFCURVE",
"772 680 CURVE SMOOTH",
"722 680 OFFCURVE",
"678 626 OFFCURVE",
"639 519 CURVE",
"621 562 OFFCURVE",
"600 596 OFFCURVE",
"577 622 CURVE",
"570 665 OFFCURVE",
"556 699 OFFCURVE",
"537 720 CURVE SMOOTH",
"532 726 OFFCURVE",
"526 729 OFFCURVE",
"521 729 CURVE SMOOTH",
"516 729 OFFCURVE",
"513 726 OFFCURVE",
"513 721 CURVE SMOOTH",
"513 718 OFFCURVE",
"515 713 OFFCURVE",
"519 708 CURVE SMOOTH",
"532 691 OFFCURVE",
"542 670 OFFCURVE",
"548 647 CURVE",
"502 685 OFFCURVE",
"450 703 OFFCURVE",
"392 703 CURVE SMOOTH",
"335 703 OFFCURVE",
"291 684 OFFCURVE",
"261 645 CURVE SMOOTH",
"232 610 OFFCURVE",
"219 563 OFFCURVE",
"219 503 CURVE SMOOTH",
"219 440 OFFCURVE",
"234 380 OFFCURVE",
"264 321 CURVE SMOOTH",
"299 257 OFFCURVE",
"342 214 OFFCURVE",
"398 193 CURVE SMOOTH",
"400 192 OFFCURVE",
"402 192 OFFCURVE",
"404 192 CURVE SMOOTH",
"411 192 OFFCURVE",
"414 194 OFFCURVE",
"414 199 CURVE SMOOTH",
"414 202 OFFCURVE",
"411 205 OFFCURVE",
"405 208 CURVE SMOOTH",
"382 218 OFFCURVE",
"363 227 OFFCURVE",
"350 237 CURVE SMOOTH",
"316 263 OFFCURVE",
"289 300 OFFCURVE",
"269 346 CURVE SMOOTH",
"252 389 OFFCURVE",
"243 434 OFFCURVE",
"243 481 CURVE SMOOTH",
"243 535 OFFCURVE",
"255 579 OFFCURVE",
"277 615 CURVE SMOOTH",
"303 658 OFFCURVE",
"342 679 OFFCURVE",
"393 679 CURVE SMOOTH",
"457 679 OFFCURVE",
"512 638 OFFCURVE",
"561 556 CURVE",
"561 550 LINE SMOOTH",
"561 495 OFFCURVE",
"552 432 OFFCURVE",
"535 364 CURVE",
"536 391 OFFCURVE",
"526 405 OFFCURVE",
"505 405 CURVE SMOOTH",
"485 405 OFFCURVE",
"465 386 OFFCURVE",
"465 366 CURVE",
"493 371 OFFCURVE",
"517 348 OFFCURVE",
"521 318 CURVE",
"510 284 OFFCURVE",
"496 249 OFFCURVE",
"477 211 CURVE SMOOTH",
"454 163 OFFCURVE",
"425 117 OFFCURVE",
"393 71 CURVE SMOOTH",
"347 8 OFFCURVE",
"309 -27 OFFCURVE",
"278 -34 CURVE SMOOTH",
"264 -37 OFFCURVE",
"256 -40 OFFCURVE",
"252 -42 CURVE",
"170 -39 OFFCURVE",
"109 5 OFFCURVE",
"71 91 CURVE SMOOTH",
"94 41 OFFCURVE",
"141 17 OFFCURVE",
"213 17 CURVE SMOOTH",
"263 17 OFFCURVE",
"289 22 OFFCURVE",
"289 35 CURVE SMOOTH",
"289 36 OFFCURVE",
"288 37 OFFCURVE",
"286 38 CURVE",
"284 38 OFFCURVE",
"276 36 OFFCURVE",
"262 32 CURVE SMOOTH",
"249 28 OFFCURVE",
"238 26 OFFCURVE",
"229 26 CURVE SMOOTH",
"176 26 OFFCURVE",
"134 44 OFFCURVE",
"103 79 CURVE SMOOTH",
"91 93 OFFCURVE",
"80 109 OFFCURVE",
"73 128 CURVE SMOOTH",
"69 138 OFFCURVE",
"63 155 OFFCURVE",
"57 181 CURVE SMOOTH",
"56 186 OFFCURVE",
"53 188 OFFCURVE",
"49 188 CURVE SMOOTH",
"34 188 OFFCURVE",
"26 178 OFFCURVE",
"26 156 CURVE SMOOTH",
"26 138 OFFCURVE",
"31 113 OFFCURVE",
"42 84 CURVE SMOOTH",
"58 41 OFFCURVE",
"88 7 OFFCURVE",
"132 -19 CURVE SMOOTH",
"173 -41 OFFCURVE",
"218 -53 OFFCURVE",
"266 -53 CURVE SMOOTH",
"377 -53 OFFCURVE",
"462 -2 OFFCURVE",
"522 100 CURVE SMOOTH",
"554 153 OFFCURVE",
"590 255 OFFCURVE",
"630 404 CURVE",
"687 255 OFFCURVE",
"720 170 OFFCURVE",
"731 148 CURVE SMOOTH",
"774 55 OFFCURVE",
"820 -8 OFFCURVE",
"868 -38 CURVE SMOOTH",
"892 -53 OFFCURVE",
"915 -60 OFFCURVE",
"939 -61 CURVE SMOOTH"
);
},
{
closed = 1;
nodes = (
"356 -8 OFFCURVE",
"427 72 OFFCURVE",
"488 197 CURVE SMOOTH",
"542 307 OFFCURVE",
"573 415 OFFCURVE",
"581 521 CURVE",
"591 500 OFFCURVE",
"603 473 OFFCURVE",
"616 441 CURVE",
"584 318 OFFCURVE",
"566 248 OFFCURVE",
"559 230 CURVE SMOOTH",
"533 149 OFFCURVE",
"500 87 OFFCURVE",
"462 44 CURVE SMOOTH",
"413 -10 OFFCURVE",
"350 -39 OFFCURVE",
"275 -42 CURVE"
);
}
);
};
layerId = "64752FBD-EC7B-42BB-A7F3-340BB4BBD1AC";
paths = (
{
closed = 1;
nodes = (
"941 -61 LINE SMOOTH",
"980 -61 OFFCURVE",
"1013 -46 OFFCURVE",
"1039 -13 CURVE SMOOTH",
"1041 -10 OFFCURVE",
"1042 -7 OFFCURVE",
"1042 -4 CURVE SMOOTH",
"1042 1 OFFCURVE",
"1040 3 OFFCURVE",
"1035 3 CURVE SMOOTH",
"1034 3 OFFCURVE",
"1025 -5 OFFCURVE",
"1007 -20 CURVE SMOOTH",
"988 -35 OFFCURVE",
"970 -43 OFFCURVE",
"949 -43 CURVE SMOOTH",
"916 -43 OFFCURVE",
"881 -14 OFFCURVE",
"843 44 CURVE",
"865 72 OFFCURVE",
"888 122 OFFCURVE",
"910 195 CURVE SMOOTH",
"921 229 OFFCURVE",
"934 279 OFFCURVE",
"950 345 CURVE SMOOTH",
"1012 594 OFFCURVE",
"1067 727 OFFCURVE",
"1118 743 CURVE",
"1124 744 OFFCURVE",
"1131 745 OFFCURVE",
"1138 745 CURVE SMOOTH",
"1164 745 OFFCURVE",
"1182 735 OFFCURVE",
"1190 712 CURVE SMOOTH",
"1191 708 OFFCURVE",
"1193 706 OFFCURVE",
"1196 706 CURVE SMOOTH",
"1200 706 OFFCURVE",
"1202 708 OFFCURVE",
"1202 713 CURVE SMOOTH",
"1202 716 OFFCURVE",
"1201 720 OFFCURVE",
"1198 723 CURVE SMOOTH",
"1182 743 OFFCURVE",
"1161 754 OFFCURVE",
"1135 754 CURVE SMOOTH",
"1054 754 OFFCURVE",
"973 624 OFFCURVE",
"910 359 CURVE SMOOTH",
"875 212 LINE SMOOTH",
"860 148 OFFCURVE",
"846 99 OFFCURVE",
"831 62 CURVE",
"802 111 OFFCURVE",
"769 181 OFFCURVE",
"734 273 CURVE SMOOTH",
"654 484 LINE",
"694 609 OFFCURVE",
"733 671 OFFCURVE",
"773 671 CURVE SMOOTH",
"792 671 OFFCURVE",
"805 659 OFFCURVE",
"810 633 CURVE SMOOTH",
"812 626 OFFCURVE",
"814 622 OFFCURVE",
"816 622 CURVE SMOOTH",
"819 622 OFFCURVE",
"820 625 OFFCURVE",
"820 632 CURVE SMOOTH",
"820 657 OFFCURVE",
"796 680 OFFCURVE",
"772 680 CURVE SMOOTH",
"722 680 OFFCURVE",
"678 626 OFFCURVE",
"639 519 CURVE",
"621 562 OFFCURVE",
"600 596 OFFCURVE",
"577 622 CURVE",
"570 665 OFFCURVE",
"556 699 OFFCURVE",
"537 720 CURVE SMOOTH",
"532 726 OFFCURVE",
"526 729 OFFCURVE",
"521 729 CURVE SMOOTH",
"516 729 OFFCURVE",
"513 726 OFFCURVE",
"513 721 CURVE SMOOTH",
"513 718 OFFCURVE",
"515 713 OFFCURVE",
"519 708 CURVE SMOOTH",
"532 691 OFFCURVE",
"542 670 OFFCURVE",
"548 647 CURVE",
"502 685 OFFCURVE",
"450 703 OFFCURVE",
"392 703 CURVE SMOOTH",
"335 703 OFFCURVE",
"291 684 OFFCURVE",
"261 645 CURVE SMOOTH",
"232 610 OFFCURVE",
"219 563 OFFCURVE",
"219 503 CURVE SMOOTH",
"219 440 OFFCURVE",
"234 380 OFFCURVE",
"264 321 CURVE SMOOTH",
"299 257 OFFCURVE",
"342 214 OFFCURVE",
"398 193 CURVE SMOOTH",
"400 192 OFFCURVE",
"402 192 OFFCURVE",
"404 192 CURVE SMOOTH",
"411 192 OFFCURVE",
"414 194 OFFCURVE",
"414 199 CURVE SMOOTH",
"414 202 OFFCURVE",
"411 205 OFFCURVE",
"405 208 CURVE SMOOTH",
"382 218 OFFCURVE",
"363 227 OFFCURVE",
"350 237 CURVE SMOOTH",
"316 263 OFFCURVE",
"289 300 OFFCURVE",
"269 346 CURVE SMOOTH",
"252 389 OFFCURVE",
"243 434 OFFCURVE",
"243 481 CURVE SMOOTH",
"243 535 OFFCURVE",
"255 579 OFFCURVE",
"277 615 CURVE SMOOTH",
"303 658 OFFCURVE",
"342 679 OFFCURVE",
"393 679 CURVE SMOOTH",
"457 679 OFFCURVE",
"512 638 OFFCURVE",
"561 556 CURVE",
"561 550 LINE SMOOTH",
"561 495 OFFCURVE",
"552 432 OFFCURVE",
"535 364 CURVE",
"536 391 OFFCURVE",
"526 405 OFFCURVE",
"505 405 CURVE SMOOTH",
"485 405 OFFCURVE",
"465 386 OFFCURVE",
"465 366 CURVE",
"493 371 OFFCURVE",
"517 348 OFFCURVE",
"521 318 CURVE",
"510 284 OFFCURVE",
"496 249 OFFCURVE",
"477 211 CURVE SMOOTH",
"454 163 OFFCURVE",
"425 117 OFFCURVE",
"393 71 CURVE SMOOTH",
"347 8 OFFCURVE",
"309 -27 OFFCURVE",
"278 -34 CURVE SMOOTH",
"264 -37 OFFCURVE",
"256 -40 OFFCURVE",
"252 -42 CURVE",
"170 -39 OFFCURVE",
"109 5 OFFCURVE",
"71 91 CURVE",
"94 41 OFFCURVE",
"141 17 OFFCURVE",
"213 17 CURVE SMOOTH",
"263 17 OFFCURVE",
"289 22 OFFCURVE",
"289 35 CURVE SMOOTH",
"289 36 OFFCURVE",
"288 37 OFFCURVE",
"286 38 CURVE",
"284 38 OFFCURVE",
"276 36 OFFCURVE",
"262 32 CURVE SMOOTH",
"249 28 OFFCURVE",
"238 26 OFFCURVE",
"229 26 CURVE SMOOTH",
"176 26 OFFCURVE",
"134 44 OFFCURVE",
"103 79 CURVE SMOOTH",
"91 93 OFFCURVE",
"80 109 OFFCURVE",
"73 128 CURVE SMOOTH",
"69 138 OFFCURVE",
"63 155 OFFCURVE",
"57 181 CURVE SMOOTH",
"56 186 OFFCURVE",
"53 188 OFFCURVE",
"49 188 CURVE SMOOTH",
"34 188 OFFCURVE",
"26 178 OFFCURVE",
"26 156 CURVE SMOOTH",
"26 138 OFFCURVE",
"31 113 OFFCURVE",
"42 84 CURVE SMOOTH",
"58 41 OFFCURVE",
"88 7 OFFCURVE",
"132 -19 CURVE SMOOTH",
"173 -41 OFFCURVE",
"218 -53 OFFCURVE",
"266 -53 CURVE SMOOTH",
"377 -53 OFFCURVE",
"462 -2 OFFCURVE",
"522 100 CURVE SMOOTH",
"554 153 OFFCURVE",
"590 255 OFFCURVE",
"630 404 CURVE",
"687 255 OFFCURVE",
"720 170 OFFCURVE",
"731 148 CURVE SMOOTH",
"774 55 OFFCURVE",
"820 -8 OFFCURVE",
"868 -38 CURVE SMOOTH",
"892 -53 OFFCURVE",
"915 -61 OFFCURVE",
"939 -61 CURVE SMOOTH"
);
},
{
closed = 1;
nodes = (
"356 -8 OFFCURVE",
"427 72 OFFCURVE",
"488 197 CURVE SMOOTH",
"542 307 OFFCURVE",
"573 415 OFFCURVE",
"581 521 CURVE",
"591 500 OFFCURVE",
"603 473 OFFCURVE",
"616 441 CURVE",
"584 318 OFFCURVE",
"566 248 OFFCURVE",
"559 230 CURVE SMOOTH",
"533 149 OFFCURVE",
"500 87 OFFCURVE",
"462 44 CURVE SMOOTH",
"413 -10 OFFCURVE",
"350 -39 OFFCURVE",
"275 -42 CURVE"
);
}
);
width = 980;
}
);
leftKerningGroup = N;
note = N;
rightKerningGroup = N;
unicode = 004E;
},
